SourceSerif_d0.ufo
<glyph name="exclam" format="2">
	<unicode hex="0021"/>
	<advance width="276"/>
	<outline>
		<contour>
			<point x="138" y="-8" type="curve" smooth="yes"/>
			<point x="154" y="-8"/>
			<point x="168" y="3"/>
			<point x="168" y="22" type="curve" smooth="yes"/>
			<point x="168" y="41"/>
			<point x="154" y="52"/>
			<point x="138" y="52" type="curve" smooth="yes"/>
			<point x="122" y="52"/>
			<point x="108" y="41"/>
			<point x="108" y="22" type="curve" smooth="yes"/>
			<point x="108" y="3"/>
			<point x="122" y="-8"/>
		</contour>
		<contour>
			<point x="138" y="688" type="curve"/>
			<point x="127" y="688"/>
			<point x="121" y="680"/>
			<point x="121" y="664" type="curve" smooth="yes"/>
			<point x="121" y="606"/>
			<point x="126" y="530"/>
			<point x="128" y="404" type="curve" smooth="yes"/>
			<point x="132" y="172" type="line"/>
			<point x="144" y="172" type="line"/>
			<point x="148" y="404" type="line" smooth="yes"/>
			<point x="150" y="530"/>
			<point x="155" y="606"/>
			<point x="155" y="664" type="curve" smooth="yes"/>
			<point x="155" y="680"/>
			<point x="149" y="688"/>
		</contour>
	</outline>
</glyph>
<glyph name="numbersign" format="2">
	<unicode hex="0023"/>
	<advance width="512"/>
	<outline>
		<contour>
			<point x="92" y="0" type="line"/>
			<point x="112" y="0" type="line"/>
			<point x="208" y="656" type="line"/>
			<point x="188" y="656" type="line"/>
		</contour>
		<contour>
			<point x="24" y="232" type="line"/>
			<point x="24" y="210" type="line"/>
			<point x="452" y="210" type="line"/>
			<point x="452" y="232" type="line"/>
		</contour>
		<contour>
			<point x="488" y="440" type="line"/>
			<point x="488" y="462" type="line"/>
			<point x="56" y="462" type="line"/>
			<point x="56" y="440" type="line"/>
		</contour>
		<contour>
			<point x="292" y="0" type="line"/>
			<point x="312" y="0" type="line"/>
			<point x="408" y="656" type="line"/>
			<point x="388" y="656" type="line"/>
		</contour>
	</outline>
</glyph>
<glyph name="quotesingle" format="2">
	<unicode hex="0027"/>
	<advance width="136"/>
	<outline>
		<contour>
			<point x="74" y="468" type="line"/>
			<point x="79" y="584" type="line" smooth="yes"/>
			<point x="81" y="647"/>
			<point x="84" y="694"/>
			<point x="84" y="726" type="curve" smooth="yes"/>
			<point x="84" y="741"/>
			<point x="79" y="748"/>
			<point x="68" y="748" type="curve"/>
			<point x="57" y="748"/>
			<point x="52" y="741"/>
			<point x="52" y="726" type="curve" smooth="yes"/>
			<point x="52" y="694"/>
			<point x="55" y="647"/>
			<point x="57" y="584" type="curve" smooth="yes"/>
			<point x="62" y="468" type="line"/>
		</contour>
	</outline>
</glyph>
<glyph name="parenleft" format="2">
	<unicode hex="0028"/>
	<advance width="292"/>
	<outline>
		<contour>
			<point x="112" y="276" type="curve" smooth="yes"/>
			<point x="112" y="466"/>
			<point x="168" y="615"/>
			<point x="268" y="767" type="curve"/>
			<point x="260" y="772" type="line"/>
			<point x="147" y="620"/>
			<point x="88" y="450"/>
			<point x="88" y="276" type="curve" smooth="yes"/>
			<point x="88" y="102"/>
			<point x="147" y="-68"/>
			<point x="260" y="-220" type="curve"/>
			<point x="268" y="-215" type="line"/>
			<point x="168" y="-63"/>
			<point x="112" y="86"/>
		</contour>
	</outline>
</glyph>
<glyph name="asterisk" format="2">
	<unicode hex="002A"/>
	<advance width="408"/>
	<outline>
		<contour>
			<point x="204" y="756" type="curve" smooth="yes"/>
			<point x="193" y="756"/>
			<point x="190" y="748"/>
			<point x="190" y="734" type="curve" smooth="yes"/>
			<point x="190" y="713"/>
			<point x="193" y="675"/>
			<point x="196" y="624" type="curve" smooth="yes"/>
			<point x="199" y="575" type="line"/>
			<point x="153" y="593" type="line" smooth="yes"/>
			<point x="96" y="615"/>
			<point x="55" y="635"/>
			<point x="40" y="635" type="curve" smooth="yes"/>
			<point x="32" y="635"/>
			<point x="24" y="633"/>
			<point x="24" y="622" type="curve" smooth="yes"/>
			<point x="24" y="607"/>
			<point x="71" y="598"/>
			<point x="148" y="578" type="curve" smooth="yes"/>
			<point x="196" y="566" type="line"/>
			<point x="164" y="527" type="line" smooth="yes"/>
			<point x="121" y="475"/>
			<point x="88" y="440"/>
			<point x="88" y="426" type="curve" smooth="yes"/>
			<point x="88" y="416"/>
			<point x="94" y="413"/>
			<point x="100" y="413" type="curve" smooth="yes"/>
			<point x="118" y="413"/>
			<point x="137" y="456"/>
			<point x="177" y="518" type="curve" smooth="yes"/>
			<point x="204" y="560" type="line"/>
			<point x="231" y="518" type="line" smooth="yes"/>
			<point x="271" y="456"/>
			<point x="290" y="413"/>
			<point x="308" y="413" type="curve" smooth="yes"/>
			<point x="314" y="413"/>
			<point x="320" y="416"/>
			<point x="320" y="426" type="curve" smooth="yes"/>
			<point x="320" y="440"/>
			<point x="287" y="475"/>
			<point x="244" y="527" type="curve" smooth="yes"/>
			<point x="212" y="566" type="line"/>
			<point x="260" y="578" type="line" smooth="yes"/>
			<point x="337" y="598"/>
			<point x="384" y="607"/>
			<point x="384" y="622" type="curve" smooth="yes"/>
			<point x="384" y="633"/>
			<point x="376" y="635"/>
			<point x="368" y="635" type="curve" smooth="yes"/>
			<point x="353" y="635"/>
			<point x="312" y="615"/>
			<point x="255" y="593" type="curve" smooth="yes"/>
			<point x="209" y="575" type="line"/>
			<point x="212" y="624" type="line" smooth="yes"/>
			<point x="215" y="675"/>
			<point x="218" y="713"/>
			<point x="218" y="734" type="curve" smooth="yes"/>
			<point x="218" y="748"/>
			<point x="215" y="756"/>
		</contour>
	</outline>
</glyph>
<glyph name="plus" format="2">
	<unicode hex="002B"/>
	<advance width="496"/>
	<outline>
		<contour>
			<point x="240" y="108" type="line"/>
			<point x="257" y="108" type="line"/>
			<point x="257" y="556" type="line"/>
			<point x="240" y="556" type="line"/>
		</contour>
		<contour>
			<point x="460" y="328" type="line"/>
			<point x="460" y="344" type="line"/>
			<point x="36" y="344" type="line"/>
			<point x="36" y="328" type="line"/>
		</contour>
	</outline>
</glyph>
<glyph name="comma" format="2">
	<unicode hex="002C"/>
	<advance width="276"/>
	<outline>
		<contour>
			<point x="74" y="-168" type="line"/>
			<point x="131" y="-131"/>
			<point x="168" y="-73"/>
			<point x="168" y="-7" type="curve" smooth="yes"/>
			<point x="168" y="17"/>
			<point x="168" y="26"/>
			<point x="163" y="41" type="curve"/>
			<point x="155" y="49"/>
			<point x="149" y="52"/>
			<point x="137" y="52" type="curve" smooth="yes"/>
			<point x="119" y="52"/>
			<point x="109" y="39"/>
			<point x="109" y="24" type="curve" smooth="yes"/>
			<point x="109" y="10"/>
			<point x="118" y="1"/>
			<point x="131" y="-10" type="curve" smooth="yes"/>
			<point x="160" y="-33" type="line"/>
			<point x="154" y="-16" type="line"/>
			<point x="149" y="-80"/>
			<point x="119" y="-123"/>
			<point x="68" y="-160" type="curve"/>
		</contour>
	</outline>
</glyph>
<glyph name="hyphen" format="2">
	<unicode hex="002D"/>
	<unicode hex="00AD"/>
	<unicode hex="2010"/>
	<advance width="310"/>
	<outline>
		<contour>
			<point x="40" y="235" type="line"/>
			<point x="270" y="235" type="line"/>
			<point x="270" y="261" type="line"/>
			<point x="40" y="261" type="line"/>
		</contour>
	</outline>
</glyph>
<glyph name="period" format="2">
	<unicode hex="002E"/>
	<advance width="276"/>
	<outline>
		<contour>
			<point x="138" y="-8" type="curve" smooth="yes"/>
			<point x="154" y="-8"/>
			<point x="168" y="3"/>
			<point x="168" y="22" type="curve" smooth="yes"/>
			<point x="168" y="41"/>
			<point x="154" y="52"/>
			<point x="138" y="52" type="curve" smooth="yes"/>
			<point x="122" y="52"/>
			<point x="108" y="41"/>
			<point x="108" y="22" type="curve" smooth="yes"/>
			<point x="108" y="3"/>
			<point x="122" y="-8"/>
		</contour>
	</outline>
</glyph>
<glyph name="slash" format="2">
	<unicode hex="002F"/>
	<advance width="270"/>
	<outline>
		<contour>
			<point x="0" y="-160" type="line"/>
			<point x="18" y="-160" type="line"/>
			<point x="270" y="708" type="line"/>
			<point x="252" y="708" type="line"/>
		</contour>
	</outline>
</glyph>
<glyph name="zero" format="2">
	<unicode hex="0030"/>
	<advance width="460"/>
	<outline>
		<contour>
			<point x="230" y="-12" type="curve" smooth="yes"/>
			<point x="324" y="-12"/>
			<point x="410" y="85"/>
			<point x="410" y="324" type="curve" smooth="yes"/>
			<point x="410" y="565"/>
			<point x="324" y="668"/>
			<point x="230" y="668" type="curve" smooth="yes"/>
			<point x="136" y="668"/>
			<point x="50" y="565"/>
			<point x="50" y="324" type="curve" smooth="yes"/>
			<point x="50" y="85"/>
			<point x="136" y="-12"/>
		</contour>
		<contour>
			<point x="230" y="1" type="curve" smooth="yes"/>
			<point x="157" y="1"/>
			<point x="78" y="87"/>
			<point x="78" y="324" type="curve" smooth="yes"/>
			<point x="78" y="563"/>
			<point x="157" y="655"/>
			<point x="230" y="655" type="curve" smooth="yes"/>
			<point x="303" y="655"/>
			<point x="382" y="563"/>
			<point x="382" y="324" type="curve" smooth="yes"/>
			<point x="382" y="87"/>
			<point x="303" y="1"/>
		</contour>
	</outline>
</glyph>
<glyph name="less" format="2">
	<unicode hex="003C"/>
	<advance width="496"/>
	<outline>
		<contour>
			<point x="60" y="334" type="line"/>
			<point x="423" y="100" type="line"/>
			<point x="432" y="113" type="line"/>
			<point x="80" y="340" type="line"/>
			<point x="80" y="334" type="line"/>
			<point x="432" y="559" type="line"/>
			<point x="423" y="572" type="line"/>
			<point x="60" y="340" type="line"/>
		</contour>
	</outline>
</glyph>
<glyph name="question" format="2">
	<unicode hex="003F"/>
	<advance width="344"/>
	<outline>
		<contour>
			<point x="134" y="-8" type="curve" smooth="yes"/>
			<point x="149" y="-8"/>
			<point x="162" y="3"/>
			<point x="162" y="20" type="curve" smooth="yes"/>
			<point x="162" y="37"/>
			<point x="149" y="48"/>
			<point x="134" y="48" type="curve" smooth="yes"/>
			<point x="119" y="48"/>
			<point x="106" y="37"/>
			<point x="106" y="20" type="curve" smooth="yes"/>
			<point x="106" y="3"/>
			<point x="119" y="-8"/>
		</contour>
		<contour>
			<point x="300" y="500" type="curve" smooth="yes"/>
			<point x="300" y="619"/>
			<point x="209" y="657"/>
			<point x="92" y="688" type="curve"/>
			<point x="79" y="684"/>
			<point x="76" y="675"/>
			<point x="76" y="667" type="curve" smooth="yes"/>
			<point x="76" y="655"/>
			<point x="87" y="648"/>
			<point x="104" y="646" type="curve" smooth="yes"/>
			<point x="220" y="630" type="line"/>
			<point x="179" y="648" type="line"/>
			<point x="255" y="605"/>
			<point x="280" y="574"/>
			<point x="280" y="508" type="curve" smooth="yes"/>
			<point x="280" y="449"/>
			<point x="261" y="421"/>
			<point x="200" y="376" type="curve" smooth="yes"/>
			<point x="168" y="352" type="line" smooth="yes"/>
			<point x="119" y="315"/>
			<point x="108" y="297"/>
			<point x="108" y="268" type="curve" smooth="yes"/>
			<point x="108" y="249"/>
			<point x="112" y="231"/>
			<point x="116" y="200" type="curve" smooth="yes"/>
			<point x="120" y="172" type="line"/>
			<point x="132" y="172" type="line"/>
			<point x="128" y="252" type="line" smooth="yes"/>
			<point x="126" y="288"/>
			<point x="141" y="304"/>
			<point x="184" y="336" type="curve" smooth="yes"/>
			<point x="216" y="360" type="line" smooth="yes"/>
			<point x="267" y="398"/>
			<point x="300" y="429"/>
		</contour>
	</outline>
</glyph>
<glyph name="at" format="2">
	<unicode hex="0040"/>
	<advance width="812"/>
	<outline>
		<contour>
			<point x="331" y="56" type="curve" smooth="yes"/>
			<point x="393" y="56"/>
			<point x="450" y="110"/>
			<point x="506" y="187" type="curve"/>
			<point x="504" y="190" type="line"/>
			<point x="502" y="193" type="line"/>
			<point x="440" y="116"/>
			<point x="390" y="76"/>
			<point x="335" y="76" type="curve" smooth="yes"/>
			<point x="293" y="76"/>
			<point x="265" y="104"/>
			<point x="265" y="175" type="curve" smooth="yes"/>
			<point x="265" y="289"/>
			<point x="347" y="452"/>
			<point x="470" y="452" type="curve" smooth="yes"/>
			<point x="500" y="452"/>
			<point x="528" y="440"/>
			<point x="545" y="419" type="curve"/>
			<point x="549" y="433" type="line"/>
			<point x="535" y="454"/>
			<point x="503" y="468"/>
			<point x="474" y="468" type="curve" smooth="yes"/>
			<point x="361" y="468"/>
			<point x="241" y="306"/>
			<point x="241" y="170" type="curve" smooth="yes"/>
			<point x="241" y="82"/>
			<point x="290" y="56"/>
		</contour>
		<contour>
			<point x="556" y="56" type="curve" smooth="yes"/>
			<point x="665" y="56"/>
			<point x="780" y="163"/>
			<point x="780" y="344" type="curve" smooth="yes"/>
			<point x="780" y="532"/>
			<point x="651" y="664"/>
			<point x="460" y="664" type="curve" smooth="yes"/>
			<point x="210" y="664"/>
			<point x="32" y="443"/>
			<point x="32" y="196" type="curve" smooth="yes"/>
			<point x="32" y="-25"/>
			<point x="168" y="-156"/>
			<point x="372" y="-156" type="curve" smooth="yes"/>
			<point x="445" y="-156"/>
			<point x="508" y="-141"/>
			<point x="564" y="-112" type="curve"/>
			<point x="560" y="-104" type="line"/>
			<point x="505" y="-130"/>
			<point x="454" y="-143"/>
			<point x="372" y="-143" type="curve" smooth="yes"/>
			<point x="183" y="-143"/>
			<point x="54" y="-12"/>
			<point x="54" y="196" type="curve" smooth="yes"/>
			<point x="54" y="440"/>
			<point x="224" y="651"/>
			<point x="460" y="651" type="curve" smooth="yes"/>
			<point x="638" y="651"/>
			<point x="758" y="527"/>
			<point x="758" y="344" type="curve" smooth="yes"/>
			<point x="758" y="169"/>
			<point x="652" y="69"/>
			<point x="560" y="69" type="curve" smooth="yes"/>
			<point x="515" y="69"/>
			<point x="493" y="106"/>
			<point x="505" y="164" type="curve" smooth="yes"/>
			<point x="567" y="462" type="line"/>
			<point x="562" y="466" type="line"/>
			<point x="538" y="434" type="line"/>
			<point x="483" y="166" type="line"/>
			<point x="483" y="165" type="line"/>
			<point x="468" y="91"/>
			<point x="506" y="56"/>
		</contour>
	</outline>
</glyph>
<glyph name="A" format="2">
	<unicode hex="0041"/>
	<advance width="606"/>
	<outline>
		<contour>
			<point x="172" y="250" type="line"/>
			<point x="428" y="250" type="line"/>
			<point x="420" y="264" type="line"/>
			<point x="180" y="264" type="line"/>
		</contour>
		<contour>
			<point x="12" y="0" type="line"/>
			<point x="203" y="0" type="line"/>
			<point x="203" y="10" type="line"/>
			<point x="106" y="16" type="line"/>
			<point x="96" y="16" type="line"/>
			<point x="12" y="10" type="line"/>
		</contour>
		<contour>
			<point x="392" y="0" type="line"/>
			<point x="594" y="0" type="line"/>
			<point x="594" y="10" type="line"/>
			<point x="505" y="16" type="line"/>
			<point x="492" y="16" type="line"/>
			<point x="392" y="10" type="line"/>
		</contour>
		<contour>
			<point x="87" y="0" type="line"/>
			<point x="104" y="0" type="line"/>
			<point x="298" y="628" type="line"/>
			<point x="492" y="0" type="line"/>
			<point x="519" y="0" type="line"/>
			<point x="307" y="684" type="line"/>
			<point x="300" y="684" type="line"/>
		</contour>
	</outline>
	<anchor name="aboveUC" x="316" y="682"/>
	<anchor name="belowLC" x="325" y="-22"/>
	<anchor name="ogonek" x="552" y="0"/>
</glyph>
<glyph name="B" format="2">
	<unicode hex="0042"/>
	<advance width="558"/>
	<outline>
		<contour>
			<point x="55" y="0" type="line"/>
			<point x="171" y="0" type="line"/>
			<point x="171" y="27" type="line"/>
			<point x="164" y="27" type="line"/>
			<point x="55" y="20" type="line"/>
		</contour>
		<contour>
			<point x="157" y="206"/>
			<point x="157" y="102"/>
			<point x="155" y="0" type="curve"/>
			<point x="187" y="0" type="line"/>
			<point x="185" y="102"/>
			<point x="185" y="206"/>
			<point x="185" y="350" type="curve" smooth="yes"/>
			<point x="185" y="357" type="line" smooth="yes"/>
			<point x="185" y="471"/>
			<point x="185" y="575"/>
			<point x="187" y="677" type="curve"/>
			<point x="155" y="677" type="line"/>
			<point x="157" y="575"/>
			<point x="157" y="471"/>
			<point x="157" y="367" type="curve" smooth="yes"/>
			<point x="157" y="310" type="line" smooth="yes"/>
		</contour>
		<contour>
			<point x="171" y="0" type="line"/>
			<point x="294" y="0" type="line" smooth="yes"/>
			<point x="441" y="0"/>
			<point x="511" y="77"/>
			<point x="511" y="179" type="curve" smooth="yes"/>
			<point x="511" y="279"/>
			<point x="447" y="355"/>
			<point x="295" y="357" type="curve"/>
			<point x="286" y="349" type="line"/>
			<point x="418" y="360"/>
			<point x="478" y="435"/>
			<point x="478" y="519" type="curve" smooth="yes"/>
			<point x="478" y="614"/>
			<point x="416" y="677"/>
			<point x="279" y="677" type="curve" smooth="yes"/>
			<point x="171" y="677" type="line"/>
			<point x="171" y="655" type="line"/>
			<point x="269" y="655" type="line" smooth="yes"/>
			<point x="405" y="655"/>
			<point x="452" y="598"/>
			<point x="452" y="522" type="curve" smooth="yes"/>
			<point x="452" y="427"/>
			<point x="382" y="363"/>
			<point x="254" y="363" type="curve" smooth="yes"/>
			<point x="171" y="363" type="line"/>
			<point x="171" y="343" type="line"/>
			<point x="266" y="343" type="line" smooth="yes"/>
			<point x="418" y="343"/>
			<point x="483" y="283"/>
			<point x="483" y="181" type="curve" smooth="yes"/>
			<point x="483" y="79"/>
			<point x="413" y="22"/>
			<point x="295" y="22" type="curve" smooth="yes"/>
			<point x="171" y="22" type="line"/>
		</contour>
		<contour>
			<point x="55" y="657" type="line"/>
			<point x="164" y="650" type="line"/>
			<point x="171" y="650" type="line"/>
			<point x="171" y="677" type="line"/>
			<point x="55" y="677" type="line"/>
		</contour>
	</outline>
	<anchor name="aboveUC" x="267" y="682"/>
	<anchor name="belowLC" x="293" y="-22"/>
</glyph>
<glyph name="C" format="2">
	<unicode hex="0043"/>
	<advance width="596"/>
	<outline>
		<contour>
			<point x="512" y="643" type="line"/>
			<point x="530" y="496" type="line"/>
			<point x="542" y="496" type="line"/>
			<point x="537" y="635" type="line"/>
			<point x="485" y="670"/>
			<point x="435" y="688"/>
			<point x="360" y="688" type="curve" smooth="yes"/>
			<point x="181" y="688"/>
			<point x="56" y="548"/>
			<point x="56" y="338" type="curve" smooth="yes"/>
			<point x="56" y="129"/>
			<point x="175" y="-13"/>
			<point x="359" y="-13" type="curve" smooth="yes"/>
			<point x="426" y="-13"/>
			<point x="480" y="-1"/>
			<point x="543" y="40" type="curve"/>
			<point x="548" y="180" type="line"/>
			<point x="536" y="180" type="line"/>
			<point x="518" y="32" type="line"/>
			<point x="532" y="51" type="line"/>
			<point x="481" y="15"/>
			<point x="421" y="1"/>
			<point x="358" y="1" type="curve" smooth="yes"/>
			<point x="200" y="1"/>
			<point x="84" y="130"/>
			<point x="84" y="337" type="curve" smooth="yes"/>
			<point x="84" y="542"/>
			<point x="193" y="674"/>
			<point x="363" y="674" type="curve" smooth="yes"/>
			<point x="428" y="674"/>
			<point x="474" y="660"/>
			<point x="526" y="624" type="curve"/>
		</contour>
	</outline>
	<anchor name="aboveUC" x="373" y="682"/>
	<anchor name="belowLC" x="380" y="-22"/>
	<anchor name="baseLC" x="381" y="0"/>
</glyph>
<glyph name="D" format="2">
	<unicode hex="0044"/>
	<advance width="666"/>
	<outline>
		<contour>
			<point x="55" y="0" type="line"/>
			<point x="171" y="0" type="line"/>
			<point x="171" y="17" type="line"/>
			<point x="164" y="17" type="line"/>
			<point x="55" y="10" type="line"/>
		</contour>
		<contour>
			<point x="155" y="0" type="curve"/>
			<point x="187" y="0" type="line"/>
			<point x="185" y="102"/>
			<point x="185" y="206"/>
			<point x="185" y="340" type="curve" smooth="yes"/>
			<point x="185" y="355" type="line" smooth="yes"/>
			<point x="185" y="471"/>
			<point x="185" y="575"/>
			<point x="187" y="677" type="curve"/>
			<point x="155" y="677" type="line"/>
			<point x="157" y="575"/>
			<point x="157" y="471"/>
			<point x="157" y="355" type="curve" smooth="yes"/>
			<point x="157" y="340" type="line" smooth="yes"/>
			<point x="157" y="206"/>
			<point x="157" y="102"/>
		</contour>
		<contour>
			<point x="171" y="0" type="line"/>
			<point x="288" y="0" type="line" smooth="yes"/>
			<point x="495" y="0"/>
			<point x="606" y="135"/>
			<point x="606" y="338" type="curve" smooth="yes"/>
			<point x="606" y="555"/>
			<point x="494" y="677"/>
			<point x="296" y="677" type="curve" smooth="yes"/>
			<point x="171" y="677" type="line"/>
			<point x="171" y="665" type="line"/>
			<point x="290" y="665" type="line" smooth="yes"/>
			<point x="478" y="665"/>
			<point x="576" y="550"/>
			<point x="576" y="338" type="curve" smooth="yes"/>
			<point x="576" y="140"/>
			<point x="479" y="12"/>
			<point x="275" y="12" type="curve" smooth="yes"/>
			<point x="171" y="12" type="line"/>
		</contour>
		<contour>
			<point x="55" y="667" type="line"/>
			<point x="164" y="660" type="line"/>
			<point x="171" y="660" type="line"/>
			<point x="171" y="677" type="line"/>
			<point x="55" y="677" type="line"/>
		</contour>
	</outline>
	<anchor name="aboveUC" x="311" y="682"/>
	<anchor name="belowLC" x="313" y="-22"/>
</glyph>
<glyph name="E" format="2">
	<unicode hex="0045"/>
	<advance width="565"/>
	<outline>
		<contour>
			<point x="55" y="0" type="line"/>
			<point x="171" y="0" type="line"/>
			<point x="171" y="17" type="line"/>
			<point x="164" y="17" type="line"/>
			<point x="55" y="10" type="line"/>
		</contour>
		<contour>
			<point x="157" y="216"/>
			<point x="156" y="107"/>
			<point x="154" y="0" type="curve"/>
			<point x="188" y="0" type="line"/>
			<point x="186" y="107"/>
			<point x="185" y="216"/>
			<point x="185" y="340" type="curve" smooth="yes"/>
			<point x="185" y="347" type="line" smooth="yes"/>
			<point x="185" y="464"/>
			<point x="186" y="572"/>
			<point x="188" y="677" type="curve"/>
			<point x="154" y="677" type="line"/>
			<point x="156" y="572"/>
			<point x="157" y="464"/>
			<point x="157" y="347" type="curve" smooth="yes"/>
			<point x="157" y="340" type="line" smooth="yes"/>
		</contour>
		<contour>
			<point x="171" y="0" type="line"/>
			<point x="513" y="0" type="line"/>
			<point x="523" y="153" type="line"/>
			<point x="511" y="153" type="line"/>
			<point x="487" y="7" type="line"/>
			<point x="499" y="12" type="line"/>
			<point x="171" y="12" type="line"/>
		</contour>
		<contour>
			<point x="171" y="336" type="line"/>
			<point x="379" y="336" type="line"/>
			<point x="379" y="348" type="line"/>
			<point x="171" y="348" type="line"/>
		</contour>
		<contour>
			<point x="380" y="234" type="line"/>
			<point x="390" y="234" type="line"/>
			<point x="390" y="450" type="line"/>
			<point x="380" y="450" type="line"/>
			<point x="368" y="346" type="line"/>
			<point x="368" y="338" type="line"/>
		</contour>
		<contour>
			<point x="55" y="667" type="line"/>
			<point x="164" y="660" type="line"/>
			<point x="171" y="660" type="line"/>
			<point x="171" y="677" type="line"/>
			<point x="55" y="677" type="line"/>
		</contour>
		<contour>
			<point x="498" y="524" type="line"/>
			<point x="509" y="524" type="line"/>
			<point x="500" y="677" type="line"/>
			<point x="171" y="677" type="line"/>
			<point x="171" y="665" type="line"/>
			<point x="485" y="665" type="line"/>
			<point x="474" y="671" type="line"/>
		</contour>
	</outline>
	<anchor name="aboveUC" x="306" y="682"/>
	<anchor name="belowLC" x="329" y="-22"/>
	<anchor name="ogonek" x="451" y="0"/>
</glyph>
<glyph name="F" format="2">
	<unicode hex="0046"/>
	<advance width="544"/>
	<outline>
		<contour>
			<point x="55" y="0" type="line"/>
			<point x="297" y="0" type="line"/>
			<point x="297" y="20" type="line"/>
			<point x="178" y="27" type="line"/>
			<point x="164" y="27" type="line"/>
			<point x="55" y="20" type="line"/>
		</contour>
		<contour>
			<point x="157" y="206"/>
			<point x="157" y="102"/>
			<point x="155" y="0" type="curve"/>
			<point x="187" y="0" type="line"/>
			<point x="185" y="102"/>
			<point x="185" y="206"/>
			<point x="185" y="340" type="curve" smooth="yes"/>
			<point x="185" y="347" type="line" smooth="yes"/>
			<point x="185" y="471"/>
			<point x="185" y="575"/>
			<point x="187" y="677" type="curve"/>
			<point x="155" y="677" type="line"/>
			<point x="157" y="575"/>
			<point x="157" y="471"/>
			<point x="157" y="367" type="curve" smooth="yes"/>
			<point x="157" y="310" type="line" smooth="yes"/>
		</contour>
		<contour>
			<point x="171" y="331" type="line"/>
			<point x="379" y="331" type="line"/>
			<point x="379" y="353" type="line"/>
			<point x="171" y="353" type="line"/>
		</contour>
		<contour>
			<point x="380" y="234" type="line"/>
			<point x="398" y="234" type="line"/>
			<point x="398" y="450" type="line"/>
			<point x="380" y="450" type="line"/>
			<point x="370" y="352" type="line"/>
			<point x="370" y="332" type="line"/>
		</contour>
		<contour>
			<point x="55" y="657" type="line"/>
			<point x="164" y="650" type="line"/>
			<point x="171" y="650" type="line"/>
			<point x="171" y="677" type="line"/>
			<point x="55" y="677" type="line"/>
		</contour>
		<contour>
			<point x="489" y="524" type="line"/>
			<point x="511" y="524" type="line"/>
			<point x="502" y="677" type="line"/>
			<point x="171" y="677" type="line"/>
			<point x="171" y="655" type="line"/>
			<point x="491" y="655" type="line"/>
			<point x="473" y="670" type="line"/>
		</contour>
	</outline>
	<anchor name="aboveUC" x="312" y="682"/>
	<anchor name="belowLC" x="172" y="-22"/>
</glyph>
<glyph name="G" format="2">
	<unicode hex="0047"/>
	<advance width="636"/>
	<outline>
		<contour>
			<point x="555" y="100" type="line"/>
			<point x="555" y="174"/>
			<point x="555" y="248"/>
			<point x="557" y="321" type="curve"/>
			<point x="528" y="321" type="line"/>
			<point x="530" y="248"/>
			<point x="530" y="174"/>
			<point x="530" y="100" type="curve" smooth="yes"/>
			<point x="530" y="36" type="line"/>
			<point x="544" y="55" type="line"/>
			<point x="493" y="19"/>
			<point x="429" y="1"/>
			<point x="358" y="1" type="curve" smooth="yes"/>
			<point x="200" y="1"/>
			<point x="84" y="130"/>
			<point x="84" y="337" type="curve" smooth="yes"/>
			<point x="84" y="542"/>
			<point x="193" y="674"/>
			<point x="363" y="674" type="curve" smooth="yes"/>
			<point x="436" y="674"/>
			<point x="486" y="656"/>
			<point x="538" y="620" type="curve"/>
			<point x="524" y="639" type="line"/>
			<point x="542" y="492" type="line"/>
			<point x="554" y="492" type="line"/>
			<point x="549" y="631" type="line"/>
			<point x="497" y="666"/>
			<point x="443" y="688"/>
			<point x="360" y="688" type="curve" smooth="yes"/>
			<point x="181" y="688"/>
			<point x="56" y="548"/>
			<point x="56" y="338" type="curve" smooth="yes"/>
			<point x="56" y="129"/>
			<point x="175" y="-13"/>
			<point x="359" y="-13" type="curve" smooth="yes"/>
			<point x="434" y="-13"/>
			<point x="492" y="2"/>
			<point x="555" y="43" type="curve"/>
		</contour>
		<contour>
			<point x="416" y="311" type="line"/>
			<point x="536" y="305" type="line"/>
			<point x="548" y="305" type="line"/>
			<point x="628" y="311" type="line"/>
			<point x="628" y="321" type="line"/>
			<point x="416" y="321" type="line"/>
		</contour>
	</outline>
	<anchor name="aboveUC" x="388" y="682"/>
	<anchor name="belowLC" x="396" y="-22"/>
</glyph>
<glyph name="H" format="2">
	<unicode hex="0048"/>
	<advance width="746"/>
	<outline>
		<contour>
			<point x="55" y="0" type="line"/>
			<point x="288" y="0" type="line"/>
			<point x="288" y="10" type="line"/>
			<point x="178" y="17" type="line"/>
			<point x="164" y="17" type="line"/>
			<point x="55" y="10" type="line"/>
		</contour>
		<contour>
			<point x="157" y="184"/>
			<point x="157" y="102"/>
			<point x="155" y="0" type="curve"/>
			<point x="187" y="0" type="line"/>
			<point x="185" y="102"/>
			<point x="185" y="184"/>
			<point x="185" y="359" type="curve" smooth="yes"/>
			<point x="185" y="367" type="line" smooth="yes"/>
			<point x="185" y="471"/>
			<point x="185" y="575"/>
			<point x="187" y="677" type="curve"/>
			<point x="155" y="677" type="line"/>
			<point x="157" y="575"/>
			<point x="157" y="471"/>
			<point x="157" y="367" type="curve" smooth="yes"/>
			<point x="157" y="359" type="line" smooth="yes"/>
		</contour>
		<contour>
			<point x="171" y="355" type="line"/>
			<point x="576" y="355" type="line"/>
			<point x="576" y="367" type="line"/>
			<point x="171" y="367" type="line"/>
		</contour>
		<contour>
			<point x="459" y="0" type="line"/>
			<point x="692" y="0" type="line"/>
			<point x="692" y="10" type="line"/>
			<point x="583" y="17" type="line"/>
			<point x="570" y="17" type="line"/>
			<point x="459" y="10" type="line"/>
		</contour>
		<contour>
			<point x="561" y="184"/>
			<point x="561" y="102"/>
			<point x="559" y="0" type="curve"/>
			<point x="591" y="0" type="line"/>
			<point x="589" y="102"/>
			<point x="589" y="184"/>
			<point x="589" y="359" type="curve" smooth="yes"/>
			<point x="589" y="367" type="line" smooth="yes"/>
			<point x="589" y="471"/>
			<point x="589" y="575"/>
			<point x="591" y="677" type="curve"/>
			<point x="559" y="677" type="line"/>
			<point x="561" y="575"/>
			<point x="561" y="471"/>
			<point x="561" y="367" type="curve" smooth="yes"/>
			<point x="561" y="359" type="line" smooth="yes"/>
		</contour>
		<contour>
			<point x="55" y="667" type="line"/>
			<point x="164" y="660" type="line"/>
			<point x="178" y="660" type="line"/>
			<point x="288" y="667" type="line"/>
			<point x="288" y="677" type="line"/>
			<point x="55" y="677" type="line"/>
		</contour>
		<contour>
			<point x="459" y="667" type="line"/>
			<point x="570" y="660" type="line"/>
			<point x="583" y="660" type="line"/>
			<point x="692" y="667" type="line"/>
			<point x="692" y="677" type="line"/>
			<point x="459" y="677" type="line"/>
		</contour>
	</outline>
	<anchor name="aboveUC" x="373" y="682"/>
	<anchor name="belowLC" x="373" y="-22"/>
</glyph>
<glyph name="I" format="2">
	<unicode hex="0049"/>
	<advance width="319"/>
	<outline>
		<contour>
			<point x="52" y="0" type="line"/>
			<point x="267" y="0" type="line"/>
			<point x="267" y="10" type="line"/>
			<point x="166" y="16" type="line"/>
			<point x="152" y="16" type="line"/>
			<point x="52" y="10" type="line"/>
		</contour>
		<contour>
			<point x="146" y="359" type="line" smooth="yes"/>
			<point x="146" y="184"/>
			<point x="146" y="102"/>
			<point x="144" y="0" type="curve"/>
			<point x="174" y="0" type="line"/>
			<point x="172" y="102"/>
			<point x="172" y="184"/>
			<point x="172" y="359" type="curve" smooth="yes"/>
			<point x="172" y="367" type="line" smooth="yes"/>
			<point x="172" y="471"/>
			<point x="172" y="575"/>
			<point x="174" y="677" type="curve"/>
			<point x="144" y="677" type="line"/>
			<point x="146" y="575"/>
			<point x="146" y="471"/>
			<point x="146" y="367" type="curve" smooth="yes"/>
		</contour>
		<contour>
			<point x="52" y="667" type="line"/>
			<point x="152" y="661" type="line"/>
			<point x="166" y="661" type="line"/>
			<point x="267" y="667" type="line"/>
			<point x="267" y="677" type="line"/>
			<point x="52" y="677" type="line"/>
		</contour>
	</outline>
	<anchor name="aboveUC" x="182" y="682"/>
	<anchor name="belowLC" x="182" y="-22"/>
	<anchor name="ogonek" x="220" y="0"/>
</glyph>
<glyph name="J" format="2">
	<unicode hex="004A"/>
	<advance width="331"/>
	<outline>
		<contour>
			<point x="-41" y="-124" type="curve"/>
			<point x="-34" y="-141"/>
			<point x="-8" y="-148"/>
			<point x="15" y="-148" type="curve" smooth="yes"/>
			<point x="48" y="-148"/>
			<point x="89" y="-130"/>
			<point x="119" y="-98" type="curve" smooth="yes"/>
			<point x="167" y="-47"/>
			<point x="184" y="3"/>
			<point x="184" y="167" type="curve" smooth="yes"/>
			<point x="184" y="362" type="line" smooth="yes"/>
			<point x="184" y="469"/>
			<point x="184" y="574"/>
			<point x="186" y="677" type="curve"/>
			<point x="156" y="677" type="line"/>
			<point x="161" y="154"/>
			<point x="158" y="124"/>
			<point x="158" y="95" type="curve" smooth="yes"/>
			<point x="158" y="-60"/>
			<point x="93" y="-113"/>
			<point x="38" y="-134" type="curve"/>
			<point x="40" y="-137" type="line"/>
			<point x="50" y="-136" type="line"/>
			<point x="52" y="-136" type="line"/>
			<point x="35" y="-124" type="line" smooth="yes"/>
			<point x="17" y="-111"/>
			<point x="1" y="-104"/>
			<point x="-13" y="-104" type="curve" smooth="yes"/>
			<point x="-32" y="-104"/>
			<point x="-40" y="-111"/>
		</contour>
		<contour>
			<point x="52" y="667" type="line"/>
			<point x="164" y="661" type="line"/>
			<point x="178" y="661" type="line"/>
			<point x="279" y="667" type="line"/>
			<point x="279" y="677" type="line"/>
			<point x="52" y="677" type="line"/>
		</contour>
	</outline>
	<anchor name="aboveUC" x="188" y="682"/>
	<anchor name="belowLC" x="80" y="-162"/>
</glyph>
<glyph name="K" format="2">
	<unicode hex="004B"/>
	<advance width="615"/>
	<outline>
		<contour>
			<point x="52" y="0" type="line"/>
			<point x="267" y="0" type="line"/>
			<point x="267" y="10" type="line"/>
			<point x="166" y="16" type="line"/>
			<point x="152" y="16" type="line"/>
			<point x="52" y="10" type="line"/>
		</contour>
		<contour>
			<point x="146" y="359" type="line" smooth="yes"/>
			<point x="146" y="184"/>
			<point x="146" y="102"/>
			<point x="144" y="0" type="curve"/>
			<point x="174" y="0" type="line"/>
			<point x="172" y="102"/>
			<point x="172" y="184"/>
			<point x="172" y="359" type="curve" smooth="yes"/>
			<point x="172" y="367" type="line" smooth="yes"/>
			<point x="172" y="471"/>
			<point x="172" y="575"/>
			<point x="174" y="677" type="curve"/>
			<point x="144" y="677" type="line"/>
			<point x="146" y="575"/>
			<point x="146" y="471"/>
			<point x="146" y="367" type="curve" smooth="yes"/>
		</contour>
		<contour>
			<point x="52" y="667" type="line"/>
			<point x="152" y="661" type="line"/>
			<point x="166" y="661" type="line"/>
			<point x="267" y="667" type="line"/>
			<point x="267" y="677" type="line"/>
			<point x="52" y="677" type="line"/>
		</contour>
		<contour>
			<point x="149" y="194" type="line"/>
			<point x="528" y="677" type="line"/>
			<point x="510" y="677" type="line"/>
			<point x="159" y="228" type="line"/>
		</contour>
		<contour>
			<point x="511" y="0" type="line"/>
			<point x="540" y="0" type="line"/>
			<point x="313" y="413" type="line"/>
			<point x="296" y="394" type="line"/>
		</contour>
		<contour>
			<point x="412" y="0" type="line"/>
			<point x="607" y="0" type="line"/>
			<point x="607" y="10" type="line"/>
			<point x="522" y="16" type="line"/>
			<point x="508" y="16" type="line"/>
			<point x="412" y="10" type="line"/>
		</contour>
		<contour>
			<point x="400" y="667" type="line"/>
			<point x="500" y="661" type="line"/>
			<point x="514" y="661" type="line"/>
			<point x="595" y="667" type="line"/>
			<point x="595" y="677" type="line"/>
			<point x="400" y="677" type="line"/>
		</contour>
	</outline>
	<anchor name="aboveUC" x="354" y="682"/>
	<anchor name="belowLC" x="372" y="-22"/>
</glyph>
<glyph name="L" format="2">
	<unicode hex="004C"/>
	<advance width="520"/>
	<outline>
		<contour>
			<point x="52" y="0" type="line"/>
			<point x="158" y="0" type="line"/>
			<point x="158" y="16" type="line"/>
			<point x="152" y="16" type="line"/>
			<point x="52" y="10" type="line"/>
		</contour>
		<contour>
			<point x="146" y="359" type="line" smooth="yes"/>
			<point x="146" y="184"/>
			<point x="146" y="102"/>
			<point x="144" y="0" type="curve"/>
			<point x="174" y="0" type="line"/>
			<point x="172" y="102"/>
			<point x="172" y="184"/>
			<point x="172" y="359" type="curve" smooth="yes"/>
			<point x="172" y="367" type="line" smooth="yes"/>
			<point x="172" y="471"/>
			<point x="172" y="575"/>
			<point x="174" y="677" type="curve"/>
			<point x="144" y="677" type="line"/>
			<point x="146" y="575"/>
			<point x="146" y="471"/>
			<point x="146" y="367" type="curve" smooth="yes"/>
		</contour>
		<contour>
			<point x="52" y="667" type="line"/>
			<point x="152" y="661" type="line"/>
			<point x="158" y="661" type="line"/>
			<point x="158" y="677" type="line"/>
			<point x="52" y="677" type="line"/>
		</contour>
		<contour>
			<point x="159" y="0" type="line"/>
			<point x="481" y="0" type="line"/>
			<point x="488" y="160" type="line"/>
			<point x="476" y="160" type="line"/>
			<point x="457" y="7" type="line"/>
			<point x="469" y="14" type="line"/>
			<point x="159" y="14" type="line"/>
		</contour>
		<contour>
			<point x="264" y="677" type="line"/>
			<point x="158" y="677" type="line"/>
			<point x="158" y="661" type="line"/>
			<point x="164" y="661" type="line"/>
			<point x="264" y="667" type="line"/>
		</contour>
	</outline>
	<anchor name="aboveUC" x="182" y="682"/>
	<anchor name="belowLC" x="327" y="-22"/>
</glyph>
<glyph name="M" format="2">
	<unicode hex="004D"/>
	<advance width="843"/>
	<outline>
		<contour>
			<point x="43" y="0" type="line"/>
			<point x="248" y="0" type="line"/>
			<point x="248" y="20" type="line"/>
			<point x="148" y="27" type="line"/>
			<point x="134" y="27" type="line"/>
			<point x="43" y="20" type="line"/>
		</contour>
		<contour>
			<point x="34" y="657" type="line"/>
			<point x="144" y="650" type="line"/>
			<point x="148" y="650" type="line"/>
			<point x="148" y="677" type="line"/>
			<point x="34" y="677" type="line"/>
		</contour>
		<contour>
			<point x="130" y="0" type="line"/>
			<point x="152" y="0" type="line"/>
			<point x="152" y="380" type="line"/>
			<point x="148" y="677" type="line"/>
			<point x="130" y="677" type="line"/>
		</contour>
		<contour>
			<point x="401" y="0" type="line"/>
			<point x="413" y="0" type="line"/>
			<point x="679" y="677" type="line"/>
			<point x="654" y="677" type="line"/>
			<point x="404" y="40" type="line"/>
			<point x="413" y="40" type="line"/>
			<point x="161" y="677" type="line"/>
			<point x="130" y="677" type="line"/>
		</contour>
		<contour>
			<point x="556" y="0" type="line"/>
			<point x="789" y="0" type="line"/>
			<point x="789" y="20" type="line"/>
			<point x="679" y="27" type="line"/>
			<point x="666" y="27" type="line"/>
			<point x="556" y="20" type="line"/>
		</contour>
		<contour>
			<point x="656" y="0" type="curve"/>
			<point x="688" y="0" type="line"/>
			<point x="686" y="102"/>
			<point x="686" y="206"/>
			<point x="686" y="310" type="curve" smooth="yes"/>
			<point x="686" y="367" type="line" smooth="yes"/>
			<point x="686" y="471"/>
			<point x="686" y="575"/>
			<point x="688" y="677" type="curve"/>
			<point x="661" y="677" type="line"/>
			<point x="658" y="300" type="line" smooth="yes"/>
			<point x="657" y="206"/>
			<point x="658" y="102"/>
		</contour>
		<contour>
			<point x="672" y="650" type="line"/>
			<point x="679" y="650" type="line"/>
			<point x="789" y="657" type="line"/>
			<point x="789" y="677" type="line"/>
			<point x="672" y="677" type="line"/>
		</contour>
	</outline>
	<anchor name="aboveUC" x="414" y="682"/>
	<anchor name="belowLC" x="406" y="-22"/>
</glyph>
<glyph name="N" format="2">
	<unicode hex="004E"/>
	<advance width="713"/>
	<outline>
		<contour>
			<point x="559" y="-7" type="line"/>
			<point x="574" y="-7" type="line"/>
			<point x="574" y="677" type="line"/>
			<point x="558" y="677" type="line"/>
			<point x="558" y="43" type="line"/>
			<point x="161" y="677" type="line"/>
			<point x="52" y="677" type="line"/>
			<point x="52" y="667" type="line"/>
			<point x="141" y="661" type="line"/>
		</contour>
		<contour>
			<point x="265" y="10" type="line"/>
			<point x="157" y="16" type="line"/>
			<point x="153" y="16" type="line"/>
			<point x="52" y="10" type="line"/>
			<point x="52" y="0" type="line"/>
			<point x="265" y="0" type="line"/>
		</contour>
		<contour>
			<point x="163" y="668" type="line"/>
			<point x="147" y="668" type="line"/>
			<point x="147" y="0" type="line"/>
			<point x="163" y="0" type="line"/>
		</contour>
		<contour>
			<point x="456" y="667" type="line"/>
			<point x="564" y="661" type="line"/>
			<point x="568" y="661" type="line"/>
			<point x="661" y="667" type="line"/>
			<point x="661" y="677" type="line"/>
			<point x="456" y="677" type="line"/>
		</contour>
	</outline>
	<anchor name="aboveUC" x="362" y="682"/>
	<anchor name="belowLC" x="374" y="-22"/>
</glyph>
<glyph name="O" format="2">
	<unicode hex="004F"/>
	<advance width="664"/>
	<outline>
		<contour>
			<point x="332" y="-13" type="curve" smooth="yes"/>
			<point x="487" y="-13"/>
			<point x="604" y="116"/>
			<point x="604" y="338" type="curve" smooth="yes"/>
			<point x="604" y="560"/>
			<point x="487" y="690"/>
			<point x="332" y="690" type="curve" smooth="yes"/>
			<point x="177" y="690"/>
			<point x="59" y="560"/>
			<point x="59" y="338" type="curve" smooth="yes"/>
			<point x="59" y="116"/>
			<point x="177" y="-13"/>
		</contour>
		<contour>
			<point x="332" y="-1" type="curve" smooth="yes"/>
			<point x="181" y="-1"/>
			<point x="89" y="153"/>
			<point x="89" y="338" type="curve" smooth="yes"/>
			<point x="89" y="523"/>
			<point x="181" y="678"/>
			<point x="332" y="678" type="curve" smooth="yes"/>
			<point x="482" y="678"/>
			<point x="574" y="523"/>
			<point x="574" y="338" type="curve" smooth="yes"/>
			<point x="574" y="153"/>
			<point x="482" y="-1"/>
		</contour>
	</outline>
	<anchor name="aboveUC" x="332" y="682"/>
	<anchor name="belowLC" x="337" y="-22"/>
	<anchor name="ogonek" x="416" y="0"/>
	<anchor name="hornLC" x="485" y="680"/>
</glyph>
<glyph name="P" format="2">
	<unicode hex="0050"/>
	<advance width="530"/>
	<outline>
		<contour>
			<point x="146" y="359" type="line" smooth="yes"/>
			<point x="146" y="184"/>
			<point x="146" y="102"/>
			<point x="144" y="0" type="curve"/>
			<point x="174" y="0" type="line"/>
			<point x="172" y="102"/>
			<point x="172" y="184"/>
			<point x="172" y="359" type="curve" smooth="yes"/>
			<point x="172" y="367" type="line" smooth="yes"/>
			<point x="172" y="471"/>
			<point x="172" y="575"/>
			<point x="174" y="677" type="curve"/>
			<point x="144" y="677" type="line"/>
			<point x="146" y="575"/>
			<point x="146" y="471"/>
			<point x="146" y="367" type="curve" smooth="yes"/>
		</contour>
		<contour>
			<point x="52" y="667" type="line"/>
			<point x="152" y="661" type="line"/>
			<point x="158" y="661" type="line"/>
			<point x="158" y="677" type="line"/>
			<point x="52" y="677" type="line"/>
		</contour>
		<contour>
			<point x="52" y="0" type="line"/>
			<point x="279" y="0" type="line"/>
			<point x="279" y="10" type="line"/>
			<point x="166" y="16" type="line"/>
			<point x="152" y="16" type="line"/>
			<point x="52" y="10" type="line"/>
		</contour>
		<contour>
			<point x="159" y="292" type="line"/>
			<point x="240" y="292" type="line" smooth="yes"/>
			<point x="404" y="292"/>
			<point x="486" y="374"/>
			<point x="486" y="490" type="curve" smooth="yes"/>
			<point x="486" y="605"/>
			<point x="419" y="677"/>
			<point x="279" y="677" type="curve" smooth="yes"/>
			<point x="159" y="677" type="line"/>
			<point x="159" y="663" type="line"/>
			<point x="275" y="663" type="line" smooth="yes"/>
			<point x="403" y="663"/>
			<point x="460" y="604"/>
			<point x="460" y="490" type="curve" smooth="yes"/>
			<point x="460" y="382"/>
			<point x="394" y="306"/>
			<point x="229" y="306" type="curve" smooth="yes"/>
			<point x="159" y="306" type="line"/>
		</contour>
	</outline>
	<anchor name="aboveUC" x="288" y="682"/>
	<anchor name="belowLC" x="181" y="-22"/>
</glyph>
<glyph name="Q" format="2">
	<unicode hex="0051"/>
	<advance width="664"/>
	<outline>
		<contour>
			<point x="462" y="-198" type="curve" smooth="yes"/>
			<point x="494" y="-198"/>
			<point x="532" y="-190"/>
			<point x="562" y="-170" type="curve"/>
			<point x="556" y="-156" type="line"/>
			<point x="528" y="-169"/>
			<point x="501" y="-176"/>
			<point x="464" y="-176" type="curve" smooth="yes"/>
			<point x="387" y="-176"/>
			<point x="337" y="-106"/>
			<point x="342" y="0" type="curve"/>
			<point x="315" y="0" type="line"/>
			<point x="315" y="-12" type="line" smooth="yes"/>
			<point x="315" y="-103"/>
			<point x="352" y="-198"/>
		</contour>
		<component base="O" xScale="0.94"/>
	</outline>
	<anchor name="aboveUC" x="332" y="682"/>
</glyph>
<glyph name="R" format="2">
	<unicode hex="0052"/>
	<advance width="594"/>
	<outline>
		<contour>
			<point x="146" y="359" type="line" smooth="yes"/>
			<point x="146" y="184"/>
			<point x="146" y="102"/>
			<point x="144" y="0" type="curve"/>
			<point x="174" y="0" type="line"/>
			<point x="172" y="102"/>
			<point x="172" y="184"/>
			<point x="172" y="359" type="curve" smooth="yes"/>
			<point x="172" y="367" type="line" smooth="yes"/>
			<point x="172" y="471"/>
			<point x="172" y="575"/>
			<point x="174" y="677" type="curve"/>
			<point x="144" y="677" type="line"/>
			<point x="146" y="575"/>
			<point x="146" y="471"/>
			<point x="146" y="367" type="curve" smooth="yes"/>
		</contour>
		<contour>
			<point x="52" y="667" type="line"/>
			<point x="152" y="661" type="line"/>
			<point x="158" y="661" type="line"/>
			<point x="158" y="677" type="line"/>
			<point x="52" y="677" type="line"/>
		</contour>
		<contour>
			<point x="52" y="0" type="line"/>
			<point x="267" y="0" type="line"/>
			<point x="267" y="10" type="line"/>
			<point x="166" y="16" type="line"/>
			<point x="152" y="16" type="line"/>
			<point x="52" y="10" type="line"/>
		</contour>
		<contour>
			<point x="492" y="-2" type="curve" smooth="yes"/>
			<point x="517" y="-2"/>
			<point x="548" y="-1"/>
			<point x="578" y="0" type="curve"/>
			<point x="578" y="10" type="line"/>
			<point x="474" y="16" type="line"/>
			<point x="488" y="9" type="line"/>
			<point x="414" y="223" type="line" smooth="yes"/>
			<point x="392" y="285"/>
			<point x="374" y="318"/>
			<point x="303" y="328" type="curve"/>
			<point x="307" y="318" type="line"/>
			<point x="414" y="327"/>
			<point x="492" y="399"/>
			<point x="492" y="500" type="curve" smooth="yes"/>
			<point x="492" y="615"/>
			<point x="419" y="677"/>
			<point x="287" y="677" type="curve" smooth="yes"/>
			<point x="159" y="677" type="line"/>
			<point x="159" y="663" type="line"/>
			<point x="285" y="663" type="line" smooth="yes"/>
			<point x="409" y="663"/>
			<point x="466" y="598"/>
			<point x="466" y="502" type="curve" smooth="yes"/>
			<point x="466" y="407"/>
			<point x="392" y="332"/>
			<point x="295" y="332" type="curve" smooth="yes"/>
			<point x="159" y="332" type="line"/>
			<point x="159" y="318" type="line"/>
			<point x="266" y="318" type="line" smooth="yes"/>
			<point x="352" y="318"/>
			<point x="370" y="285"/>
			<point x="394" y="211" type="curve" smooth="yes"/>
			<point x="459" y="16" type="line" smooth="yes"/>
			<point x="463" y="2"/>
			<point x="472" y="-2"/>
		</contour>
	</outline>
	<anchor name="aboveUC" x="307" y="682"/>
	<anchor name="belowLC" x="354" y="-22"/>
</glyph>
<glyph name="S" format="2">
	<unicode hex="0053"/>
	<advance width="484"/>
	<outline>
		<contour>
			<point x="88" y="14"/>
			<point x="154" y="-13"/>
			<point x="228" y="-13" type="curve" smooth="yes"/>
			<point x="346" y="-13"/>
			<point x="432" y="53"/>
			<point x="432" y="164" type="curve" smooth="yes"/>
			<point x="432" y="253"/>
			<point x="400" y="302"/>
			<point x="259" y="362" type="curve" smooth="yes"/>
			<point x="222" y="378" type="line" smooth="yes"/>
			<point x="148" y="410"/>
			<point x="101" y="453"/>
			<point x="101" y="531" type="curve" smooth="yes"/>
			<point x="101" y="624"/>
			<point x="165" y="668"/>
			<point x="256" y="668" type="curve" smooth="yes"/>
			<point x="309" y="668"/>
			<point x="347" y="656"/>
			<point x="387" y="626" type="curve"/>
			<point x="387" y="638" type="line"/>
			<point x="373" y="647" type="line"/>
			<point x="383" y="522" type="line"/>
			<point x="403" y="522" type="line"/>
			<point x="406" y="642" type="line"/>
			<point x="362" y="673"/>
			<point x="323" y="690"/>
			<point x="255" y="690" type="curve" smooth="yes"/>
			<point x="163" y="690"/>
			<point x="75" y="643"/>
			<point x="75" y="528" type="curve" smooth="yes"/>
			<point x="75" y="446"/>
			<point x="120" y="389"/>
			<point x="221" y="346" type="curve" smooth="yes"/>
			<point x="256" y="331" type="line" smooth="yes"/>
			<point x="376" y="279"/>
			<point x="407" y="237"/>
			<point x="407" y="163" type="curve" smooth="yes"/>
			<point x="407" y="58"/>
			<point x="332" y="9"/>
			<point x="228" y="9" type="curve" smooth="yes"/>
			<point x="164" y="9"/>
			<point x="122" y="20"/>
			<point x="69" y="63" type="curve"/>
			<point x="69" y="47" type="line"/>
			<point x="86" y="36" type="line"/>
			<point x="74" y="167" type="line"/>
			<point x="56" y="167" type="line"/>
			<point x="52" y="41" type="line"/>
		</contour>
	</outline>
	<anchor name="aboveUC" x="259" y="682"/>
	<anchor name="belowLC" x="239" y="-22"/>
	<anchor name="baseLC" x="239" y="0"/>
</glyph>
<glyph name="T" format="2">
	<unicode hex="0054"/>
	<advance width="562"/>
	<outline>
		<contour>
			<point x="268" y="359" type="line" smooth="yes"/>
			<point x="268" y="184"/>
			<point x="268" y="102"/>
			<point x="266" y="0" type="curve"/>
			<point x="296" y="0" type="line"/>
			<point x="294" y="102"/>
			<point x="294" y="184"/>
			<point x="294" y="359" type="curve" smooth="yes"/>
			<point x="294" y="367" type="line" smooth="yes"/>
			<point x="294" y="471"/>
			<point x="294" y="575"/>
			<point x="296" y="677" type="curve"/>
			<point x="266" y="677" type="line"/>
			<point x="268" y="575"/>
			<point x="268" y="471"/>
			<point x="268" y="367" type="curve" smooth="yes"/>
		</contour>
		<contour>
			<point x="526" y="516" type="line"/>
			<point x="538" y="516" type="line"/>
			<point x="531" y="677" type="line"/>
			<point x="281" y="677" type="line"/>
			<point x="281" y="663" type="line"/>
			<point x="518" y="663" type="line"/>
			<point x="507" y="671" type="line"/>
		</contour>
		<contour>
			<point x="161" y="0" type="line"/>
			<point x="401" y="0" type="line"/>
			<point x="401" y="10" type="line"/>
			<point x="288" y="16" type="line"/>
			<point x="274" y="16" type="line"/>
			<point x="161" y="10" type="line"/>
		</contour>
		<contour>
			<point x="55" y="671" type="line"/>
			<point x="44" y="663" type="line"/>
			<point x="281" y="663" type="line"/>
			<point x="281" y="677" type="line"/>
			<point x="31" y="677" type="line"/>
			<point x="24" y="516" type="line"/>
			<point x="36" y="516" type="line"/>
		</contour>
	</outline>
	<anchor name="aboveUC" x="297" y="682"/>
	<anchor name="belowLC" x="297" y="-22"/>
	<anchor name="baseLC" x="297" y="0"/>
</glyph>
<glyph name="U" format="2">
	<unicode hex="0055"/>
	<advance width="693"/>
	<outline>
		<contour>
			<point x="139" y="61"/>
			<point x="220" y="-13"/>
			<point x="348" y="-13" type="curve" smooth="yes"/>
			<point x="496" y="-13"/>
			<point x="563" y="82"/>
			<point x="563" y="248" type="curve" smooth="yes"/>
			<point x="563" y="677" type="line"/>
			<point x="540" y="677" type="line"/>
			<point x="540" y="274" type="line" smooth="yes"/>
			<point x="540" y="87"/>
			<point x="484" y="13"/>
			<point x="348" y="13" type="curve" smooth="yes"/>
			<point x="239" y="13"/>
			<point x="167" y="80"/>
			<point x="167" y="256" type="curve" smooth="yes"/>
			<point x="167" y="361" type="line" smooth="yes"/>
			<point x="167" y="469"/>
			<point x="167" y="573"/>
			<point x="169" y="677" type="curve"/>
			<point x="137" y="677" type="line"/>
			<point x="139" y="573"/>
			<point x="139" y="467"/>
			<point x="139" y="361" type="curve" smooth="yes"/>
			<point x="139" y="249" type="line" smooth="yes"/>
		</contour>
		<contour>
			<point x="47" y="657" type="line"/>
			<point x="148" y="650" type="line"/>
			<point x="161" y="650" type="line"/>
			<point x="271" y="657" type="line"/>
			<point x="271" y="677" type="line"/>
			<point x="47" y="677" type="line"/>
		</contour>
		<contour>
			<point x="426" y="657" type="line"/>
			<point x="545" y="650" type="line"/>
			<point x="558" y="650" type="line"/>
			<point x="648" y="657" type="line"/>
			<point x="648" y="677" type="line"/>
			<point x="426" y="677" type="line"/>
		</contour>
	</outline>
	<anchor name="aboveUC" x="349" y="682"/>
	<anchor name="belowLC" x="355" y="-22"/>
	<anchor name="ogonek" x="431" y="0"/>
	<anchor name="hornLC" x="555" y="720"/>
</glyph>
<glyph name="V" format="2">
	<unicode hex="0056"/>
	<advance width="609"/>
	<outline>
		<contour>
			<point x="297" y="-7" type="line"/>
			<point x="316" y="-7" type="line"/>
			<point x="524" y="677" type="line"/>
			<point x="499" y="677" type="line"/>
			<point x="300" y="7" type="line"/>
			<point x="318" y="7" type="line"/>
			<point x="110" y="677" type="line"/>
			<point x="81" y="677" type="line"/>
		</contour>
		<contour>
			<point x="0" y="657" type="line"/>
			<point x="99" y="650" type="line"/>
			<point x="108" y="650" type="line"/>
			<point x="224" y="657" type="line"/>
			<point x="224" y="677" type="line"/>
			<point x="0" y="677" type="line"/>
		</contour>
		<contour>
			<point x="385" y="657" type="line"/>
			<point x="496" y="650" type="line"/>
			<point x="509" y="650" type="line"/>
			<point x="600" y="657" type="line"/>
			<point x="600" y="677" type="line"/>
			<point x="385" y="677" type="line"/>
		</contour>
	</outline>
	<anchor name="aboveUC" x="303" y="682"/>
	<anchor name="belowLC" x="310" y="-22"/>
</glyph>
<glyph name="W" format="2">
	<unicode hex="0057"/>
	<advance width="906"/>
	<outline>
		<contour>
			<point x="546" y="677" type="line"/>
			<point x="360" y="677" type="line"/>
			<point x="360" y="667" type="line"/>
			<point x="452" y="661" type="line"/>
			<point x="462" y="661" type="line"/>
			<point x="546" y="667" type="line"/>
		</contour>
		<contour>
			<point x="214" y="677" type="line"/>
			<point x="12" y="677" type="line"/>
			<point x="12" y="667" type="line"/>
			<point x="101" y="661" type="line"/>
			<point x="114" y="661" type="line"/>
			<point x="214" y="667" type="line"/>
		</contour>
		<contour>
			<point x="467" y="677" type="line"/>
			<point x="451" y="677" type="line"/>
			<point x="280" y="49" type="line"/>
			<point x="114" y="677" type="line"/>
			<point x="87" y="677" type="line"/>
			<point x="270" y="-7" type="line"/>
			<point x="279" y="-7" type="line"/>
		</contour>
		<contour>
			<point x="894" y="677" type="line"/>
			<point x="703" y="677" type="line"/>
			<point x="703" y="667" type="line"/>
			<point x="800" y="661" type="line"/>
			<point x="810" y="661" type="line"/>
			<point x="894" y="667" type="line"/>
		</contour>
		<contour>
			<point x="819" y="677" type="line"/>
			<point x="802" y="677" type="line"/>
			<point x="636" y="49" type="line"/>
			<point x="466" y="677" type="line"/>
			<point x="445" y="654" type="line"/>
			<point x="626" y="-7" type="line"/>
			<point x="635" y="-7" type="line"/>
		</contour>
	</outline>
	<anchor name="aboveUC" x="485" y="682"/>
	<anchor name="belowLC" x="501" y="-22"/>
</glyph>
<glyph name="X" format="2">
	<unicode hex="0058"/>
	<advance width="588"/>
	<outline>
		<contour>
			<point x="233" y="677" type="line"/>
			<point x="31" y="677" type="line"/>
			<point x="31" y="667" type="line"/>
			<point x="120" y="661" type="line"/>
			<point x="133" y="661" type="line"/>
			<point x="233" y="667" type="line"/>
		</contour>
		<contour>
			<point x="557" y="677" type="line"/>
			<point x="366" y="677" type="line"/>
			<point x="366" y="667" type="line"/>
			<point x="463" y="661" type="line"/>
			<point x="473" y="661" type="line"/>
			<point x="557" y="667" type="line"/>
		</contour>
		<contour>
			<point x="302" y="343" type="line"/>
			<point x="486" y="677" type="line"/>
			<point x="469" y="677" type="line"/>
			<point x="295" y="358" type="line"/>
		</contour>
		<contour>
			<point x="370" y="0" type="line"/>
			<point x="572" y="0" type="line"/>
			<point x="572" y="10" type="line"/>
			<point x="483" y="16" type="line"/>
			<point x="470" y="16" type="line"/>
			<point x="370" y="10" type="line"/>
		</contour>
		<contour>
			<point x="102" y="677" type="line"/>
			<point x="473" y="0" type="line"/>
			<point x="501" y="0" type="line"/>
			<point x="130" y="677" type="line"/>
		</contour>
		<contour>
			<point x="16" y="0" type="line"/>
			<point x="207" y="0" type="line"/>
			<point x="207" y="10" type="line"/>
			<point x="110" y="16" type="line"/>
			<point x="100" y="16" type="line"/>
			<point x="16" y="10" type="line"/>
		</contour>
		<contour>
			<point x="288" y="359" type="line"/>
			<point x="87" y="0" type="line"/>
			<point x="104" y="0" type="line"/>
			<point x="295" y="344" type="line"/>
		</contour>
	</outline>
	<anchor name="aboveUC" x="323" y="682"/>
	<anchor name="belowLC" x="327" y="-22"/>
</glyph>
<glyph name="Y" format="2">
	<unicode hex="0059"/>
	<advance width="597"/>
	<outline>
		<contour>
			<point x="173" y="0" type="line"/>
			<point x="425" y="0" type="line"/>
			<point x="425" y="20" type="line"/>
			<point x="306" y="27" type="line"/>
			<point x="292" y="27" type="line"/>
			<point x="173" y="20" type="line"/>
		</contour>
		<contour>
			<point x="283" y="0" type="curve"/>
			<point x="315" y="0" type="line"/>
			<point x="313" y="97"/>
			<point x="313" y="115"/>
			<point x="313" y="289" type="curve"/>
			<point x="285" y="289" type="line"/>
			<point x="285" y="115"/>
			<point x="285" y="97"/>
		</contour>
		<contour>
			<point x="295" y="250" type="line"/>
			<point x="304" y="253" type="line"/>
			<point x="504" y="677" type="line"/>
			<point x="479" y="677" type="line"/>
			<point x="294" y="279" type="line"/>
			<point x="308" y="283" type="line"/>
			<point x="123" y="677" type="line"/>
			<point x="93" y="677" type="line"/>
		</contour>
		<contour>
			<point x="29" y="657" type="line"/>
			<point x="116" y="650" type="line"/>
			<point x="129" y="650" type="line"/>
			<point x="239" y="657" type="line"/>
			<point x="239" y="677" type="line"/>
			<point x="29" y="677" type="line"/>
		</contour>
		<contour>
			<point x="363" y="657" type="line"/>
			<point x="472" y="650" type="line"/>
			<point x="485" y="650" type="line"/>
			<point x="572" y="657" type="line"/>
			<point x="572" y="677" type="line"/>
			<point x="363" y="677" type="line"/>
		</contour>
	</outline>
	<anchor name="aboveUC" x="305" y="682"/>
	<anchor name="belowLC" x="298" y="-22"/>
</glyph>
<glyph name="Z" format="2">
	<unicode hex="005A"/>
	<advance width="504"/>
	<outline>
		<contour>
			<point x="28" y="0" type="line"/>
			<point x="469" y="0" type="line"/>
			<point x="476" y="152" type="line"/>
			<point x="464" y="152" type="line"/>
			<point x="445" y="7" type="line"/>
			<point x="457" y="14" type="line"/>
			<point x="44" y="14" type="line"/>
			<point x="51" y="6" type="line"/>
			<point x="460" y="665" type="line"/>
			<point x="460" y="677" type="line"/>
			<point x="47" y="677" type="line"/>
			<point x="40" y="525" type="line"/>
			<point x="52" y="525" type="line"/>
			<point x="71" y="670" type="line"/>
			<point x="59" y="663" type="line"/>
			<point x="444" y="663" type="line"/>
			<point x="437" y="671" type="line"/>
			<point x="28" y="12" type="line"/>
		</contour>
	</outline>
	<anchor name="aboveUC" x="287" y="682"/>
	<anchor name="belowLC" x="286" y="-22"/>
</glyph>
<glyph name="bracketleft" format="2">
	<unicode hex="005B"/>
	<advance width="267"/>
	<outline>
		<contour>
			<point x="96" y="-160" type="curve"/>
			<point x="122" y="-160" type="line"/>
			<point x="120" y="-72"/>
			<point x="120" y="56"/>
			<point x="120" y="164" type="curve" smooth="yes"/>
			<point x="120" y="400" type="line" smooth="yes"/>
			<point x="120" y="504"/>
			<point x="120" y="630"/>
			<point x="122" y="716" type="curve"/>
			<point x="96" y="716" type="line"/>
			<point x="98" y="630"/>
			<point x="98" y="504"/>
			<point x="98" y="400" type="curve" smooth="yes"/>
			<point x="98" y="164" type="line" smooth="yes"/>
			<point x="98" y="56"/>
			<point x="98" y="-72"/>
		</contour>
		<contour>
			<point x="104" y="-160" type="line"/>
			<point x="227" y="-160" type="line"/>
			<point x="227" y="-150" type="line"/>
			<point x="114" y="-142" type="line"/>
			<point x="104" y="-142" type="line"/>
		</contour>
		<contour>
			<point x="104" y="698" type="line"/>
			<point x="114" y="698" type="line"/>
			<point x="227" y="706" type="line"/>
			<point x="227" y="716" type="line"/>
			<point x="104" y="716" type="line"/>
		</contour>
	</outline>
</glyph>
<glyph name="a" format="2">
	<unicode hex="0061"/>
	<advance width="456"/>
	<outline>
		<contour>
			<point x="316" y="68" type="line" smooth="yes"/>
			<point x="316" y="11"/>
			<point x="338" y="-13"/>
			<point x="377" y="-13" type="curve" smooth="yes"/>
			<point x="397" y="-13"/>
			<point x="421" y="-1"/>
			<point x="432" y="16" type="curve"/>
			<point x="426" y="22" type="line"/>
			<point x="411" y="7"/>
			<point x="396" y="2"/>
			<point x="381" y="2" type="curve" smooth="yes"/>
			<point x="355" y="2"/>
			<point x="340" y="21"/>
			<point x="340" y="70" type="curve" smooth="yes"/>
			<point x="340" y="320" type="line" smooth="yes"/>
			<point x="340" y="416"/>
			<point x="301" y="460"/>
			<point x="212" y="460" type="curve" smooth="yes"/>
			<point x="149" y="460"/>
			<point x="82" y="428"/>
			<point x="64" y="350" type="curve"/>
			<point x="65" y="338"/>
			<point x="72" y="332"/>
			<point x="82" y="332" type="curve" smooth="yes"/>
			<point x="94" y="332"/>
			<point x="100" y="337"/>
			<point x="103" y="349" type="curve" smooth="yes"/>
			<point x="120" y="425" type="line"/>
			<point x="108" y="411" type="line"/>
			<point x="140" y="435"/>
			<point x="170" y="447"/>
			<point x="208" y="447" type="curve" smooth="yes"/>
			<point x="281" y="447"/>
			<point x="316" y="409"/>
			<point x="316" y="304" type="curve" smooth="yes"/>
		</contour>
		<contour>
			<point x="324" y="270" type="line"/>
			<point x="281" y="262"/>
			<point x="231" y="249"/>
			<point x="184" y="233" type="curve" smooth="yes"/>
			<point x="95" y="203"/>
			<point x="52" y="161"/>
			<point x="52" y="95" type="curve" smooth="yes"/>
			<point x="52" y="26"/>
			<point x="95" y="-12"/>
			<point x="160" y="-12" type="curve" smooth="yes"/>
			<point x="223" y="-12"/>
			<point x="259" y="14"/>
			<point x="316" y="80" type="curve"/>
			<point x="324" y="80" type="line"/>
			<point x="324" y="104" type="line"/>
			<point x="260" y="30"/>
			<point x="219" y="4"/>
			<point x="168" y="4" type="curve" smooth="yes"/>
			<point x="112" y="4"/>
			<point x="76" y="38"/>
			<point x="76" y="98" type="curve" smooth="yes"/>
			<point x="76" y="152"/>
			<point x="111" y="193"/>
			<point x="185" y="219" type="curve" smooth="yes"/>
			<point x="233" y="236"/>
			<point x="285" y="251"/>
			<point x="324" y="260" type="curve"/>
		</contour>
	</outline>
	<anchor name="aboveLC" x="235" y="500"/>
	<anchor name="belowLC" x="242" y="-22"/>
	<anchor name="ogonek" x="434" y="0"/>
</glyph>
<glyph name="b" format="2">
	<unicode hex="0062"/>
	<advance width="528"/>
	<outline>
		<contour>
			<point x="44" y="0" type="line"/>
			<point x="150" y="-4" type="line"/>
			<point x="153" y="70" type="line"/>
			<point x="153" y="365" type="line"/>
			<point x="153" y="371" type="line"/>
			<point x="153" y="607" type="line"/>
			<point x="155" y="742" type="line"/>
			<point x="140" y="750" type="line"/>
			<point x="45" y="738" type="line"/>
			<point x="45" y="728" type="line"/>
			<point x="127" y="728" type="line"/>
			<point x="127" y="191" type="line" smooth="yes"/>
			<point x="127" y="141"/>
			<point x="126" y="64"/>
			<point x="126" y="16" type="curve"/>
			<point x="44" y="10" type="line"/>
		</contour>
		<contour>
			<point x="193" y="9"/>
			<point x="250" y="-12"/>
			<point x="299" y="-12" type="curve" smooth="yes"/>
			<point x="410" y="-12"/>
			<point x="480" y="84"/>
			<point x="480" y="230" type="curve" smooth="yes"/>
			<point x="480" y="363"/>
			<point x="411" y="459"/>
			<point x="304" y="459" type="curve" smooth="yes"/>
			<point x="253" y="459"/>
			<point x="193" y="436"/>
			<point x="147" y="372" type="curve"/>
			<point x="140" y="372" type="line"/>
			<point x="148" y="358" type="line"/>
			<point x="197" y="421"/>
			<point x="245" y="445"/>
			<point x="298" y="445" type="curve" smooth="yes"/>
			<point x="387" y="445"/>
			<point x="451" y="372"/>
			<point x="451" y="230" type="curve" smooth="yes"/>
			<point x="451" y="69"/>
			<point x="379" y="1"/>
			<point x="298" y="1" type="curve" smooth="yes"/>
			<point x="242" y="1"/>
			<point x="199" y="25"/>
			<point x="148" y="80" type="curve"/>
			<point x="141" y="69" type="line"/>
			<point x="147" y="69" type="line"/>
		</contour>
	</outline>
	<anchor name="aboveLC" x="136" y="694"/>
	<anchor name="belowLC" x="300" y="-21"/>
</glyph>
<glyph name="c" format="2">
	<unicode hex="0063"/>
	<advance width="444"/>
	<outline>
		<contour>
			<point x="48" y="224" type="curve"/>
			<point x="48" y="58"/>
			<point x="144" y="-12"/>
			<point x="248" y="-12" type="curve" smooth="yes"/>
			<point x="308" y="-12"/>
			<point x="364" y="16"/>
			<point x="400" y="64" type="curve"/>
			<point x="393" y="71" type="line"/>
			<point x="356" y="30"/>
			<point x="308" y="8"/>
			<point x="248" y="8" type="curve" smooth="yes"/>
			<point x="162" y="8"/>
			<point x="74" y="72"/>
			<point x="74" y="236" type="curve" smooth="yes"/>
			<point x="74" y="358"/>
			<point x="154" y="447"/>
			<point x="253" y="447" type="curve" smooth="yes"/>
			<point x="302" y="447"/>
			<point x="328" y="433"/>
			<point x="360" y="403" type="curve"/>
			<point x="339" y="435" type="line"/>
			<point x="357" y="349" type="line" smooth="yes"/>
			<point x="362" y="337"/>
			<point x="367" y="332"/>
			<point x="379" y="332" type="curve" smooth="yes"/>
			<point x="389" y="332"/>
			<point x="396" y="338"/>
			<point x="397" y="350" type="curve"/>
			<point x="382" y="422"/>
			<point x="328" y="460"/>
			<point x="255" y="460" type="curve" smooth="yes"/>
			<point x="148" y="460"/>
			<point x="48" y="376"/>
		</contour>
	</outline>
	<anchor name="aboveLC" x="282" y="500"/>
	<anchor name="belowLC" x="276" y="-22"/>
	<anchor name="baseLC" x="276" y="0"/>
</glyph>
<glyph name="d" format="2">
	<unicode hex="0064"/>
	<advance width="523"/>
	<outline>
		<contour>
			<point x="47" y="84"/>
			<point x="121" y="-12"/>
			<point x="227" y="-12" type="curve" smooth="yes"/>
			<point x="282" y="-12"/>
			<point x="336" y="10"/>
			<point x="380" y="73" type="curve"/>
			<point x="388" y="73" type="line"/>
			<point x="379" y="99" type="line"/>
			<point x="333" y="36"/>
			<point x="288" y="11"/>
			<point x="229" y="11" type="curve" smooth="yes"/>
			<point x="144" y="11"/>
			<point x="76" y="83"/>
			<point x="76" y="216" type="curve" smooth="yes"/>
			<point x="76" y="366"/>
			<point x="149" y="435"/>
			<point x="240" y="435" type="curve" smooth="yes"/>
			<point x="296" y="435"/>
			<point x="338" y="408"/>
			<point x="379" y="354" type="curve"/>
			<point x="387" y="376" type="line"/>
			<point x="381" y="376" type="line"/>
			<point x="339" y="434"/>
			<point x="286" y="459"/>
			<point x="240" y="459" type="curve" smooth="yes"/>
			<point x="131" y="459"/>
			<point x="47" y="368"/>
			<point x="47" y="216" type="curve" smooth="yes"/>
		</contour>
		<contour>
			<point x="372" y="-6" type="line"/>
			<point x="497" y="0" type="line"/>
			<point x="497" y="19" type="line"/>
			<point x="400" y="24" type="line"/>
			<point x="400" y="572" type="line"/>
			<point x="402" y="703" type="line"/>
			<point x="389" y="711" type="line"/>
			<point x="292" y="699" type="line"/>
			<point x="292" y="680" type="line"/>
			<point x="375" y="680" type="line"/>
			<point x="375" y="374" type="line"/>
			<point x="375" y="370" type="line"/>
			<point x="375" y="83" type="line"/>
		</contour>
	</outline>
	<anchor name="aboveLC" x="367" y="694"/>
	<anchor name="belowLC" x="258" y="-21"/>
</glyph>
<glyph name="e" format="2">
	<unicode hex="0065"/>
	<advance width="447"/>
	<outline>
		<contour>
			<point x="47" y="59"/>
			<point x="148" y="-12"/>
			<point x="248" y="-12" type="curve" smooth="yes"/>
			<point x="308" y="-12"/>
			<point x="365" y="15"/>
			<point x="401" y="63" type="curve"/>
			<point x="394" y="69" type="line"/>
			<point x="357" y="28"/>
			<point x="308" y="7"/>
			<point x="248" y="7" type="curve" smooth="yes"/>
			<point x="162" y="7"/>
			<point x="76" y="72"/>
			<point x="76" y="236" type="curve" smooth="yes"/>
			<point x="76" y="347"/>
			<point x="144" y="449"/>
			<point x="237" y="449" type="curve" smooth="yes"/>
			<point x="330" y="449"/>
			<point x="378" y="367"/>
			<point x="378" y="282" type="curve" smooth="yes"/>
			<point x="378" y="254"/>
			<point x="372" y="245"/>
			<point x="346" y="246" type="curve" smooth="yes"/>
			<point x="64" y="246" type="line"/>
			<point x="64" y="236" type="line"/>
			<point x="399" y="236" type="line"/>
			<point x="403" y="249"/>
			<point x="405" y="266"/>
			<point x="405" y="289" type="curve" smooth="yes"/>
			<point x="405" y="379"/>
			<point x="347" y="459"/>
			<point x="237" y="459" type="curve" smooth="yes"/>
			<point x="140" y="459"/>
			<point x="47" y="370"/>
			<point x="47" y="225" type="curve" smooth="yes"/>
		</contour>
	</outline>
	<anchor name="aboveLC" x="247" y="475"/>
	<anchor name="belowLC" x="251" y="-21"/>
	<anchor name="ogonek" x="321" y="0"/>
</glyph>
<glyph name="f" format="2">
	<unicode hex="0066"/>
	<advance width="316"/>
	<outline>
		<contour>
			<point x="40" y="0" type="line"/>
			<point x="236" y="0" type="line"/>
			<point x="236" y="10" type="line"/>
			<point x="136" y="16" type="line"/>
			<point x="132" y="16" type="line"/>
			<point x="40" y="10" type="line"/>
		</contour>
		<contour>
			<point x="36" y="444" type="line"/>
			<point x="36" y="434" type="line"/>
			<point x="122" y="434" type="line"/>
			<point x="122" y="208" type="line" smooth="yes"/>
			<point x="122" y="146"/>
			<point x="121" y="45"/>
			<point x="119" y="0" type="curve"/>
			<point x="149" y="0" type="line"/>
			<point x="147" y="45"/>
			<point x="146" y="146"/>
			<point x="146" y="208" type="curve" smooth="yes"/>
			<point x="146" y="440" type="line" smooth="yes"/>
			<point x="146" y="604"/>
			<point x="169" y="672"/>
			<point x="209" y="712" type="curve" smooth="yes"/>
			<point x="229" y="732"/>
			<point x="254" y="749"/>
			<point x="279" y="749" type="curve" smooth="yes"/>
			<point x="292" y="749"/>
			<point x="305" y="742"/>
			<point x="313" y="739" type="curve"/>
			<point x="298" y="753" type="line"/>
			<point x="255" y="750" type="line"/>
			<point x="278" y="734" type="line" smooth="yes"/>
			<point x="295" y="722"/>
			<point x="312" y="714"/>
			<point x="326" y="714" type="curve" smooth="yes"/>
			<point x="345" y="714"/>
			<point x="353" y="721"/>
			<point x="354" y="734" type="curve"/>
			<point x="347" y="751"/>
			<point x="321" y="758"/>
			<point x="294" y="758" type="curve" smooth="yes"/>
			<point x="253" y="758"/>
			<point x="223" y="744"/>
			<point x="198" y="720" type="curve" smooth="yes"/>
			<point x="149" y="673"/>
			<point x="122" y="600"/>
			<point x="122" y="440" type="curve" smooth="yes"/>
			<point x="122" y="438" type="line"/>
			<point x="140" y="452" type="line"/>
		</contour>
		<contour>
			<point x="134" y="434" type="line"/>
			<point x="280" y="434" type="line"/>
			<point x="280" y="448" type="line"/>
			<point x="134" y="448" type="line"/>
		</contour>
	</outline>
	<anchor name="aboveLC" x="297" y="740"/>
	<anchor name="belowLC" x="153" y="-22"/>
</glyph>
<glyph name="g" format="2">
	<unicode hex="0067"/>
	<advance width="464"/>
	<outline>
		<contour>
			<point x="46" y="-217"/>
			<point x="120" y="-273"/>
			<point x="240" y="-273" type="curve" smooth="yes"/>
			<point x="376" y="-273"/>
			<point x="441" y="-196"/>
			<point x="441" y="-118" type="curve" smooth="yes"/>
			<point x="441" y="-35"/>
			<point x="392" y="6"/>
			<point x="304" y="6" type="curve" smooth="yes"/>
			<point x="184" y="6" type="line" smooth="yes"/>
			<point x="122" y="6"/>
			<point x="97" y="30"/>
			<point x="97" y="63" type="curve" smooth="yes"/>
			<point x="97" y="96"/>
			<point x="112" y="122"/>
			<point x="149" y="162" type="curve"/>
			<point x="140" y="170" type="line"/>
			<point x="140" y="164" type="line"/>
			<point x="99" y="129"/>
			<point x="74" y="102"/>
			<point x="74" y="61" type="curve" smooth="yes"/>
			<point x="74" y="24"/>
			<point x="95" y="-2"/>
			<point x="128" y="-9" type="curve"/>
			<point x="128" y="-11" type="line"/>
			<point x="150" y="-17"/>
			<point x="173" y="-19"/>
			<point x="195" y="-19" type="curve" smooth="yes"/>
			<point x="298" y="-19" type="line" smooth="yes"/>
			<point x="391" y="-19"/>
			<point x="419" y="-63"/>
			<point x="419" y="-117" type="curve" smooth="yes"/>
			<point x="419" y="-197"/>
			<point x="359" y="-260"/>
			<point x="242" y="-260" type="curve" smooth="yes"/>
			<point x="134" y="-260"/>
			<point x="73" y="-213"/>
			<point x="73" y="-136" type="curve" smooth="yes"/>
			<point x="73" y="-71"/>
			<point x="95" y="-35"/>
			<point x="145" y="-5" type="curve"/>
			<point x="143" y="1" type="line"/>
			<point x="92" y="-22"/>
			<point x="46" y="-71"/>
			<point x="46" y="-138" type="curve" smooth="yes"/>
		</contour>
		<contour>
			<point x="66" y="201"/>
			<point x="129" y="134"/>
			<point x="222" y="134" type="curve" smooth="yes"/>
			<point x="312" y="134"/>
			<point x="377" y="199"/>
			<point x="377" y="296" type="curve" smooth="yes"/>
			<point x="377" y="393"/>
			<point x="314" y="459"/>
			<point x="222" y="459" type="curve" smooth="yes"/>
			<point x="129" y="459"/>
			<point x="66" y="393"/>
			<point x="66" y="296" type="curve" smooth="yes"/>
		</contour>
		<contour>
			<point x="349" y="206"/>
			<point x="296" y="144"/>
			<point x="222" y="144" type="curve" smooth="yes"/>
			<point x="147" y="144"/>
			<point x="94" y="206"/>
			<point x="94" y="296" type="curve" smooth="yes"/>
			<point x="94" y="387"/>
			<point x="147" y="449"/>
			<point x="222" y="449" type="curve" smooth="yes"/>
			<point x="296" y="449"/>
			<point x="349" y="387"/>
			<point x="349" y="296" type="curve" smooth="yes"/>
		</contour>
		<contour>
			<point x="329" y="409" type="line"/>
			<point x="442" y="413" type="line"/>
			<point x="442" y="443" type="line"/>
			<point x="429" y="452" type="line"/>
			<point x="329" y="416" type="line"/>
			<point x="326" y="416" type="line"/>
		</contour>
	</outline>
	<anchor name="aboveLC" x="217" y="475"/>
	<anchor name="belowLC" x="242" y="-228"/>
</glyph>
<glyph name="h" format="2">
	<unicode hex="0068"/>
	<advance width="554"/>
	<outline>
		<contour>
			<point x="44" y="0" type="line"/>
			<point x="228" y="0" type="line"/>
			<point x="228" y="19" type="line"/>
			<point x="143" y="25" type="line"/>
			<point x="135" y="25" type="line"/>
			<point x="44" y="19" type="line"/>
		</contour>
		<contour>
			<point x="127" y="141"/>
			<point x="126" y="43"/>
			<point x="125" y="0" type="curve"/>
			<point x="156" y="0" type="line"/>
			<point x="154" y="43"/>
			<point x="153" y="141"/>
			<point x="153" y="200" type="curve" smooth="yes"/>
			<point x="153" y="332" type="line"/>
			<point x="153" y="341" type="line"/>
			<point x="153" y="568" type="line"/>
			<point x="155" y="703" type="line"/>
			<point x="140" y="711" type="line"/>
			<point x="45" y="699" type="line"/>
			<point x="45" y="680" type="line"/>
			<point x="127" y="680" type="line"/>
			<point x="127" y="200" type="line" smooth="yes"/>
		</contour>
		<contour>
			<point x="336" y="0" type="line"/>
			<point x="521" y="0" type="line"/>
			<point x="521" y="19" type="line"/>
			<point x="435" y="25" type="line"/>
			<point x="427" y="25" type="line"/>
			<point x="336" y="19" type="line"/>
		</contour>
		<contour>
			<point x="420" y="139"/>
			<point x="419" y="43"/>
			<point x="417" y="0" type="curve"/>
			<point x="449" y="0" type="line"/>
			<point x="447" y="43"/>
			<point x="446" y="139"/>
			<point x="446" y="200" type="curve" smooth="yes"/>
			<point x="446" y="298" type="line" smooth="yes"/>
			<point x="446" y="417"/>
			<point x="403" y="459"/>
			<point x="335" y="459" type="curve" smooth="yes"/>
			<point x="279" y="459"/>
			<point x="215" y="430"/>
			<point x="145" y="343" type="curve"/>
			<point x="140" y="343" type="line"/>
			<point x="147" y="320" type="line"/>
			<point x="223" y="413"/>
			<point x="289" y="432"/>
			<point x="329" y="432" type="curve" smooth="yes"/>
			<point x="382" y="432"/>
			<point x="420" y="396"/>
			<point x="420" y="299" type="curve" smooth="yes"/>
			<point x="420" y="200" type="line" smooth="yes"/>
		</contour>
	</outline>
	<anchor name="aboveLC" x="124" y="694"/>
	<anchor name="belowLC" x="289" y="-21"/>
</glyph>
<glyph name="i" format="2">
	<unicode hex="0069"/>
	<advance width="276"/>
	<outline>
		<contour>
			<point x="44" y="0" type="line"/>
			<point x="228" y="0" type="line"/>
			<point x="228" y="10" type="line"/>
			<point x="143" y="16" type="line"/>
			<point x="135" y="16" type="line"/>
			<point x="44" y="10" type="line"/>
		</contour>
		<contour>
			<point x="127" y="141"/>
			<point x="126" y="73"/>
			<point x="124" y="0" type="curve"/>
			<point x="156" y="0" type="line"/>
			<point x="154" y="73"/>
			<point x="153" y="141"/>
			<point x="153" y="200" type="curve" smooth="yes"/>
			<point x="153" y="338" type="line"/>
			<point x="155" y="448" type="line"/>
			<point x="146" y="454" type="line"/>
			<point x="39" y="443" type="line"/>
			<point x="39" y="435" type="line"/>
			<point x="124" y="435" type="line"/>
			<point x="125" y="372"/>
			<point x="127" y="309"/>
			<point x="127" y="246" type="curve" smooth="yes"/>
			<point x="127" y="200" type="line" smooth="yes"/>
		</contour>
		<contour>
			<point x="134" y="619" type="curve" smooth="yes"/>
			<point x="148" y="619"/>
			<point x="160" y="629"/>
			<point x="160" y="646" type="curve" smooth="yes"/>
			<point x="160" y="663"/>
			<point x="148" y="674"/>
			<point x="134" y="674" type="curve" smooth="yes"/>
			<point x="120" y="674"/>
			<point x="108" y="663"/>
			<point x="108" y="646" type="curve" smooth="yes"/>
			<point x="108" y="629"/>
			<point x="120" y="619"/>
		</contour>
	</outline>
	<anchor name="aboveLC" x="136" y="653"/>
	<anchor name="belowLC" x="144" y="-21"/>
	<anchor name="ogonek" x="173" y="0"/>
</glyph>
<glyph name="j" format="2">
	<unicode hex="006A"/>
	<advance width="254"/>
	<outline>
		<contour>
			<point x="-46" y="-233"/>
			<point x="-30" y="-242"/>
			<point x="5" y="-242" type="curve" smooth="yes"/>
			<point x="39" y="-242"/>
			<point x="66" y="-231"/>
			<point x="91" y="-204" type="curve" smooth="yes"/>
			<point x="145" y="-148"/>
			<point x="148" y="-75"/>
			<point x="148" y="110" type="curve" smooth="yes"/>
			<point x="148" y="338" type="line"/>
			<point x="150" y="448" type="line"/>
			<point x="141" y="454" type="line"/>
			<point x="35" y="443" type="line"/>
			<point x="35" y="424" type="line"/>
			<point x="120" y="424" type="line"/>
			<point x="122" y="375"/>
			<point x="123" y="313"/>
			<point x="123" y="246" type="curve" smooth="yes"/>
			<point x="123" y="71" type="line" smooth="yes"/>
			<point x="123" y="-42"/>
			<point x="117" y="-134"/>
			<point x="87" y="-178" type="curve" smooth="yes"/>
			<point x="68" y="-205"/>
			<point x="27" y="-228"/>
			<point x="5" y="-228" type="curve"/>
			<point x="5" y="-237" type="line"/>
			<point x="51" y="-227" type="line"/>
			<point x="26" y="-216" type="line" smooth="yes"/>
			<point x="6" y="-206"/>
			<point x="-7" y="-203"/>
			<point x="-19" y="-203" type="curve" smooth="yes"/>
			<point x="-37" y="-203"/>
			<point x="-47" y="-211"/>
			<point x="-50" y="-224" type="curve"/>
		</contour>
		<contour>
			<point x="129" y="613" type="curve" smooth="yes"/>
			<point x="145" y="613"/>
			<point x="158" y="624"/>
			<point x="158" y="643" type="curve" smooth="yes"/>
			<point x="158" y="662"/>
			<point x="145" y="674"/>
			<point x="129" y="674" type="curve" smooth="yes"/>
			<point x="114" y="674"/>
			<point x="100" y="662"/>
			<point x="100" y="643" type="curve" smooth="yes"/>
			<point x="100" y="624"/>
			<point x="114" y="613"/>
		</contour>
	</outline>
	<anchor name="aboveLC" x="129" y="653"/>
	<anchor name="belowLC" x="31" y="-236"/>
</glyph>
<glyph name="k" format="2">
	<unicode hex="006B"/>
	<advance width="494"/>
	<outline>
		<contour>
			<point x="44" y="0" type="line"/>
			<point x="228" y="0" type="line"/>
			<point x="228" y="19" type="line"/>
			<point x="143" y="25" type="line"/>
			<point x="135" y="25" type="line"/>
			<point x="44" y="19" type="line"/>
		</contour>
		<contour>
			<point x="127" y="141"/>
			<point x="126" y="43"/>
			<point x="125" y="0" type="curve"/>
			<point x="156" y="0" type="line"/>
			<point x="154" y="43"/>
			<point x="153" y="141"/>
			<point x="153" y="200" type="curve" smooth="yes"/>
			<point x="153" y="568" type="line"/>
			<point x="155" y="703" type="line"/>
			<point x="142" y="711" type="line"/>
			<point x="45" y="699" type="line"/>
			<point x="45" y="680" type="line"/>
			<point x="127" y="680" type="line"/>
			<point x="127" y="200" type="line" smooth="yes"/>
		</contour>
		<contour>
			<point x="141" y="167" type="line"/>
			<point x="410" y="446" type="line"/>
			<point x="381" y="446" type="line"/>
			<point x="141" y="194" type="line"/>
		</contour>
		<contour>
			<point x="397" y="0" type="line"/>
			<point x="490" y="0" type="line"/>
			<point x="490" y="19" type="line"/>
			<point x="413" y="24" type="line"/>
			<point x="253" y="293" type="line"/>
			<point x="234" y="273" type="line"/>
		</contour>
		<contour>
			<point x="271" y="428" type="line"/>
			<point x="363" y="422" type="line"/>
			<point x="371" y="422" type="line"/>
			<point x="471" y="428" type="line"/>
			<point x="471" y="446" type="line"/>
			<point x="271" y="446" type="line"/>
		</contour>
	</outline>
	<anchor name="aboveLC" x="136" y="694"/>
	<anchor name="belowLC" x="302" y="-21"/>
</glyph>
<glyph name="l" format="2">
	<unicode hex="006C"/>
	<advance width="276"/>
	<outline>
		<contour>
			<point x="35" y="0" type="line"/>
			<point x="242" y="0" type="line"/>
			<point x="242" y="19" type="line"/>
			<point x="143" y="25" type="line"/>
			<point x="135" y="25" type="line"/>
			<point x="35" y="19" type="line"/>
		</contour>
		<contour>
			<point x="127" y="141"/>
			<point x="126" y="43"/>
			<point x="125" y="0" type="curve"/>
			<point x="156" y="0" type="line"/>
			<point x="154" y="43"/>
			<point x="153" y="141"/>
			<point x="153" y="200" type="curve" smooth="yes"/>
			<point x="153" y="568" type="line"/>
			<point x="155" y="703" type="line"/>
			<point x="142" y="711" type="line"/>
			<point x="45" y="699" type="line"/>
			<point x="45" y="680" type="line"/>
			<point x="127" y="680" type="line"/>
			<point x="127" y="200" type="line" smooth="yes"/>
		</contour>
	</outline>
	<anchor name="aboveLC" x="129" y="694"/>
	<anchor name="belowLC" x="141" y="-21"/>
</glyph>
<glyph name="m" format="2">
	<unicode hex="006D"/>
	<advance width="809"/>
	<outline>
		<contour>
			<point x="39" y="0" type="line"/>
			<point x="224" y="0" type="line"/>
			<point x="224" y="10" type="line"/>
			<point x="138" y="16" type="line"/>
			<point x="130" y="16" type="line"/>
			<point x="39" y="10" type="line"/>
		</contour>
		<contour>
			<point x="120" y="0" type="curve"/>
			<point x="152" y="0" type="line"/>
			<point x="150" y="43"/>
			<point x="149" y="141"/>
			<point x="149" y="200" type="curve" smooth="yes"/>
			<point x="149" y="346" type="line"/>
			<point x="148" y="448" type="line"/>
			<point x="138" y="454" type="line"/>
			<point x="35" y="443" type="line"/>
			<point x="35" y="435" type="line"/>
			<point x="120" y="435" type="line"/>
			<point x="122" y="386"/>
			<point x="123" y="313"/>
			<point x="123" y="246" type="curve" smooth="yes"/>
			<point x="123" y="200" type="line" smooth="yes"/>
			<point x="123" y="141"/>
			<point x="122" y="43"/>
		</contour>
		<contour>
			<point x="316" y="0" type="line"/>
			<point x="501" y="0" type="line"/>
			<point x="501" y="10" type="line"/>
			<point x="415" y="16" type="line"/>
			<point x="407" y="16" type="line"/>
			<point x="316" y="10" type="line"/>
		</contour>
		<contour>
			<point x="397" y="0" type="curve"/>
			<point x="429" y="0" type="line"/>
			<point x="427" y="43"/>
			<point x="426" y="139"/>
			<point x="426" y="200" type="curve" smooth="yes"/>
			<point x="426" y="298" type="line" smooth="yes"/>
			<point x="426" y="417"/>
			<point x="384" y="459"/>
			<point x="315" y="459" type="curve" smooth="yes"/>
			<point x="260" y="459"/>
			<point x="210" y="430"/>
			<point x="142" y="344" type="curve"/>
			<point x="136" y="344" type="line"/>
			<point x="142" y="328" type="line"/>
			<point x="218" y="421"/>
			<point x="270" y="439"/>
			<point x="309" y="439" type="curve" smooth="yes"/>
			<point x="363" y="439"/>
			<point x="400" y="396"/>
			<point x="400" y="299" type="curve" smooth="yes"/>
			<point x="400" y="200" type="line" smooth="yes"/>
			<point x="400" y="139"/>
			<point x="399" y="43"/>
		</contour>
		<contour>
			<point x="590" y="0" type="line"/>
			<point x="775" y="0" type="line"/>
			<point x="775" y="10" type="line"/>
			<point x="689" y="16" type="line"/>
			<point x="681" y="16" type="line"/>
			<point x="590" y="10" type="line"/>
		</contour>
		<contour>
			<point x="671" y="0" type="curve"/>
			<point x="703" y="0" type="line"/>
			<point x="701" y="43"/>
			<point x="700" y="139"/>
			<point x="700" y="200" type="curve" smooth="yes"/>
			<point x="700" y="298" type="line" smooth="yes"/>
			<point x="700" y="417"/>
			<point x="658" y="459"/>
			<point x="589" y="459" type="curve" smooth="yes"/>
			<point x="534" y="459"/>
			<point x="489" y="431"/>
			<point x="415" y="353" type="curve"/>
			<point x="406" y="353" type="line"/>
			<point x="411" y="336" type="line"/>
			<point x="496" y="421"/>
			<point x="544" y="439"/>
			<point x="583" y="439" type="curve" smooth="yes"/>
			<point x="637" y="439"/>
			<point x="674" y="396"/>
			<point x="674" y="299" type="curve" smooth="yes"/>
			<point x="674" y="200" type="line" smooth="yes"/>
			<point x="674" y="139"/>
			<point x="673" y="43"/>
		</contour>
	</outline>
	<anchor name="aboveLC" x="404" y="475"/>
	<anchor name="belowLC" x="410" y="-21"/>
</glyph>
<glyph name="n" format="2">
	<unicode hex="006E"/>
	<advance width="550"/>
	<outline>
		<contour>
			<point x="39" y="0" type="line"/>
			<point x="224" y="0" type="line"/>
			<point x="224" y="10" type="line"/>
			<point x="138" y="16" type="line"/>
			<point x="130" y="16" type="line"/>
			<point x="39" y="10" type="line"/>
		</contour>
		<contour>
			<point x="120" y="0" type="curve"/>
			<point x="152" y="0" type="line"/>
			<point x="150" y="43"/>
			<point x="149" y="141"/>
			<point x="149" y="200" type="curve" smooth="yes"/>
			<point x="149" y="346" type="line"/>
			<point x="148" y="448" type="line"/>
			<point x="138" y="454" type="line"/>
			<point x="35" y="443" type="line"/>
			<point x="35" y="435" type="line"/>
			<point x="120" y="435" type="line"/>
			<point x="122" y="386"/>
			<point x="123" y="313"/>
			<point x="123" y="246" type="curve" smooth="yes"/>
			<point x="123" y="200" type="line" smooth="yes"/>
			<point x="123" y="141"/>
			<point x="122" y="43"/>
		</contour>
		<contour>
			<point x="331" y="0" type="line"/>
			<point x="516" y="0" type="line"/>
			<point x="516" y="10" type="line"/>
			<point x="430" y="16" type="line"/>
			<point x="422" y="16" type="line"/>
			<point x="331" y="10" type="line"/>
		</contour>
		<contour>
			<point x="412" y="0" type="curve"/>
			<point x="444" y="0" type="line"/>
			<point x="442" y="43"/>
			<point x="441" y="139"/>
			<point x="441" y="200" type="curve" smooth="yes"/>
			<point x="441" y="298" type="line" smooth="yes"/>
			<point x="441" y="423"/>
			<point x="403" y="459"/>
			<point x="330" y="459" type="curve" smooth="yes"/>
			<point x="274" y="459"/>
			<point x="210" y="429"/>
			<point x="141" y="342" type="curve"/>
			<point x="136" y="342" type="line"/>
			<point x="142" y="328" type="line"/>
			<point x="218" y="421"/>
			<point x="285" y="439"/>
			<point x="324" y="439" type="curve" smooth="yes"/>
			<point x="387" y="439"/>
			<point x="415" y="402"/>
			<point x="415" y="299" type="curve" smooth="yes"/>
			<point x="415" y="200" type="line" smooth="yes"/>
			<point x="415" y="139"/>
			<point x="414" y="43"/>
		</contour>
	</outline>
	<anchor name="aboveLC" x="272" y="475"/>
	<anchor name="belowLC" x="284" y="-21"/>
</glyph>
<glyph name="o" format="2">
	<unicode hex="006F"/>
	<advance width="488"/>
	<outline>
		<contour>
			<point x="244" y="1" type="curve" smooth="yes"/>
			<point x="143" y="1"/>
			<point x="74" y="87"/>
			<point x="74" y="220" type="curve" smooth="yes"/>
			<point x="74" y="353"/>
			<point x="143" y="447"/>
			<point x="244" y="447" type="curve" smooth="yes"/>
			<point x="345" y="447"/>
			<point x="414" y="361"/>
			<point x="414" y="228" type="curve" smooth="yes"/>
			<point x="414" y="95"/>
			<point x="345" y="1"/>
		</contour>
		<contour>
			<point x="244" y="-12" type="curve" smooth="yes"/>
			<point x="342" y="-12"/>
			<point x="440" y="65"/>
			<point x="440" y="228" type="curve" smooth="yes"/>
			<point x="440" y="390"/>
			<point x="342" y="460"/>
			<point x="244" y="460" type="curve" smooth="yes"/>
			<point x="146" y="460"/>
			<point x="48" y="383"/>
			<point x="48" y="220" type="curve" smooth="yes"/>
			<point x="48" y="58"/>
			<point x="146" y="-12"/>
		</contour>
	</outline>
	<anchor name="aboveLC" x="269" y="500"/>
	<anchor name="belowLC" x="266" y="-22"/>
	<anchor name="hornLC" x="397" y="488"/>
	<anchor name="ogonek" x="345" y="0"/>
</glyph>
<glyph name="p" format="2">
	<unicode hex="0070"/>
	<advance width="523"/>
	<outline>
		<contour>
			<point x="39" y="-255" type="line"/>
			<point x="242" y="-255" type="line"/>
			<point x="242" y="-245" type="line"/>
			<point x="138" y="-239" type="line"/>
			<point x="130" y="-239" type="line"/>
			<point x="39" y="-245" type="line"/>
		</contour>
		<contour>
			<point x="123" y="-114"/>
			<point x="122" y="-212"/>
			<point x="120" y="-255" type="curve"/>
			<point x="152" y="-255" type="line"/>
			<point x="150" y="-212"/>
			<point x="149" y="-114"/>
			<point x="149" y="-55" type="curve" smooth="yes"/>
			<point x="149" y="63" type="line"/>
			<point x="149" y="70" type="line"/>
			<point x="149" y="368" type="line"/>
			<point x="149" y="372" type="line"/>
			<point x="148" y="448" type="line"/>
			<point x="138" y="454" type="line"/>
			<point x="35" y="443" type="line"/>
			<point x="35" y="433" type="line"/>
			<point x="120" y="433" type="line"/>
			<point x="122" y="384"/>
			<point x="123" y="319"/>
			<point x="123" y="252" type="curve" smooth="yes"/>
			<point x="123" y="-55" type="line" smooth="yes"/>
		</contour>
		<contour>
			<point x="187" y="3"/>
			<point x="244" y="-12"/>
			<point x="295" y="-12" type="curve" smooth="yes"/>
			<point x="405" y="-12"/>
			<point x="476" y="82"/>
			<point x="476" y="230" type="curve" smooth="yes"/>
			<point x="476" y="364"/>
			<point x="407" y="459"/>
			<point x="299" y="459" type="curve" smooth="yes"/>
			<point x="249" y="459"/>
			<point x="188" y="435"/>
			<point x="141" y="369" type="curve"/>
			<point x="136" y="369" type="line"/>
			<point x="144" y="358" type="line"/>
			<point x="192" y="421"/>
			<point x="240" y="445"/>
			<point x="294" y="445" type="curve" smooth="yes"/>
			<point x="383" y="445"/>
			<point x="448" y="373"/>
			<point x="448" y="230" type="curve" smooth="yes"/>
			<point x="448" y="67"/>
			<point x="376" y="1"/>
			<point x="294" y="1" type="curve" smooth="yes"/>
			<point x="238" y="1"/>
			<point x="197" y="18"/>
			<point x="146" y="73" type="curve"/>
			<point x="136" y="65" type="line"/>
			<point x="140" y="65" type="line"/>
		</contour>
	</outline>
	<anchor name="aboveLC" x="279" y="475"/>
	<anchor name="belowLC" x="136" y="-236"/>
</glyph>
<glyph name="q" format="2">
	<unicode hex="0071"/>
	<advance width="498"/>
	<outline>
		<contour>
			<point x="282" y="-233" type="line"/>
			<point x="485" y="-233" type="line"/>
			<point x="485" y="-214" type="line"/>
			<point x="394" y="-208" type="line"/>
			<point x="386" y="-208" type="line"/>
			<point x="282" y="-214" type="line"/>
		</contour>
		<contour>
			<point x="47" y="82"/>
			<point x="121" y="-12"/>
			<point x="227" y="-12" type="curve" smooth="yes"/>
			<point x="282" y="-12"/>
			<point x="337" y="11"/>
			<point x="382" y="76" type="curve"/>
			<point x="388" y="76" type="line"/>
			<point x="379" y="99" type="line"/>
			<point x="333" y="36"/>
			<point x="288" y="11"/>
			<point x="229" y="11" type="curve" smooth="yes"/>
			<point x="144" y="11"/>
			<point x="76" y="81"/>
			<point x="76" y="216" type="curve" smooth="yes"/>
			<point x="76" y="366"/>
			<point x="149" y="435"/>
			<point x="240" y="435" type="curve" smooth="yes"/>
			<point x="296" y="435"/>
			<point x="338" y="408"/>
			<point x="379" y="355" type="curve"/>
			<point x="391" y="375" type="line"/>
			<point x="382" y="375" type="line"/>
			<point x="340" y="434"/>
			<point x="286" y="459"/>
			<point x="240" y="459" type="curve" smooth="yes"/>
			<point x="131" y="459"/>
			<point x="47" y="368"/>
			<point x="47" y="216" type="curve" smooth="yes"/>
		</contour>
		<contour>
			<point x="375" y="-100"/>
			<point x="374" y="-166"/>
			<point x="372" y="-233" type="curve"/>
			<point x="403" y="-233" type="line"/>
			<point x="401" y="-166"/>
			<point x="400" y="-100"/>
			<point x="400" y="-33" type="curve" smooth="yes"/>
			<point x="400" y="318" type="line"/>
			<point x="403" y="446" type="line"/>
			<point x="386" y="449" type="line"/>
			<point x="375" y="374" type="line"/>
			<point x="375" y="82" type="line"/>
			<point x="375" y="79" type="line"/>
			<point x="375" y="-33" type="line" smooth="yes"/>
		</contour>
	</outline>
	<anchor name="aboveLC" x="251" y="475"/>
	<anchor name="belowLC" x="382" y="-236"/>
</glyph>
<glyph name="r" format="2">
	<unicode hex="0072"/>
	<advance width="369"/>
	<outline>
		<contour>
			<point x="39" y="0" type="line"/>
			<point x="236" y="0" type="line"/>
			<point x="236" y="10" type="line"/>
			<point x="138" y="16" type="line"/>
			<point x="130" y="16" type="line"/>
			<point x="39" y="10" type="line"/>
		</contour>
		<contour>
			<point x="119" y="0" type="curve"/>
			<point x="151" y="0" type="line"/>
			<point x="149" y="43"/>
			<point x="148" y="141"/>
			<point x="148" y="200" type="curve" smooth="yes"/>
			<point x="148" y="322" type="line"/>
			<point x="147" y="448" type="line"/>
			<point x="137" y="454" type="line"/>
			<point x="35" y="443" type="line"/>
			<point x="35" y="433" type="line"/>
			<point x="119" y="433" type="line"/>
			<point x="121" y="384"/>
			<point x="122" y="322"/>
			<point x="122" y="255" type="curve" smooth="yes"/>
			<point x="122" y="200" type="line" smooth="yes"/>
			<point x="122" y="141"/>
			<point x="121" y="43"/>
		</contour>
		<contour>
			<point x="147" y="297" type="line"/>
			<point x="180" y="384"/>
			<point x="228" y="435"/>
			<point x="286" y="446" type="curve"/>
			<point x="270" y="448" type="line"/>
			<point x="288" y="432" type="line" smooth="yes"/>
			<point x="307" y="416"/>
			<point x="318" y="407"/>
			<point x="334" y="407" type="curve" smooth="yes"/>
			<point x="353" y="407"/>
			<point x="361" y="417"/>
			<point x="361" y="433" type="curve"/>
			<point x="356" y="446"/>
			<point x="332" y="459"/>
			<point x="301" y="459" type="curve" smooth="yes"/>
			<point x="235" y="459"/>
			<point x="172" y="400"/>
			<point x="146" y="320" type="curve"/>
			<point x="139" y="320" type="line"/>
		</contour>
	</outline>
	<anchor name="aboveLC" x="211" y="475"/>
	<anchor name="belowLC" x="132" y="-21"/>
</glyph>
<glyph name="s" format="2">
	<unicode hex="0073"/>
	<advance width="388"/>
	<outline>
		<contour>
			<point x="186" y="-12" type="curve" smooth="yes"/>
			<point x="292" y="-12"/>
			<point x="336" y="41"/>
			<point x="336" y="110" type="curve" smooth="yes"/>
			<point x="336" y="176"/>
			<point x="301" y="206"/>
			<point x="223" y="235" type="curve" smooth="yes"/>
			<point x="191" y="247" type="line" smooth="yes"/>
			<point x="130" y="270"/>
			<point x="89" y="296"/>
			<point x="89" y="348" type="curve" smooth="yes"/>
			<point x="89" y="403"/>
			<point x="124" y="447"/>
			<point x="202" y="447" type="curve" smooth="yes"/>
			<point x="252" y="447"/>
			<point x="282" y="437"/>
			<point x="318" y="415" type="curve"/>
			<point x="318" y="428" type="line"/>
			<point x="302" y="428" type="line"/>
			<point x="311" y="316" type="line"/>
			<point x="321" y="316" type="line"/>
			<point x="324" y="428" type="line"/>
			<point x="286" y="449"/>
			<point x="255" y="460"/>
			<point x="202" y="460" type="curve" smooth="yes"/>
			<point x="117" y="460"/>
			<point x="68" y="412"/>
			<point x="68" y="344" type="curve" smooth="yes"/>
			<point x="68" y="277"/>
			<point x="118" y="252"/>
			<point x="181" y="228" type="curve" smooth="yes"/>
			<point x="213" y="216" type="line" smooth="yes"/>
			<point x="290" y="187"/>
			<point x="315" y="156"/>
			<point x="315" y="106" type="curve" smooth="yes"/>
			<point x="315" y="42"/>
			<point x="274" y="1"/>
			<point x="186" y="1" type="curve" smooth="yes"/>
			<point x="138" y="1"/>
			<point x="104" y="10"/>
			<point x="62" y="34" type="curve"/>
			<point x="62" y="20" type="line"/>
			<point x="80" y="20" type="line"/>
			<point x="74" y="140" type="line"/>
			<point x="64" y="140" type="line"/>
			<point x="57" y="20" type="line"/>
			<point x="100" y="-3"/>
			<point x="136" y="-12"/>
		</contour>
	</outline>
	<anchor name="aboveLC" x="204" y="468"/>
	<anchor name="belowLC" x="188" y="-20"/>
	<anchor name="baseLC" x="187" y="0"/>
</glyph>
<glyph name="t" format="2">
	<unicode hex="0074"/>
	<advance width="302"/>
	<outline>
		<contour>
			<point x="113" y="27"/>
			<point x="135" y="-12"/>
			<point x="201" y="-12" type="curve" smooth="yes"/>
			<point x="233" y="-12"/>
			<point x="258" y="-4"/>
			<point x="279" y="14" type="curve"/>
			<point x="274" y="20" type="line"/>
			<point x="256" y="9"/>
			<point x="234" y="2"/>
			<point x="203" y="2" type="curve" smooth="yes"/>
			<point x="160" y="2"/>
			<point x="140" y="30"/>
			<point x="140" y="95" type="curve" smooth="yes"/>
			<point x="140" y="437" type="line"/>
			<point x="140" y="439" type="line"/>
			<point x="145" y="588" type="line"/>
			<point x="135" y="588" type="line"/>
			<point x="114" y="442" type="line"/>
			<point x="121" y="447" type="line"/>
			<point x="14" y="443" type="line"/>
			<point x="14" y="433" type="line"/>
			<point x="114" y="433" type="line"/>
			<point x="114" y="165" type="line" smooth="yes"/>
			<point x="114" y="140"/>
			<point x="113" y="124"/>
			<point x="113" y="98" type="curve" smooth="yes"/>
		</contour>
		<contour>
			<point x="126" y="433" type="line"/>
			<point x="271" y="433" type="line"/>
			<point x="271" y="446" type="line"/>
			<point x="126" y="446" type="line"/>
		</contour>
	</outline>
	<anchor name="aboveLC" x="129" y="598"/>
	<anchor name="belowLC" x="179" y="-21"/>
	<anchor name="baseLC" x="179" y="0"/>
</glyph>
<glyph name="u" format="2">
	<unicode hex="0075"/>
	<advance width="550"/>
	<outline>
		<contour>
			<point x="112" y="31"/>
			<point x="155" y="-12"/>
			<point x="244" y="-12" type="curve" smooth="yes"/>
			<point x="315" y="-12"/>
			<point x="368" y="32"/>
			<point x="410" y="89" type="curve"/>
			<point x="417" y="89" type="line"/>
			<point x="412" y="106" type="line"/>
			<point x="366" y="42"/>
			<point x="309" y="6"/>
			<point x="248" y="6" type="curve" smooth="yes"/>
			<point x="180" y="6"/>
			<point x="140" y="48"/>
			<point x="140" y="154" type="curve" smooth="yes"/>
			<point x="140" y="308" type="line"/>
			<point x="146" y="439" type="line"/>
			<point x="138" y="450" type="line"/>
			<point x="35" y="445" type="line"/>
			<point x="35" y="436" type="line"/>
			<point x="129" y="429" type="line"/>
			<point x="118" y="436" type="line"/>
			<point x="114" y="166" type="line" smooth="yes"/>
		</contour>
		<contour>
			<point x="403" y="-6" type="line"/>
			<point x="503" y="0" type="line"/>
			<point x="503" y="10" type="line"/>
			<point x="432" y="15" type="line"/>
			<point x="432" y="308" type="line"/>
			<point x="436" y="439" type="line"/>
			<point x="428" y="450" type="line"/>
			<point x="328" y="445" type="line"/>
			<point x="328" y="435" type="line"/>
			<point x="406" y="430" type="line"/>
			<point x="406" y="93" type="line"/>
		</contour>
	</outline>
	<anchor name="aboveLC" x="248" y="475"/>
	<anchor name="belowLC" x="282" y="-21"/>
	<anchor name="hornLC" x="424" y="442"/>
	<anchor name="ogonek" x="462" y="0"/>
</glyph>
<glyph name="v" format="2">
	<unicode hex="0076"/>
	<advance width="476"/>
	<outline>
		<contour>
			<point x="236" y="-4" type="line"/>
			<point x="248" y="-4" type="line"/>
			<point x="405" y="448" type="line"/>
			<point x="389" y="448" type="line"/>
			<point x="242" y="20" type="line"/>
			<point x="252" y="20" type="line"/>
			<point x="99" y="448" type="line"/>
			<point x="71" y="448" type="line"/>
		</contour>
		<contour>
			<point x="12" y="438" type="line"/>
			<point x="88" y="432" type="line"/>
			<point x="92" y="432" type="line"/>
			<point x="188" y="438" type="line"/>
			<point x="188" y="448" type="line"/>
			<point x="12" y="448" type="line"/>
		</contour>
		<contour>
			<point x="464" y="448" type="line"/>
			<point x="300" y="448" type="line"/>
			<point x="300" y="438" type="line"/>
			<point x="392" y="432" type="line"/>
			<point x="396" y="432" type="line"/>
			<point x="464" y="438" type="line"/>
		</contour>
	</outline>
	<anchor name="aboveLC" x="250" y="500"/>
	<anchor name="belowLC" x="249" y="-22"/>
</glyph>
<glyph name="w" format="2">
	<unicode hex="0077"/>
	<advance width="720"/>
	<outline>
		<contour>
			<point x="216" y="-4" type="line"/>
			<point x="228" y="-4" type="line"/>
			<point x="372" y="448" type="line"/>
			<point x="356" y="448" type="line"/>
			<point x="222" y="20" type="line"/>
			<point x="232" y="20" type="line"/>
			<point x="100" y="448" type="line"/>
			<point x="72" y="448" type="line"/>
		</contour>
		<contour>
			<point x="12" y="438" type="line"/>
			<point x="88" y="432" type="line"/>
			<point x="92" y="432" type="line"/>
			<point x="188" y="438" type="line"/>
			<point x="188" y="448" type="line"/>
			<point x="12" y="448" type="line"/>
		</contour>
		<contour>
			<point x="452" y="448" type="line"/>
			<point x="288" y="448" type="line"/>
			<point x="288" y="438" type="line"/>
			<point x="364" y="432" type="line"/>
			<point x="384" y="432" type="line"/>
			<point x="452" y="438" type="line"/>
		</contour>
		<contour>
			<point x="500" y="-4" type="line"/>
			<point x="512" y="-4" type="line"/>
			<point x="648" y="448" type="line"/>
			<point x="632" y="448" type="line"/>
			<point x="506" y="20" type="line"/>
			<point x="512" y="20" type="line"/>
			<point x="380" y="448" type="line"/>
			<point x="356" y="448" type="line"/>
		</contour>
		<contour>
			<point x="708" y="448" type="line"/>
			<point x="544" y="448" type="line"/>
			<point x="544" y="438" type="line"/>
			<point x="636" y="432" type="line"/>
			<point x="640" y="432" type="line"/>
			<point x="708" y="438" type="line"/>
		</contour>
	</outline>
	<anchor name="aboveLC" x="385" y="500"/>
	<anchor name="belowLC" x="391" y="-22"/>
</glyph>
<glyph name="x" format="2">
	<unicode hex="0078"/>
	<advance width="455"/>
	<outline>
		<contour>
			<point x="9" y="0" type="line"/>
			<point x="165" y="0" type="line"/>
			<point x="165" y="19" type="line"/>
			<point x="90" y="25" type="line"/>
			<point x="82" y="25" type="line"/>
			<point x="9" y="19" type="line"/>
		</contour>
		<contour>
			<point x="56" y="0" type="line"/>
			<point x="82" y="0" type="line"/>
			<point x="233" y="218" type="line"/>
			<point x="223" y="233" type="line"/>
		</contour>
		<contour>
			<point x="278" y="0" type="line"/>
			<point x="446" y="0" type="line"/>
			<point x="446" y="19" type="line"/>
			<point x="373" y="25" type="line"/>
			<point x="366" y="25" type="line"/>
			<point x="278" y="19" type="line"/>
		</contour>
		<contour>
			<point x="234" y="218" type="line"/>
			<point x="395" y="446" type="line"/>
			<point x="370" y="446" type="line"/>
			<point x="224" y="232" type="line"/>
		</contour>
		<contour>
			<point x="369" y="0" type="line"/>
			<point x="401" y="0" type="line"/>
			<point x="237" y="235" type="line"/>
			<point x="92" y="446" type="line"/>
			<point x="62" y="446" type="line"/>
			<point x="222" y="217" type="line"/>
		</contour>
		<contour>
			<point x="15" y="428" type="line"/>
			<point x="90" y="422" type="line"/>
			<point x="98" y="422" type="line"/>
			<point x="181" y="428" type="line"/>
			<point x="181" y="446" type="line"/>
			<point x="15" y="446" type="line"/>
		</contour>
		<contour>
			<point x="281" y="428" type="line"/>
			<point x="363" y="422" type="line"/>
			<point x="370" y="422" type="line"/>
			<point x="440" y="428" type="line"/>
			<point x="440" y="446" type="line"/>
			<point x="281" y="446" type="line"/>
		</contour>
	</outline>
	<anchor name="aboveLC" x="228" y="475"/>
	<anchor name="belowLC" x="225" y="-21"/>
</glyph>
<glyph name="y" format="2">
	<unicode hex="0079"/>
	<advance width="448"/>
	<outline>
		<contour>
			<point x="46" y="-242" type="curve" smooth="yes"/>
			<point x="109" y="-242"/>
			<point x="170" y="-186"/>
			<point x="211" y="-71" type="curve" smooth="yes"/>
			<point x="395" y="446" type="line"/>
			<point x="371" y="446" type="line"/>
			<point x="221" y="12" type="line"/>
			<point x="192" y="-69" type="line" smooth="yes"/>
			<point x="158" y="-164"/>
			<point x="103" y="-224"/>
			<point x="46" y="-224" type="curve"/>
			<point x="62" y="-236" type="line"/>
			<point x="80" y="-232" type="line"/>
			<point x="59" y="-216" type="line" smooth="yes"/>
			<point x="43" y="-203"/>
			<point x="26" y="-195"/>
			<point x="12" y="-195" type="curve" smooth="yes"/>
			<point x="-3" y="-195"/>
			<point x="-15" y="-201"/>
			<point x="-17" y="-214" type="curve"/>
			<point x="-10" y="-235"/>
			<point x="19" y="-242"/>
		</contour>
		<contour>
			<point x="220" y="-25" type="line"/>
			<point x="233" y="6" type="line"/>
			<point x="229" y="16" type="line"/>
			<point x="76" y="446" type="line"/>
			<point x="46" y="446" type="line"/>
		</contour>
		<contour>
			<point x="-13" y="428" type="line"/>
			<point x="68" y="422" type="line"/>
			<point x="76" y="422" type="line"/>
			<point x="164" y="428" type="line"/>
			<point x="164" y="446" type="line"/>
			<point x="-13" y="446" type="line"/>
		</contour>
		<contour>
			<point x="282" y="428" type="line"/>
			<point x="369" y="422" type="line"/>
			<point x="378" y="422" type="line"/>
			<point x="449" y="428" type="line"/>
			<point x="449" y="446" type="line"/>
			<point x="282" y="446" type="line"/>
		</contour>
	</outline>
	<anchor name="aboveLC" x="228" y="475"/>
	<anchor name="belowLC" x="98" y="-239"/>
</glyph>
<glyph name="z" format="2">
	<unicode hex="007A"/>
	<advance width="418"/>
	<outline>
		<contour>
			<point x="50" y="0" type="line"/>
			<point x="376" y="0" type="line"/>
			<point x="382" y="132" type="line"/>
			<point x="370" y="132" type="line"/>
			<point x="354" y="8" type="line"/>
			<point x="364" y="13" type="line"/>
			<point x="66" y="13" type="line"/>
			<point x="73" y="3" type="line"/>
			<point x="366" y="439" type="line"/>
			<point x="366" y="448" type="line"/>
			<point x="54" y="448" type="line"/>
			<point x="48" y="318" type="line"/>
			<point x="60" y="316" type="line"/>
			<point x="76" y="440" type="line"/>
			<point x="66" y="435" type="line"/>
			<point x="350" y="435" type="line"/>
			<point x="343" y="445" type="line"/>
			<point x="50" y="9" type="line"/>
		</contour>
	</outline>
	<anchor name="aboveLC" x="240" y="500"/>
	<anchor name="belowLC" x="242" y="-22"/>
</glyph>
<glyph name="braceleft" format="2">
	<unicode hex="007B"/>
	<advance width="328"/>
	<outline>
		<contour>
			<point x="36" y="272" type="line"/>
			<point x="97" y="266"/>
			<point x="162" y="241"/>
			<point x="162" y="172" type="curve" smooth="yes"/>
			<point x="162" y="109"/>
			<point x="116" y="45"/>
			<point x="116" y="-36" type="curve" smooth="yes"/>
			<point x="116" y="-114"/>
			<point x="152" y="-160"/>
			<point x="264" y="-160" type="curve" smooth="yes"/>
			<point x="300" y="-160" type="line"/>
			<point x="300" y="-150" type="line"/>
			<point x="264" y="-147" type="line" smooth="yes"/>
			<point x="162" y="-139"/>
			<point x="138" y="-111"/>
			<point x="138" y="-32" type="curve" smooth="yes"/>
			<point x="138" y="40"/>
			<point x="178" y="106"/>
			<point x="178" y="168" type="curve" smooth="yes"/>
			<point x="178" y="241"/>
			<point x="122" y="275"/>
			<point x="52" y="280" type="curve"/>
			<point x="52" y="276" type="line"/>
			<point x="122" y="281"/>
			<point x="178" y="315"/>
			<point x="178" y="388" type="curve" smooth="yes"/>
			<point x="178" y="450"/>
			<point x="138" y="516"/>
			<point x="138" y="588" type="curve" smooth="yes"/>
			<point x="138" y="667"/>
			<point x="162" y="695"/>
			<point x="264" y="703" type="curve" smooth="yes"/>
			<point x="300" y="706" type="line"/>
			<point x="300" y="716" type="line"/>
			<point x="264" y="716" type="line" smooth="yes"/>
			<point x="152" y="716"/>
			<point x="116" y="670"/>
			<point x="116" y="592" type="curve" smooth="yes"/>
			<point x="116" y="511"/>
			<point x="162" y="447"/>
			<point x="162" y="384" type="curve" smooth="yes"/>
			<point x="162" y="315"/>
			<point x="97" y="290"/>
			<point x="36" y="284" type="curve"/>
		</contour>
	</outline>
</glyph>
<glyph name="asciitilde" format="2">
	<unicode hex="007E"/>
	<advance width="496"/>
	<outline>
		<contour>
			<point x="255" y="341" type="curve" smooth="yes"/>
			<point x="227" y="366"/>
			<point x="199" y="392"/>
			<point x="156" y="392" type="curve" smooth="yes"/>
			<point x="101" y="392"/>
			<point x="65" y="352"/>
			<point x="59" y="292" type="curve"/>
			<point x="73" y="288" type="line"/>
			<point x="82" y="350"/>
			<point x="111" y="376"/>
			<point x="156" y="376" type="curve" smooth="yes"/>
			<point x="191" y="376"/>
			<point x="216" y="354"/>
			<point x="241" y="331" type="curve" smooth="yes"/>
			<point x="269" y="306"/>
			<point x="297" y="280"/>
			<point x="340" y="280" type="curve" smooth="yes"/>
			<point x="395" y="280"/>
			<point x="431" y="320"/>
			<point x="437" y="380" type="curve"/>
			<point x="423" y="384" type="line"/>
			<point x="414" y="322"/>
			<point x="385" y="296"/>
			<point x="340" y="296" type="curve" smooth="yes"/>
			<point x="305" y="296"/>
			<point x="280" y="318"/>
		</contour>
	</outline>
</glyph>
<glyph name="cent" format="2">
	<unicode hex="00A2"/>
	<advance width="460"/>
	<outline>
		<contour>
			<point x="257" y="-52" type="line"/>
			<point x="257" y="668" type="line"/>
			<point x="243" y="668" type="line"/>
			<point x="243" y="-52" type="line"/>
		</contour>
		<contour>
			<point x="260" y="540" type="curve" smooth="yes"/>
			<point x="306" y="540"/>
			<point x="331" y="526"/>
			<point x="363" y="496" type="curve"/>
			<point x="342" y="527" type="line"/>
			<point x="364" y="441" type="line" smooth="yes"/>
			<point x="367" y="428"/>
			<point x="374" y="424"/>
			<point x="386" y="424" type="curve" smooth="yes"/>
			<point x="396" y="424"/>
			<point x="403" y="430"/>
			<point x="404" y="442" type="curve"/>
			<point x="385" y="514"/>
			<point x="332" y="552"/>
			<point x="260" y="552" type="curve" smooth="yes"/>
			<point x="160" y="552"/>
			<point x="60" y="468"/>
			<point x="60" y="316" type="curve"/>
			<point x="60" y="159"/>
			<point x="150" y="80"/>
			<point x="256" y="80" type="curve" smooth="yes"/>
			<point x="312" y="80"/>
			<point x="367" y="105"/>
			<point x="404" y="156" type="curve"/>
			<point x="397" y="163" type="line"/>
			<point x="360" y="122"/>
			<point x="312" y="100"/>
			<point x="256" y="100" type="curve" smooth="yes"/>
			<point x="157" y="100"/>
			<point x="86" y="189"/>
			<point x="86" y="320" type="curve" smooth="yes"/>
			<point x="86" y="458"/>
			<point x="168" y="540"/>
		</contour>
	</outline>
</glyph>
<glyph name="currency" format="2">
	<unicode hex="00A4"/>
	<advance width="460"/>
	<outline>
		<contour>
			<point x="328" y="432" type="line"/>
			<point x="364" y="464" type="line" smooth="yes"/>
			<point x="389" y="487"/>
			<point x="408" y="497"/>
			<point x="408" y="512" type="curve" smooth="yes"/>
			<point x="408" y="518"/>
			<point x="404" y="524"/>
			<point x="396" y="524" type="curve" smooth="yes"/>
			<point x="383" y="524"/>
			<point x="370" y="501"/>
			<point x="348" y="472" type="curve" smooth="yes"/>
			<point x="320" y="436" type="line"/>
		</contour>
		<contour>
			<point x="111" y="336" type="curve" smooth="yes"/>
			<point x="111" y="410"/>
			<point x="163" y="463"/>
			<point x="232" y="463" type="curve"/>
			<point x="301" y="463"/>
			<point x="353" y="410"/>
			<point x="353" y="336" type="curve"/>
			<point x="353" y="262"/>
			<point x="301" y="209"/>
			<point x="232" y="209" type="curve"/>
			<point x="163" y="209"/>
			<point x="111" y="262"/>
		</contour>
		<contour>
			<point x="96" y="336" type="curve" smooth="yes"/>
			<point x="96" y="251"/>
			<point x="159" y="196"/>
			<point x="232" y="196" type="curve"/>
			<point x="305" y="196"/>
			<point x="368" y="251"/>
			<point x="368" y="336" type="curve"/>
			<point x="368" y="421"/>
			<point x="305" y="476"/>
			<point x="232" y="476" type="curve"/>
			<point x="159" y="476"/>
			<point x="96" y="421"/>
		</contour>
		<contour>
			<point x="144" y="436" type="line"/>
			<point x="116" y="472" type="line" smooth="yes"/>
			<point x="94" y="501"/>
			<point x="81" y="524"/>
			<point x="68" y="524" type="curve" smooth="yes"/>
			<point x="60" y="524"/>
			<point x="56" y="518"/>
			<point x="56" y="512" type="curve" smooth="yes"/>
			<point x="56" y="497"/>
			<point x="75" y="487"/>
			<point x="100" y="464" type="curve" smooth="yes"/>
			<point x="136" y="432" type="line"/>
		</contour>
		<contour>
			<point x="136" y="240" type="line"/>
			<point x="100" y="208" type="line" smooth="yes"/>
			<point x="75" y="185"/>
			<point x="56" y="175"/>
			<point x="56" y="160" type="curve" smooth="yes"/>
			<point x="56" y="154"/>
			<point x="60" y="148"/>
			<point x="68" y="148" type="curve" smooth="yes"/>
			<point x="81" y="148"/>
			<point x="94" y="171"/>
			<point x="116" y="200" type="curve" smooth="yes"/>
			<point x="144" y="236" type="line"/>
		</contour>
		<contour>
			<point x="320" y="236" type="line"/>
			<point x="348" y="200" type="line" smooth="yes"/>
			<point x="370" y="171"/>
			<point x="383" y="148"/>
			<point x="396" y="148" type="curve" smooth="yes"/>
			<point x="404" y="148"/>
			<point x="408" y="154"/>
			<point x="408" y="160" type="curve" smooth="yes"/>
			<point x="408" y="175"/>
			<point x="389" y="185"/>
			<point x="364" y="208" type="curve" smooth="yes"/>
			<point x="328" y="240" type="line"/>
		</contour>
	</outline>
</glyph>
<glyph name="yen" format="2">
	<unicode hex="00A5"/>
	<advance width="460"/>
	<outline>
		<contour>
			<point x="218" y="299" type="line"/>
			<point x="218" y="200"/>
			<point x="218" y="102"/>
			<point x="216" y="0" type="curve"/>
			<point x="246" y="0" type="line"/>
			<point x="244" y="102"/>
			<point x="244" y="200"/>
			<point x="244" y="299" type="curve"/>
		</contour>
		<contour>
			<point x="111" y="0" type="line"/>
			<point x="351" y="0" type="line"/>
			<point x="351" y="10" type="line"/>
			<point x="238" y="16" type="line"/>
			<point x="224" y="16" type="line"/>
			<point x="111" y="10" type="line"/>
		</contour>
		<contour>
			<point x="466" y="656" type="line"/>
			<point x="287" y="656" type="line"/>
			<point x="287" y="646" type="line"/>
			<point x="384" y="640" type="line"/>
			<point x="394" y="640" type="line"/>
			<point x="466" y="646" type="line"/>
		</contour>
		<contour>
			<point x="182" y="656" type="line"/>
			<point x="-8" y="656" type="line"/>
			<point x="-8" y="646" type="line"/>
			<point x="69" y="640" type="line"/>
			<point x="82" y="640" type="line"/>
			<point x="182" y="646" type="line"/>
		</contour>
		<contour>
			<point x="407" y="656" type="line"/>
			<point x="390" y="656" type="line"/>
			<point x="233" y="296" type="line"/>
			<point x="241" y="296" type="line"/>
			<point x="79" y="656" type="line"/>
			<point x="51" y="656" type="line"/>
			<point x="227" y="265" type="line"/>
			<point x="234" y="265" type="line"/>
		</contour>
		<contour>
			<point x="56" y="280" type="line"/>
			<point x="400" y="280" type="line"/>
			<point x="400" y="292" type="line"/>
			<point x="56" y="292" type="line"/>
		</contour>
		<contour>
			<point x="56" y="172" type="line"/>
			<point x="400" y="172" type="line"/>
			<point x="404" y="183" type="line"/>
			<point x="56" y="184" type="line"/>
		</contour>
	</outline>
</glyph>
<glyph name="brokenbar" format="2">
	<unicode hex="00A6"/>
	<advance width="276"/>
	<outline>
		<contour>
			<point x="128" y="-252" type="line"/>
			<point x="148" y="-252" type="line"/>
			<point x="148" y="200" type="line"/>
			<point x="128" y="200" type="line"/>
		</contour>
		<contour>
			<point x="148" y="320" type="line"/>
			<point x="148" y="748" type="line"/>
			<point x="128" y="748" type="line"/>
			<point x="128" y="320" type="line"/>
		</contour>
	</outline>
</glyph>
<glyph name="section" format="2">
	<unicode hex="00A7"/>
	<advance width="480"/>
	<outline>
		<contour>
			<point x="314" y="140" type="line"/>
			<point x="378" y="176"/>
			<point x="414" y="230"/>
			<point x="414" y="280" type="curve" smooth="yes"/>
			<point x="414" y="439"/>
			<point x="136" y="418"/>
			<point x="136" y="562" type="curve" smooth="yes"/>
			<point x="136" y="628"/>
			<point x="179" y="677"/>
			<point x="264" y="677" type="curve" smooth="yes"/>
			<point x="312" y="677"/>
			<point x="344" y="666"/>
			<point x="376" y="640" type="curve"/>
			<point x="352" y="664" type="line"/>
			<point x="384" y="588" type="line" smooth="yes"/>
			<point x="389" y="577"/>
			<point x="394" y="572"/>
			<point x="404" y="572" type="curve" smooth="yes"/>
			<point x="414" y="572"/>
			<point x="420" y="579"/>
			<point x="420" y="590" type="curve"/>
			<point x="398" y="653"/>
			<point x="348" y="690"/>
			<point x="264" y="690" type="curve" smooth="yes"/>
			<point x="171" y="690"/>
			<point x="114" y="635"/>
			<point x="114" y="558" type="curve" smooth="yes"/>
			<point x="114" y="403"/>
			<point x="392" y="424"/>
			<point x="392" y="276" type="curve" smooth="yes"/>
			<point x="392" y="234"/>
			<point x="369" y="189"/>
			<point x="308" y="148" type="curve"/>
		</contour>
		<contour>
			<point x="180" y="458" type="line"/>
			<point x="116" y="422"/>
			<point x="80" y="368"/>
			<point x="80" y="318" type="curve" smooth="yes"/>
			<point x="80" y="159"/>
			<point x="358" y="180"/>
			<point x="358" y="36" type="curve" smooth="yes"/>
			<point x="358" y="-34"/>
			<point x="311" y="-87"/>
			<point x="214" y="-87" type="curve" smooth="yes"/>
			<point x="166" y="-87"/>
			<point x="134" y="-76"/>
			<point x="102" y="-50" type="curve"/>
			<point x="126" y="-74" type="line"/>
			<point x="94" y="2" type="line" smooth="yes"/>
			<point x="89" y="13"/>
			<point x="84" y="18"/>
			<point x="74" y="18" type="curve" smooth="yes"/>
			<point x="64" y="18"/>
			<point x="58" y="11"/>
			<point x="58" y="0" type="curve"/>
			<point x="80" y="-63"/>
			<point x="130" y="-100"/>
			<point x="214" y="-100" type="curve" smooth="yes"/>
			<point x="319" y="-100"/>
			<point x="380" y="-41"/>
			<point x="380" y="40" type="curve" smooth="yes"/>
			<point x="380" y="195"/>
			<point x="102" y="174"/>
			<point x="102" y="322" type="curve" smooth="yes"/>
			<point x="102" y="364"/>
			<point x="125" y="409"/>
			<point x="186" y="450" type="curve"/>
		</contour>
	</outline>
</glyph>
<glyph name="copyright" format="2">
	<unicode hex="00A9"/>
	<advance width="759"/>
	<outline>
		<contour>
			<point x="380" y="-12" type="curve" smooth="yes"/>
			<point x="570" y="-12"/>
			<point x="729" y="121"/>
			<point x="729" y="340" type="curve" smooth="yes"/>
			<point x="729" y="559"/>
			<point x="570" y="688"/>
			<point x="380" y="688" type="curve" smooth="yes"/>
			<point x="190" y="688"/>
			<point x="30" y="559"/>
			<point x="30" y="340" type="curve" smooth="yes"/>
			<point x="30" y="121"/>
			<point x="190" y="-12"/>
		</contour>
		<contour>
			<point x="380" y="2" type="curve" smooth="yes"/>
			<point x="194" y="2"/>
			<point x="50" y="129"/>
			<point x="50" y="340" type="curve" smooth="yes"/>
			<point x="50" y="547"/>
			<point x="194" y="673"/>
			<point x="380" y="673" type="curve" smooth="yes"/>
			<point x="566" y="673"/>
			<point x="710" y="546"/>
			<point x="710" y="340" type="curve" smooth="yes"/>
			<point x="710" y="134"/>
			<point x="567" y="2"/>
		</contour>
		<contour>
			<point x="391" y="130" type="curve" smooth="yes"/>
			<point x="432" y="130"/>
			<point x="466" y="136"/>
			<point x="506" y="161" type="curve"/>
			<point x="511" y="251" type="line"/>
			<point x="503" y="251" type="line"/>
			<point x="481" y="157" type="line"/>
			<point x="497" y="170" type="line"/>
			<point x="463" y="146"/>
			<point x="427" y="140"/>
			<point x="391" y="140" type="curve" smooth="yes"/>
			<point x="297" y="140"/>
			<point x="230" y="215"/>
			<point x="230" y="341" type="curve" smooth="yes"/>
			<point x="230" y="467"/>
			<point x="295" y="543"/>
			<point x="393" y="543" type="curve" smooth="yes"/>
			<point x="432" y="543"/>
			<point x="459" y="536"/>
			<point x="493" y="513" type="curve"/>
			<point x="476" y="526" type="line"/>
			<point x="498" y="432" type="line"/>
			<point x="506" y="432" type="line"/>
			<point x="501" y="522" type="line"/>
			<point x="466" y="546"/>
			<point x="431" y="553"/>
			<point x="392" y="553" type="curve" smooth="yes"/>
			<point x="280" y="553"/>
			<point x="202" y="467"/>
			<point x="202" y="342" type="curve" smooth="yes"/>
			<point x="202" y="217"/>
			<point x="275" y="130"/>
		</contour>
	</outline>
</glyph>
<glyph name="logicalnot" format="2">
	<unicode hex="00AC"/>
	<advance width="496"/>
	<outline>
		<contour>
			<point x="36" y="364" type="line"/>
			<point x="451" y="364" type="line"/>
			<point x="443" y="372" type="line"/>
			<point x="443" y="176" type="line"/>
			<point x="460" y="176" type="line"/>
			<point x="460" y="380" type="line"/>
			<point x="36" y="380" type="line"/>
		</contour>
	</outline>
</glyph>
<glyph name="registered" format="2">
	<unicode hex="00AE"/>
	<advance width="458"/>
	<outline>
		<contour>
			<point x="334" y="426" type="line"/>
			<point x="300" y="429" type="line"/>
			<point x="312" y="426" type="line"/>
			<point x="284" y="480" type="line" smooth="yes"/>
			<point x="269" y="509"/>
			<point x="254" y="517"/>
			<point x="223" y="518" type="curve"/>
			<point x="223" y="516" type="line"/>
			<point x="279" y="516"/>
			<point x="301" y="542"/>
			<point x="301" y="569" type="curve" smooth="yes"/>
			<point x="301" y="602"/>
			<point x="274" y="620"/>
			<point x="234" y="620" type="curve" smooth="yes"/>
			<point x="190" y="620" type="line"/>
			<point x="190" y="612" type="line"/>
			<point x="232" y="612" type="line" smooth="yes"/>
			<point x="263" y="612"/>
			<point x="277" y="597"/>
			<point x="277" y="569" type="curve" smooth="yes"/>
			<point x="277" y="542"/>
			<point x="261" y="522"/>
			<point x="228" y="522" type="curve" smooth="yes"/>
			<point x="190" y="522" type="line"/>
			<point x="190" y="514" type="line"/>
			<point x="215" y="514" type="line" smooth="yes"/>
			<point x="239" y="514"/>
			<point x="246" y="508"/>
			<point x="257" y="485" type="curve" smooth="yes"/>
			<point x="280" y="438" type="line" smooth="yes"/>
			<point x="287" y="424"/>
			<point x="293" y="419"/>
			<point x="314" y="419" type="curve" smooth="yes"/>
			<point x="321" y="419"/>
			<point x="329" y="420"/>
			<point x="334" y="421" type="curve"/>
		</contour>
		<contour>
			<point x="188" y="429" type="line"/>
			<point x="155" y="426" type="line"/>
			<point x="155" y="421" type="line"/>
			<point x="230" y="421" type="line"/>
			<point x="230" y="426" type="line"/>
			<point x="197" y="429" type="line"/>
		</contour>
		<contour>
			<point x="188" y="612" type="line"/>
			<point x="197" y="612" type="line"/>
			<point x="197" y="620" type="line"/>
			<point x="155" y="620" type="line"/>
			<point x="155" y="616" type="line"/>
		</contour>
		<contour>
			<point x="45" y="516" type="curve" smooth="yes"/>
			<point x="45" y="624"/>
			<point x="133" y="699"/>
			<point x="229" y="699" type="curve" smooth="yes"/>
			<point x="325" y="699"/>
			<point x="413" y="624"/>
			<point x="413" y="516" type="curve" smooth="yes"/>
			<point x="413" y="408"/>
			<point x="326" y="331"/>
			<point x="229" y="331" type="curve" smooth="yes"/>
			<point x="132" y="331"/>
			<point x="45" y="408"/>
		</contour>
		<contour>
			<point x="182" y="421" type="line"/>
			<point x="204" y="421" type="line"/>
			<point x="204" y="620" type="line"/>
			<point x="182" y="620" type="line"/>
		</contour>
		<contour>
			<point x="30" y="516" type="curve" smooth="yes"/>
			<point x="30" y="398"/>
			<point x="127" y="318"/>
			<point x="229" y="318" type="curve" smooth="yes"/>
			<point x="331" y="318"/>
			<point x="428" y="398"/>
			<point x="428" y="516" type="curve" smooth="yes"/>
			<point x="428" y="634"/>
			<point x="332" y="712"/>
			<point x="229" y="712" type="curve" smooth="yes"/>
			<point x="126" y="712"/>
			<point x="30" y="634"/>
		</contour>
	</outline>
</glyph>
<glyph name="plusminus" format="2">
	<unicode hex="00B1"/>
	<advance width="496"/>
	<outline>
		<contour>
			<point x="240" y="108" type="line"/>
			<point x="257" y="108" type="line"/>
			<point x="257" y="556" type="line"/>
			<point x="240" y="556" type="line"/>
		</contour>
		<contour>
			<point x="460" y="328" type="line"/>
			<point x="460" y="344" type="line"/>
			<point x="36" y="344" type="line"/>
			<point x="36" y="328" type="line"/>
		</contour>
		<contour>
			<point x="460" y="0" type="line"/>
			<point x="460" y="16" type="line"/>
			<point x="36" y="16" type="line"/>
			<point x="36" y="0" type="line"/>
		</contour>
	</outline>
</glyph>
<glyph name="two.sups" format="2">
	<unicode hex="00B2"/>
	<advance width="310"/>
	<outline>
		<contour>
			<point x="35" y="436" type="line"/>
			<point x="282" y="436" type="line"/>
			<point x="282" y="456" type="line"/>
			<point x="45" y="456" type="line"/>
			<point x="45" y="447" type="line"/>
			<point x="153" y="566" type="line" smooth="yes"/>
			<point x="234" y="654"/>
			<point x="265" y="698"/>
			<point x="265" y="745" type="curve" smooth="yes"/>
			<point x="265" y="811"/>
			<point x="225" y="850"/>
			<point x="152" y="850" type="curve"/>
			<point x="94" y="850"/>
			<point x="52" y="819"/>
			<point x="38" y="771" type="curve"/>
			<point x="40" y="762"/>
			<point x="44" y="757"/>
			<point x="53" y="757" type="curve" smooth="yes"/>
			<point x="62" y="757"/>
			<point x="68" y="761"/>
			<point x="71" y="774" type="curve" smooth="yes"/>
			<point x="86" y="829" type="line"/>
			<point x="68" y="808" type="line"/>
			<point x="94" y="834"/>
			<point x="119" y="841"/>
			<point x="151" y="841" type="curve"/>
			<point x="210" y="841"/>
			<point x="241" y="802"/>
			<point x="241" y="744" type="curve" smooth="yes"/>
			<point x="241" y="699"/>
			<point x="213" y="657"/>
			<point x="150" y="583" type="curve" smooth="yes"/>
			<point x="35" y="448" type="line"/>
		</contour>
	</outline>
</glyph>
<glyph name="three.sups" format="2">
	<unicode hex="00B3"/>
	<advance width="310"/>
	<outline>
		<contour>
			<point x="107" y="653" type="line"/>
			<point x="107" y="644" type="line"/>
			<point x="139" y="644" type="line" smooth="yes"/>
			<point x="218" y="644"/>
			<point x="256" y="602"/>
			<point x="256" y="541" type="curve" smooth="yes"/>
			<point x="256" y="482"/>
			<point x="212" y="438"/>
			<point x="146" y="438" type="curve"/>
			<point x="115" y="438"/>
			<point x="87" y="444"/>
			<point x="60" y="468" type="curve"/>
			<point x="77" y="448" type="line"/>
			<point x="63" y="502" type="line" smooth="yes"/>
			<point x="59" y="514"/>
			<point x="53" y="518"/>
			<point x="44" y="518" type="curve" smooth="yes"/>
			<point x="35" y="518"/>
			<point x="30" y="514"/>
			<point x="28" y="505" type="curve"/>
			<point x="42" y="455"/>
			<point x="89" y="429"/>
			<point x="147" y="429" type="curve"/>
			<point x="222" y="429"/>
			<point x="281" y="472"/>
			<point x="281" y="542" type="curve" smooth="yes"/>
			<point x="281" y="603"/>
			<point x="237" y="647"/>
			<point x="157" y="650" type="curve"/>
			<point x="157" y="647" type="line"/>
			<point x="227" y="656"/>
			<point x="267" y="699"/>
			<point x="267" y="750" type="curve" smooth="yes"/>
			<point x="267" y="807"/>
			<point x="224" y="850"/>
			<point x="153" y="850" type="curve" smooth="yes"/>
			<point x="98" y="850"/>
			<point x="53" y="824"/>
			<point x="40" y="774" type="curve"/>
			<point x="41" y="765"/>
			<point x="45" y="760"/>
			<point x="54" y="760" type="curve" smooth="yes"/>
			<point x="63" y="760"/>
			<point x="69" y="764"/>
			<point x="72" y="776" type="curve" smooth="yes"/>
			<point x="87" y="831" type="line"/>
			<point x="68" y="810" type="line"/>
			<point x="95" y="836"/>
			<point x="120" y="841"/>
			<point x="151" y="841" type="curve" smooth="yes"/>
			<point x="207" y="841"/>
			<point x="243" y="802"/>
			<point x="243" y="750" type="curve" smooth="yes"/>
			<point x="243" y="691"/>
			<point x="196" y="653"/>
			<point x="135" y="653" type="curve" smooth="yes"/>
		</contour>
	</outline>
</glyph>
<glyph name="paragraph" format="2">
	<unicode hex="00B6"/>
	<advance width="603"/>
	<outline>
		<contour>
			<point x="421" y="677" type="line"/>
			<point x="421" y="650" type="line"/>
			<point x="428" y="650" type="line"/>
			<point x="545" y="657" type="line"/>
			<point x="545" y="677" type="line"/>
		</contour>
		<contour>
			<point x="410" y="180" type="line" smooth="yes"/>
			<point x="410" y="76"/>
			<point x="410" y="-28"/>
			<point x="408" y="-130" type="curve"/>
			<point x="438" y="-130" type="line"/>
			<point x="436" y="-28"/>
			<point x="436" y="76"/>
			<point x="436" y="180" type="curve" smooth="yes"/>
			<point x="436" y="367" type="line" smooth="yes"/>
			<point x="436" y="471"/>
			<point x="436" y="575"/>
			<point x="438" y="677" type="curve"/>
			<point x="410" y="677" type="line"/>
		</contour>
		<contour>
			<point x="342" y="653" type="line"/>
			<point x="421" y="653" type="line"/>
			<point x="421" y="677" type="line"/>
			<point x="368" y="677" type="line" smooth="yes"/>
			<point x="174" y="677"/>
			<point x="60" y="577"/>
			<point x="60" y="427" type="curve" smooth="yes"/>
			<point x="60" y="268"/>
			<point x="186" y="177"/>
			<point x="342" y="178" type="curve"/>
		</contour>
	</outline>
</glyph>
<glyph name="one.sups" format="2">
	<unicode hex="00B9"/>
	<advance width="310"/>
	<outline>
		<contour>
			<point x="52" y="430" type="line"/>
			<point x="271" y="430" type="line"/>
			<point x="271" y="437" type="line"/>
			<point x="168" y="443" type="line"/>
			<point x="159" y="443" type="line"/>
			<point x="52" y="437" type="line"/>
		</contour>
		<contour>
			<point x="152" y="430" type="line"/>
			<point x="175" y="430" type="line"/>
			<point x="175" y="838" type="line"/>
			<point x="170" y="841" type="line"/>
			<point x="56" y="809" type="line"/>
			<point x="56" y="803" type="line"/>
			<point x="152" y="819" type="line"/>
		</contour>
	</outline>
</glyph>
<glyph name="AE" format="2">
	<unicode hex="00C6"/>
	<advance width="864"/>
	<outline>
		<contour>
			<point x="464" y="0" type="curve"/>
			<point x="494" y="0" type="line"/>
			<point x="492" y="88"/>
			<point x="492" y="216"/>
			<point x="492" y="324" type="curve" smooth="yes"/>
			<point x="492" y="360" type="line" smooth="yes"/>
			<point x="492" y="464"/>
			<point x="492" y="590"/>
			<point x="494" y="676" type="curve"/>
			<point x="466" y="676" type="line"/>
			<point x="466" y="324" type="line" smooth="yes"/>
			<point x="466" y="216"/>
			<point x="466" y="88"/>
		</contour>
		<contour>
			<point x="12" y="0" type="line"/>
			<point x="203" y="0" type="line"/>
			<point x="203" y="10" type="line"/>
			<point x="106" y="16" type="line"/>
			<point x="96" y="16" type="line"/>
			<point x="12" y="10" type="line"/>
		</contour>
		<contour>
			<point x="676" y="237" type="line"/>
			<point x="686" y="237" type="line"/>
			<point x="686" y="453" type="line"/>
			<point x="676" y="453" type="line"/>
			<point x="663" y="349" type="line"/>
			<point x="663" y="341" type="line"/>
		</contour>
		<contour>
			<point x="798" y="512" type="line"/>
			<point x="808" y="512" type="line"/>
			<point x="797" y="676" type="line"/>
			<point x="479" y="676" type="line"/>
			<point x="479" y="662" type="line"/>
			<point x="773" y="662" type="line"/>
		</contour>
		<contour>
			<point x="479" y="0" type="line"/>
			<point x="809" y="0" type="line"/>
			<point x="820" y="172" type="line"/>
			<point x="810" y="172" type="line"/>
			<point x="785" y="14" type="line"/>
			<point x="479" y="14" type="line"/>
		</contour>
		<contour>
			<point x="346" y="666" type="line"/>
			<point x="456" y="660" type="line"/>
			<point x="482" y="660" type="line"/>
			<point x="482" y="676" type="line"/>
			<point x="346" y="676" type="line"/>
		</contour>
		<contour>
			<point x="372" y="0" type="line"/>
			<point x="478" y="0" type="line"/>
			<point x="478" y="16" type="line"/>
			<point x="472" y="16" type="line"/>
			<point x="372" y="10" type="line"/>
		</contour>
		<contour>
			<point x="86" y="0" type="line"/>
			<point x="104" y="0" type="line"/>
			<point x="241" y="256" type="line"/>
			<point x="464" y="676" type="line"/>
			<point x="447" y="676" type="line"/>
		</contour>
		<contour>
			<point x="232" y="250" type="line"/>
			<point x="480" y="250" type="line"/>
			<point x="480" y="264" type="line"/>
			<point x="232" y="264" type="line"/>
		</contour>
		<contour>
			<point x="479" y="338" type="line"/>
			<point x="677" y="338" type="line"/>
			<point x="677" y="352" type="line"/>
			<point x="479" y="352" type="line"/>
		</contour>
	</outline>
	<anchor name="aboveUC" x="547" y="696"/>
</glyph>
<glyph name="Idieresis" format="2">
	<unicode hex="00CF"/>
	<advance width="310"/>
	<outline>
		<contour>
			<point x="86" y="756" type="curve" smooth="yes"/>
			<point x="102" y="756"/>
			<point x="116" y="767"/>
			<point x="116" y="786" type="curve" smooth="yes"/>
			<point x="116" y="805"/>
			<point x="102" y="816"/>
			<point x="86" y="816" type="curve" smooth="yes"/>
			<point x="70" y="816"/>
			<point x="56" y="805"/>
			<point x="56" y="786" type="curve" smooth="yes"/>
			<point x="56" y="767"/>
			<point x="70" y="756"/>
		</contour>
		<contour>
			<point x="226" y="756" type="curve" smooth="yes"/>
			<point x="242" y="756"/>
			<point x="256" y="767"/>
			<point x="256" y="786" type="curve" smooth="yes"/>
			<point x="256" y="805"/>
			<point x="242" y="816"/>
			<point x="226" y="816" type="curve" smooth="yes"/>
			<point x="210" y="816"/>
			<point x="196" y="805"/>
			<point x="196" y="786" type="curve" smooth="yes"/>
			<point x="196" y="767"/>
			<point x="210" y="756"/>
		</contour>
		<component base="I"/>
	</outline>
</glyph>
<glyph name="Eth" format="2">
	<unicode hex="00D0"/>
	<advance width="636"/>
	<outline>
		<contour>
			<point x="353" y="341" type="line"/>
			<point x="353" y="354" type="line"/>
			<point x="42" y="354" type="line"/>
			<point x="42" y="341" type="line"/>
		</contour>
		<component base="D"/>
	</outline>
</glyph>
<glyph name="multiply" format="2">
	<unicode hex="00D7"/>
	<advance width="500"/>
	<outline>
		<contour>
			<point x="436" y="133" type="line"/>
			<point x="448" y="145" type="line"/>
			<point x="65" y="540" type="line"/>
			<point x="53" y="528" type="line"/>
		</contour>
		<contour>
			<point x="447" y="528" type="line"/>
			<point x="435" y="540" type="line"/>
			<point x="52" y="145" type="line"/>
			<point x="64" y="133" type="line"/>
		</contour>
	</outline>
</glyph>
<glyph name="Oslash" format="2">
	<unicode hex="00D8"/>
	<advance width="648"/>
	<outline>
		<contour>
			<point x="588" y="684" type="line"/>
			<point x="577" y="692" type="line"/>
			<point x="60" y="-8" type="line"/>
			<point x="71" y="-16" type="line"/>
		</contour>
		<component base="O"/>
	</outline>
	<anchor name="aboveUC" x="324" y="692"/>
</glyph>
<glyph name="Thorn" format="2">
	<unicode hex="00DE"/>
	<advance width="538"/>
	<outline>
		<contour>
			<point x="155" y="180" type="line"/>
			<point x="275" y="180" type="line" smooth="yes"/>
			<point x="415" y="180"/>
			<point x="498" y="247"/>
			<point x="498" y="362" type="curve" smooth="yes"/>
			<point x="498" y="477"/>
			<point x="415" y="536"/>
			<point x="275" y="536" type="curve" smooth="yes"/>
			<point x="155" y="536" type="line"/>
			<point x="155" y="522" type="line"/>
			<point x="271" y="522" type="line" smooth="yes"/>
			<point x="399" y="522"/>
			<point x="472" y="476"/>
			<point x="472" y="362" type="curve" smooth="yes"/>
			<point x="472" y="248"/>
			<point x="399" y="194"/>
			<point x="271" y="194" type="curve" smooth="yes"/>
			<point x="155" y="194" type="line"/>
		</contour>
		<contour>
			<point x="140" y="0" type="curve"/>
			<point x="170" y="0" type="line"/>
			<point x="168" y="88"/>
			<point x="168" y="216"/>
			<point x="168" y="324" type="curve" smooth="yes"/>
			<point x="168" y="360" type="line" smooth="yes"/>
			<point x="168" y="464"/>
			<point x="168" y="590"/>
			<point x="170" y="676" type="curve"/>
			<point x="140" y="676" type="line"/>
			<point x="142" y="590"/>
			<point x="142" y="464"/>
			<point x="142" y="360" type="curve" smooth="yes"/>
			<point x="142" y="324" type="line" smooth="yes"/>
			<point x="142" y="216"/>
			<point x="142" y="88"/>
		</contour>
		<contour>
			<point x="148" y="660" type="line"/>
			<point x="162" y="660" type="line"/>
			<point x="262" y="666" type="line"/>
			<point x="262" y="676" type="line"/>
			<point x="48" y="676" type="line"/>
			<point x="48" y="666" type="line"/>
		</contour>
		<contour>
			<point x="48" y="0" type="line"/>
			<point x="262" y="0" type="line"/>
			<point x="262" y="10" type="line"/>
			<point x="162" y="16" type="line"/>
			<point x="148" y="16" type="line"/>
			<point x="48" y="10" type="line"/>
		</contour>
	</outline>
</glyph>
<glyph name="idieresis" format="2">
	<unicode hex="00EF"/>
	<advance width="264"/>
	<outline>
		<contour>
			<point x="62" y="603" type="curve" smooth="yes"/>
			<point x="77" y="603"/>
			<point x="90" y="613"/>
			<point x="90" y="631" type="curve" smooth="yes"/>
			<point x="90" y="649"/>
			<point x="77" y="659"/>
			<point x="62" y="659" type="curve" smooth="yes"/>
			<point x="47" y="659"/>
			<point x="34" y="649"/>
			<point x="34" y="631" type="curve" smooth="yes"/>
			<point x="34" y="613"/>
			<point x="47" y="603"/>
		</contour>
		<contour>
			<point x="206" y="603" type="curve" smooth="yes"/>
			<point x="221" y="603"/>
			<point x="234" y="613"/>
			<point x="234" y="631" type="curve" smooth="yes"/>
			<point x="234" y="649"/>
			<point x="221" y="659"/>
			<point x="206" y="659" type="curve" smooth="yes"/>
			<point x="191" y="659"/>
			<point x="178" y="649"/>
			<point x="178" y="631" type="curve" smooth="yes"/>
			<point x="178" y="613"/>
			<point x="191" y="603"/>
		</contour>
		<component base="dotlessi"/>
	</outline>
</glyph>
<glyph name="eth" format="2">
	<unicode hex="00F0"/>
	<advance width="480"/>
	<outline>
		<contour>
			<point x="240" y="-12" type="curve" smooth="yes"/>
			<point x="334" y="-12"/>
			<point x="432" y="64"/>
			<point x="432" y="260" type="curve" smooth="yes"/>
			<point x="432" y="470"/>
			<point x="356" y="645"/>
			<point x="136" y="760" type="curve"/>
			<point x="130" y="750" type="line"/>
			<point x="343" y="635"/>
			<point x="396" y="479"/>
			<point x="410" y="300" type="curve"/>
			<point x="420" y="260" type="line"/>
			<point x="408" y="392"/>
			<point x="334" y="460"/>
			<point x="240" y="460" type="curve" smooth="yes"/>
			<point x="146" y="460"/>
			<point x="48" y="383"/>
			<point x="48" y="220" type="curve" smooth="yes"/>
			<point x="48" y="58"/>
			<point x="146" y="-12"/>
		</contour>
		<contour>
			<point x="240" y="1" type="curve" smooth="yes"/>
			<point x="153" y="1"/>
			<point x="74" y="71"/>
			<point x="74" y="220" type="curve" smooth="yes"/>
			<point x="74" y="369"/>
			<point x="153" y="447"/>
			<point x="240" y="447" type="curve" smooth="yes"/>
			<point x="327" y="447"/>
			<point x="406" y="377"/>
			<point x="406" y="228" type="curve" smooth="yes"/>
			<point x="406" y="79"/>
			<point x="327" y="1"/>
		</contour>
		<contour>
			<point x="141" y="557" type="line"/>
			<point x="448" y="724" type="line"/>
			<point x="443" y="735" type="line"/>
			<point x="136" y="568" type="line"/>
		</contour>
	</outline>
</glyph>
<glyph name="divide" format="2">
	<unicode hex="00F7"/>
	<advance width="496"/>
	<outline>
		<contour>
			<point x="248" y="116" type="curve" smooth="yes"/>
			<point x="266" y="116"/>
			<point x="278" y="129"/>
			<point x="278" y="146" type="curve" smooth="yes"/>
			<point x="278" y="163"/>
			<point x="266" y="176"/>
			<point x="248" y="176" type="curve" smooth="yes"/>
			<point x="230" y="176"/>
			<point x="218" y="163"/>
			<point x="218" y="146" type="curve" smooth="yes"/>
			<point x="218" y="129"/>
			<point x="230" y="116"/>
		</contour>
		<contour>
			<point x="248" y="492" type="curve"/>
			<point x="266" y="492"/>
			<point x="278" y="505"/>
			<point x="278" y="522" type="curve" smooth="yes"/>
			<point x="278" y="539"/>
			<point x="266" y="552"/>
			<point x="248" y="552" type="curve"/>
			<point x="230" y="552"/>
			<point x="218" y="539"/>
			<point x="218" y="522" type="curve" smooth="yes"/>
			<point x="218" y="505"/>
			<point x="230" y="492"/>
		</contour>
		<component base="minus"/>
	</outline>
</glyph>
<glyph name="oslash" format="2">
	<unicode hex="00F8"/>
	<advance width="480"/>
	<outline>
		<contour>
			<point x="432" y="464" type="line"/>
			<point x="421" y="471" type="line"/>
			<point x="48" y="-16" type="line"/>
			<point x="59" y="-23" type="line"/>
		</contour>
		<contour>
			<point x="240" y="-12" type="curve" smooth="yes"/>
			<point x="334" y="-12"/>
			<point x="432" y="65"/>
			<point x="432" y="228" type="curve" smooth="yes"/>
			<point x="432" y="390"/>
			<point x="334" y="460"/>
			<point x="240" y="460" type="curve" smooth="yes"/>
			<point x="146" y="460"/>
			<point x="48" y="383"/>
			<point x="48" y="220" type="curve" smooth="yes"/>
			<point x="48" y="58"/>
			<point x="146" y="-12"/>
		</contour>
		<contour>
			<point x="240" y="1" type="curve" smooth="yes"/>
			<point x="153" y="1"/>
			<point x="74" y="71"/>
			<point x="74" y="220" type="curve" smooth="yes"/>
			<point x="74" y="369"/>
			<point x="153" y="447"/>
			<point x="240" y="447" type="curve" smooth="yes"/>
			<point x="327" y="447"/>
			<point x="406" y="377"/>
			<point x="406" y="228" type="curve" smooth="yes"/>
			<point x="406" y="79"/>
			<point x="327" y="1"/>
		</contour>
	</outline>
	<anchor name="aboveLC" x="240" y="468"/>
</glyph>
<glyph name="thorn" format="2">
	<unicode hex="00FE"/>
	<advance width="516"/>
	<outline>
		<contour>
			<point x="111" y="-264" type="curve"/>
			<point x="141" y="-264" type="line"/>
			<point x="139" y="-219"/>
			<point x="138" y="-118"/>
			<point x="138" y="-56" type="curve" smooth="yes"/>
			<point x="138" y="76" type="line"/>
			<point x="138" y="79" type="line"/>
			<point x="138" y="365" type="line"/>
			<point x="138" y="367" type="line"/>
			<point x="138" y="588" type="line"/>
			<point x="140" y="743" type="line"/>
			<point x="132" y="748" type="line"/>
			<point x="32" y="740" type="line"/>
			<point x="32" y="730" type="line"/>
			<point x="114" y="730" type="line"/>
			<point x="114" y="-56" type="line" smooth="yes"/>
			<point x="114" y="-118"/>
			<point x="113" y="-219"/>
		</contour>
		<contour>
			<point x="288" y="-12" type="curve" smooth="yes"/>
			<point x="398" y="-12"/>
			<point x="468" y="84"/>
			<point x="468" y="232" type="curve" smooth="yes"/>
			<point x="468" y="364"/>
			<point x="399" y="460"/>
			<point x="292" y="460" type="curve" smooth="yes"/>
			<point x="242" y="460"/>
			<point x="182" y="437"/>
			<point x="136" y="371" type="curve"/>
			<point x="128" y="371" type="line"/>
			<point x="136" y="356" type="line"/>
			<point x="184" y="420"/>
			<point x="232" y="446"/>
			<point x="288" y="446" type="curve" smooth="yes"/>
			<point x="376" y="446"/>
			<point x="442" y="372"/>
			<point x="442" y="232" type="curve" smooth="yes"/>
			<point x="442" y="70"/>
			<point x="369" y="2"/>
			<point x="286" y="2" type="curve" smooth="yes"/>
			<point x="230" y="2"/>
			<point x="188" y="26"/>
			<point x="136" y="86" type="curve"/>
			<point x="128" y="72" type="line"/>
			<point x="136" y="72" type="line"/>
			<point x="182" y="10"/>
			<point x="239" y="-12"/>
		</contour>
		<contour>
			<point x="32" y="-264" type="line"/>
			<point x="228" y="-264" type="line"/>
			<point x="228" y="-254" type="line"/>
			<point x="128" y="-248" type="line"/>
			<point x="124" y="-248" type="line"/>
			<point x="32" y="-254" type="line"/>
		</contour>
	</outline>
	<anchor name="aboveLC" x="124" y="753"/>
	<anchor name="belowLC" x="276" y="-20"/>
</glyph>
<glyph name="aogonek" format="2">
	<unicode hex="0105"/>
	<advance width="460"/>
	<outline>
		<contour>
			<point x="164" y="-12" type="curve" smooth="yes"/>
			<point x="219" y="-12"/>
			<point x="263" y="14"/>
			<point x="320" y="80" type="curve"/>
			<point x="328" y="80" type="line"/>
			<point x="328" y="104" type="line"/>
			<point x="264" y="30"/>
			<point x="219" y="4"/>
			<point x="168" y="4" type="curve" smooth="yes"/>
			<point x="112" y="4"/>
			<point x="76" y="38"/>
			<point x="76" y="98" type="curve" smooth="yes"/>
			<point x="76" y="152"/>
			<point x="111" y="193"/>
			<point x="185" y="219" type="curve" smooth="yes"/>
			<point x="233" y="236"/>
			<point x="289" y="251"/>
			<point x="328" y="260" type="curve"/>
			<point x="328" y="270" type="line"/>
			<point x="285" y="262"/>
			<point x="231" y="249"/>
			<point x="184" y="233" type="curve" smooth="yes"/>
			<point x="95" y="203"/>
			<point x="52" y="161"/>
			<point x="52" y="95" type="curve" smooth="yes"/>
			<point x="52" y="26"/>
			<point x="95" y="-12"/>
		</contour>
		<contour>
			<point x="385" y="-223" type="curve" smooth="yes"/>
			<point x="420" y="-223"/>
			<point x="450" y="-206"/>
			<point x="466" y="-183" type="curve"/>
			<point x="460" y="-177" type="line"/>
			<point x="440" y="-197"/>
			<point x="418" y="-207"/>
			<point x="388" y="-207" type="curve" smooth="yes"/>
			<point x="351" y="-207"/>
			<point x="320" y="-181"/>
			<point x="320" y="-136" type="curve" smooth="yes"/>
			<point x="320" y="-80"/>
			<point x="372" y="-34"/>
			<point x="418" y="-1" type="curve" smooth="yes"/>
			<point x="425" y="4"/>
			<point x="432" y="9"/>
			<point x="436" y="16" type="curve"/>
			<point x="430" y="22" type="line"/>
			<point x="415" y="7"/>
			<point x="399" y="1"/>
			<point x="385" y="1" type="curve" smooth="yes"/>
			<point x="358" y="1"/>
			<point x="344" y="16"/>
			<point x="344" y="54" type="curve" smooth="yes"/>
			<point x="344" y="320" type="line" smooth="yes"/>
			<point x="344" y="416"/>
			<point x="302" y="460"/>
			<point x="210" y="460" type="curve" smooth="yes"/>
			<point x="148" y="460"/>
			<point x="86" y="431"/>
			<point x="68" y="353" type="curve"/>
			<point x="69" y="341"/>
			<point x="77" y="335"/>
			<point x="86" y="335" type="curve" smooth="yes"/>
			<point x="98" y="335"/>
			<point x="104" y="340"/>
			<point x="107" y="352" type="curve" smooth="yes"/>
			<point x="124" y="428" type="line"/>
			<point x="104" y="404" type="line"/>
			<point x="140" y="434"/>
			<point x="166" y="447"/>
			<point x="210" y="447" type="curve" smooth="yes"/>
			<point x="283" y="447"/>
			<point x="320" y="411"/>
			<point x="320" y="310" type="curve" smooth="yes"/>
			<point x="320" y="57" type="line"/>
			<point x="320" y="54" type="line" smooth="yes"/>
			<point x="320" y="10"/>
			<point x="342" y="-12"/>
			<point x="380" y="-12" type="curve" smooth="yes"/>
			<point x="382" y="-12"/>
			<point x="385" y="-12"/>
			<point x="399" y="-8" type="curve"/>
			<point x="395" y="-6" type="line"/>
			<point x="340" y="-47"/>
			<point x="300" y="-90"/>
			<point x="300" y="-140" type="curve" smooth="yes"/>
			<point x="300" y="-192"/>
			<point x="338" y="-223"/>
		</contour>
	</outline>
	<anchor name="aboveLC" x="212" y="468"/>
	<anchor name="belowLC" x="224" y="-20"/>
</glyph>
<glyph name="eogonek" format="2">
	<unicode hex="0119"/>
	<advance width="440"/>
	<outline>
		<contour>
			<point x="301" y="-223" type="curve" smooth="yes"/>
			<point x="336" y="-223"/>
			<point x="366" y="-206"/>
			<point x="382" y="-183" type="curve"/>
			<point x="376" y="-177" type="line"/>
			<point x="356" y="-197"/>
			<point x="334" y="-207"/>
			<point x="304" y="-207" type="curve" smooth="yes"/>
			<point x="267" y="-207"/>
			<point x="236" y="-177"/>
			<point x="236" y="-132" type="curve" smooth="yes"/>
			<point x="236" y="-73"/>
			<point x="293" y="-18"/>
			<point x="341" y="15" type="curve" smooth="yes"/>
			<point x="360" y="28"/>
			<point x="378" y="44"/>
			<point x="392" y="64" type="curve"/>
			<point x="385" y="71" type="line"/>
			<point x="348" y="30"/>
			<point x="300" y="8"/>
			<point x="248" y="8" type="curve" smooth="yes"/>
			<point x="137" y="8"/>
			<point x="74" y="93"/>
			<point x="74" y="236" type="curve" smooth="yes"/>
			<point x="74" y="347"/>
			<point x="141" y="447"/>
			<point x="238" y="447" type="curve" smooth="yes"/>
			<point x="331" y="447"/>
			<point x="372" y="365"/>
			<point x="372" y="284" type="curve" smooth="yes"/>
			<point x="372" y="252"/>
			<point x="366" y="250"/>
			<point x="349" y="250" type="curve" smooth="yes"/>
			<point x="64" y="250" type="line"/>
			<point x="64" y="236" type="line"/>
			<point x="391" y="236" type="line"/>
			<point x="395" y="252"/>
			<point x="396" y="268"/>
			<point x="396" y="284" type="curve" smooth="yes"/>
			<point x="396" y="378"/>
			<point x="344" y="460"/>
			<point x="238" y="460" type="curve" smooth="yes"/>
			<point x="137" y="460"/>
			<point x="48" y="364"/>
			<point x="48" y="224" type="curve" smooth="yes"/>
			<point x="48" y="67"/>
			<point x="130" y="-12"/>
			<point x="248" y="-12" type="curve" smooth="yes"/>
			<point x="270" y="-12"/>
			<point x="295" y="-7"/>
			<point x="319" y="4" type="curve"/>
			<point x="326" y="16" type="line"/>
			<point x="282" y="-15"/>
			<point x="216" y="-71"/>
			<point x="216" y="-136" type="curve" smooth="yes"/>
			<point x="216" y="-188"/>
			<point x="254" y="-223"/>
		</contour>
	</outline>
	<anchor name="aboveLC" x="236" y="476"/>
	<anchor name="belowLC" x="240" y="-24"/>
</glyph>
<glyph name="Hbar" format="2">
	<unicode hex="0126"/>
	<advance width="704"/>
	<outline>
		<contour>
			<point x="32" y="501" type="line"/>
			<point x="672" y="501" type="line"/>
			<point x="672" y="514" type="line"/>
			<point x="32" y="514" type="line"/>
		</contour>
		<component base="H"/>
	</outline>
</glyph>
<glyph name="kgreenlandic" format="2">
	<unicode hex="0138"/>
	<advance width="488"/>
	<outline>
		<contour>
			<point x="40" y="0" type="line"/>
			<point x="224" y="0" type="line"/>
			<point x="224" y="10" type="line"/>
			<point x="136" y="16" type="line"/>
			<point x="132" y="16" type="line"/>
			<point x="40" y="10" type="line"/>
		</contour>
		<contour>
			<point x="119" y="0" type="curve"/>
			<point x="149" y="0" type="line"/>
			<point x="147" y="45"/>
			<point x="146" y="146"/>
			<point x="146" y="208" type="curve" smooth="yes"/>
			<point x="146" y="340" type="line"/>
			<point x="148" y="447" type="line"/>
			<point x="142" y="452" type="line"/>
			<point x="36" y="444" type="line"/>
			<point x="36" y="434" type="line"/>
			<point x="119" y="434" type="line"/>
			<point x="121" y="372"/>
			<point x="122" y="314"/>
			<point x="122" y="252" type="curve" smooth="yes"/>
			<point x="122" y="208" type="line" smooth="yes"/>
			<point x="122" y="146"/>
			<point x="121" y="45"/>
		</contour>
		<contour>
			<point x="135" y="156" type="line"/>
			<point x="400" y="448" type="line"/>
			<point x="380" y="448" type="line"/>
			<point x="260" y="314" type="line"/>
			<point x="139" y="179" type="line"/>
			<point x="135" y="179" type="line"/>
		</contour>
		<contour>
			<point x="389" y="0" type="line"/>
			<point x="480" y="0" type="line"/>
			<point x="480" y="10" type="line"/>
			<point x="392" y="15" type="line"/>
			<point x="412" y="7" type="line"/>
			<point x="243" y="288" type="line"/>
			<point x="227" y="272" type="line"/>
		</contour>
		<contour>
			<point x="372" y="432" type="line"/>
			<point x="376" y="432" type="line"/>
			<point x="468" y="438" type="line"/>
			<point x="468" y="448" type="line"/>
			<point x="268" y="448" type="line"/>
			<point x="268" y="438" type="line"/>
		</contour>
	</outline>
</glyph>
<glyph name="Lslash" format="2">
	<unicode hex="0141"/>
	<advance width="516"/>
	<outline>
		<contour>
			<point x="346" y="422" type="line"/>
			<point x="158" y="314" type="line"/>
			<point x="158" y="299" type="line"/>
			<point x="346" y="407" type="line"/>
		</contour>
		<contour>
			<point x="158" y="314" type="line"/>
			<point x="54" y="256" type="line"/>
			<point x="54" y="241" type="line"/>
			<point x="158" y="299" type="line"/>
		</contour>
		<component base="L"/>
	</outline>
</glyph>
<glyph name="lslash" format="2">
	<unicode hex="0142"/>
	<advance width="264"/>
	<outline>
		<contour>
			<point x="136" y="388" type="line"/>
			<point x="40" y="332" type="line"/>
			<point x="40" y="318" type="line"/>
			<point x="136" y="374" type="line"/>
		</contour>
		<contour>
			<point x="232" y="442" type="line"/>
			<point x="136" y="386" type="line"/>
			<point x="136" y="372" type="line"/>
			<point x="232" y="428" type="line"/>
		</contour>
		<component base="l"/>
	</outline>
</glyph>
<glyph name="Eng" format="2">
	<unicode hex="014A"/>
	<advance width="697"/>
	<outline>
		<contour>
			<point x="48" y="0" type="line"/>
			<point x="261" y="0" type="line"/>
			<point x="261" y="10" type="line"/>
			<point x="153" y="16" type="line"/>
			<point x="149" y="16" type="line"/>
			<point x="48" y="10" type="line"/>
		</contour>
		<contour>
			<point x="48" y="666" type="line"/>
			<point x="137" y="660" type="line"/>
			<point x="547" y="-7" type="line"/>
			<point x="553" y="-7" type="line"/>
			<point x="546" y="43" type="line"/>
			<point x="157" y="676" type="line"/>
			<point x="48" y="676" type="line"/>
		</contour>
		<contour>
			<point x="143" y="0" type="line"/>
			<point x="159" y="0" type="line"/>
			<point x="159" y="667" type="line"/>
			<point x="143" y="667" type="line"/>
		</contour>
		<contour>
			<point x="444" y="666" type="line"/>
			<point x="552" y="660" type="line"/>
			<point x="556" y="660" type="line"/>
			<point x="649" y="666" type="line"/>
			<point x="649" y="676" type="line"/>
			<point x="444" y="676" type="line"/>
		</contour>
		<contour>
			<point x="411" y="-148" type="curve" smooth="yes"/>
			<point x="474" y="-148"/>
			<point x="513" y="-117"/>
			<point x="535" y="-75" type="curve" smooth="yes"/>
			<point x="555" y="-37"/>
			<point x="562" y="8"/>
			<point x="562" y="48" type="curve" smooth="yes"/>
			<point x="562" y="676" type="line"/>
			<point x="546" y="676" type="line"/>
			<point x="546" y="47" type="line" smooth="yes"/>
			<point x="546" y="-10"/>
			<point x="533" y="-118"/>
			<point x="437" y="-134" type="curve"/>
			<point x="443" y="-139" type="line"/>
			<point x="448" y="-136" type="line"/>
			<point x="431" y="-124" type="line" smooth="yes"/>
			<point x="413" y="-111"/>
			<point x="397" y="-104"/>
			<point x="383" y="-104" type="curve" smooth="yes"/>
			<point x="364" y="-104"/>
			<point x="356" y="-111"/>
			<point x="355" y="-124" type="curve"/>
			<point x="362" y="-141"/>
			<point x="388" y="-148"/>
		</contour>
	</outline>
</glyph>
<glyph name="oe" format="2">
	<unicode hex="0153"/>
	<advance width="790"/>
	<outline>
		<contour>
			<point x="236" y="-12" type="curve" smooth="yes"/>
			<point x="312" y="-12"/>
			<point x="387" y="39"/>
			<point x="414" y="144" type="curve"/>
			<point x="406" y="144" type="line"/>
			<point x="430" y="40"/>
			<point x="502" y="-12"/>
			<point x="598" y="-12" type="curve" smooth="yes"/>
			<point x="646" y="-12"/>
			<point x="706" y="13"/>
			<point x="742" y="64" type="curve"/>
			<point x="735" y="71" type="line"/>
			<point x="698" y="30"/>
			<point x="650" y="8"/>
			<point x="598" y="8" type="curve" smooth="yes"/>
			<point x="487" y="8"/>
			<point x="424" y="93"/>
			<point x="424" y="236" type="curve" smooth="yes"/>
			<point x="424" y="347"/>
			<point x="491" y="447"/>
			<point x="588" y="447" type="curve" smooth="yes"/>
			<point x="681" y="447"/>
			<point x="722" y="365"/>
			<point x="722" y="284" type="curve" smooth="yes"/>
			<point x="722" y="252"/>
			<point x="716" y="250"/>
			<point x="699" y="250" type="curve" smooth="yes"/>
			<point x="414" y="250" type="line"/>
			<point x="414" y="236" type="line"/>
			<point x="741" y="236" type="line"/>
			<point x="745" y="252"/>
			<point x="746" y="268"/>
			<point x="746" y="284" type="curve" smooth="yes"/>
			<point x="746" y="378"/>
			<point x="694" y="460"/>
			<point x="588" y="460" type="curve" smooth="yes"/>
			<point x="508" y="460"/>
			<point x="434" y="399"/>
			<point x="408" y="304" type="curve"/>
			<point x="416" y="304" type="line"/>
			<point x="391" y="412"/>
			<point x="314" y="460"/>
			<point x="236" y="460" type="curve" smooth="yes"/>
			<point x="142" y="460"/>
			<point x="48" y="383"/>
			<point x="48" y="220" type="curve" smooth="yes"/>
			<point x="48" y="58"/>
			<point x="142" y="-12"/>
		</contour>
		<contour>
			<point x="236" y="1" type="curve" smooth="yes"/>
			<point x="149" y="1"/>
			<point x="74" y="71"/>
			<point x="74" y="220" type="curve" smooth="yes"/>
			<point x="74" y="369"/>
			<point x="149" y="447"/>
			<point x="236" y="447" type="curve" smooth="yes"/>
			<point x="323" y="447"/>
			<point x="398" y="377"/>
			<point x="398" y="228" type="curve" smooth="yes"/>
			<point x="398" y="79"/>
			<point x="323" y="1"/>
		</contour>
	</outline>
	<anchor name="aboveLC" x="411" y="468"/>
</glyph>
<glyph name="Tbar" format="2">
	<unicode hex="0166"/>
	<advance width="556"/>
	<outline>
		<contour>
			<point x="68" y="341" type="line"/>
			<point x="486" y="341" type="line"/>
			<point x="486" y="354" type="line"/>
			<point x="68" y="354" type="line"/>
		</contour>
		<component base="T"/>
	</outline>
</glyph>
<glyph name="tbar" format="2">
	<unicode hex="0167"/>
	<advance width="300"/>
	<outline>
		<contour>
			<point x="16" y="242" type="line"/>
			<point x="268" y="242" type="line"/>
			<point x="268" y="254" type="line"/>
			<point x="16" y="254" type="line"/>
		</contour>
		<component base="t"/>
	</outline>
</glyph>
<glyph name="Uogonek" format="2">
	<unicode hex="0172"/>
	<advance width="692"/>
	<outline>
		<contour>
			<point x="421" y="-223" type="curve" smooth="yes"/>
			<point x="456" y="-223"/>
			<point x="486" y="-206"/>
			<point x="502" y="-183" type="curve"/>
			<point x="496" y="-177" type="line"/>
			<point x="476" y="-197"/>
			<point x="454" y="-207"/>
			<point x="424" y="-207" type="curve" smooth="yes"/>
			<point x="387" y="-207"/>
			<point x="356" y="-177"/>
			<point x="356" y="-132" type="curve" smooth="yes"/>
			<point x="356" y="-73"/>
			<point x="412" y="-17"/>
			<point x="461" y="14" type="curve" smooth="yes"/>
			<point x="525" y="55"/>
			<point x="556" y="130"/>
			<point x="556" y="244" type="curve" smooth="yes"/>
			<point x="556" y="676" type="line"/>
			<point x="540" y="676" type="line"/>
			<point x="540" y="260" type="line" smooth="yes"/>
			<point x="540" y="82"/>
			<point x="482" y="8"/>
			<point x="346" y="8" type="curve" smooth="yes"/>
			<point x="237" y="8"/>
			<point x="164" y="71"/>
			<point x="164" y="240" type="curve" smooth="yes"/>
			<point x="164" y="318" type="line" smooth="yes"/>
			<point x="164" y="493"/>
			<point x="164" y="574"/>
			<point x="166" y="676" type="curve"/>
			<point x="136" y="676" type="line"/>
			<point x="138" y="574"/>
			<point x="138" y="493"/>
			<point x="138" y="318" type="curve" smooth="yes"/>
			<point x="138" y="236" type="line" smooth="yes"/>
			<point x="138" y="60"/>
			<point x="219" y="-12"/>
			<point x="344" y="-12" type="curve" smooth="yes"/>
			<point x="378" y="-12"/>
			<point x="407" y="-8"/>
			<point x="433" y="2" type="curve"/>
			<point x="434" y="7" type="line"/>
			<point x="391" y="-25"/>
			<point x="336" y="-73"/>
			<point x="336" y="-136" type="curve" smooth="yes"/>
			<point x="336" y="-188"/>
			<point x="374" y="-223"/>
		</contour>
		<contour>
			<point x="52" y="666" type="line"/>
			<point x="144" y="660" type="line"/>
			<point x="158" y="660" type="line"/>
			<point x="258" y="666" type="line"/>
			<point x="258" y="676" type="line"/>
			<point x="52" y="676" type="line"/>
		</contour>
		<contour>
			<point x="446" y="666" type="line"/>
			<point x="546" y="660" type="line"/>
			<point x="550" y="660" type="line"/>
			<point x="640" y="666" type="line"/>
			<point x="640" y="676" type="line"/>
			<point x="446" y="676" type="line"/>
		</contour>
	</outline>
	<anchor name="aboveUC" x="352" y="692"/>
	<anchor name="belowLC" x="344" y="-24"/>
	<anchor name="hornLC" x="551" y="679"/>
</glyph>
<glyph name="uogonek" format="2">
	<unicode hex="0173"/>
	<advance width="552"/>
	<outline>
		<contour>
			<point x="464" y="-233" type="curve" smooth="yes"/>
			<point x="494" y="-233"/>
			<point x="514" y="-225"/>
			<point x="536" y="-210" type="curve"/>
			<point x="533" y="-202" type="line"/>
			<point x="508" y="-214"/>
			<point x="492" y="-217"/>
			<point x="466" y="-217" type="curve" smooth="yes"/>
			<point x="426" y="-217"/>
			<point x="402" y="-184"/>
			<point x="402" y="-138" type="curve" smooth="yes"/>
			<point x="402" y="-80"/>
			<point x="435" y="-30"/>
			<point x="467" y="0" type="curve"/>
			<point x="455" y="8" type="line"/>
			<point x="455" y="0" type="line"/>
			<point x="417" y="-35"/>
			<point x="382" y="-85"/>
			<point x="382" y="-142" type="curve" smooth="yes"/>
			<point x="382" y="-197"/>
			<point x="417" y="-233"/>
		</contour>
		<component base="u"/>
	</outline>
	<anchor name="aboveLC" x="275" y="468"/>
</glyph>
<glyph name="Schwa" format="2">
	<unicode hex="018F"/>
	<advance width="616"/>
	<outline>
		<contour>
			<point x="56" y="280" type="curve" smooth="yes"/>
			<point x="56" y="122"/>
			<point x="139" y="-12"/>
			<point x="304" y="-12" type="curve" smooth="yes"/>
			<point x="447" y="-12"/>
			<point x="556" y="122"/>
			<point x="556" y="344" type="curve" smooth="yes"/>
			<point x="556" y="557"/>
			<point x="447" y="688"/>
			<point x="292" y="688" type="curve" smooth="yes"/>
			<point x="219" y="688"/>
			<point x="144" y="654"/>
			<point x="92" y="591" type="curve"/>
			<point x="100" y="584" type="line"/>
			<point x="150" y="640"/>
			<point x="218" y="672"/>
			<point x="292" y="672" type="curve" smooth="yes"/>
			<point x="443" y="672"/>
			<point x="528" y="533"/>
			<point x="528" y="344" type="curve" smooth="yes"/>
			<point x="528" y="148"/>
			<point x="443" y="1"/>
			<point x="304" y="1" type="curve" smooth="yes"/>
			<point x="157" y="1"/>
			<point x="81" y="137"/>
			<point x="81" y="280" type="curve" smooth="yes"/>
			<point x="81" y="308"/>
			<point x="83" y="328"/>
			<point x="88" y="348" type="curve"/>
			<point x="76" y="336" type="line"/>
			<point x="532" y="336" type="line"/>
			<point x="532" y="350" type="line"/>
			<point x="63" y="350" type="line"/>
			<point x="58" y="330"/>
			<point x="56" y="310"/>
		</contour>
	</outline>
	<anchor name="aboveUC" x="321" y="682"/>
	<anchor name="belowLC" x="328" y="-22"/>
	<anchor name="aboveUC" x="293" y="682"/>
	<anchor name="belowLC" x="300" y="-22"/>
</glyph>
<glyph name="florin" format="2">
	<unicode hex="0192"/>
	<advance width="460"/>
	<outline>
		<contour>
			<point x="50" y="-100" type="curve" smooth="yes"/>
			<point x="91" y="-100"/>
			<point x="124" y="-87"/>
			<point x="150" y="-64" type="curve" smooth="yes"/>
			<point x="203" y="-17"/>
			<point x="228" y="50"/>
			<point x="238" y="218" type="curve" smooth="yes"/>
			<point x="246" y="350" type="line" smooth="yes"/>
			<point x="256" y="522"/>
			<point x="277" y="586"/>
			<point x="321" y="626" type="curve" smooth="yes"/>
			<point x="342" y="645"/>
			<point x="370" y="660"/>
			<point x="410" y="660" type="curve"/>
			<point x="378" y="660" type="line"/>
			<point x="371" y="660" type="line"/>
			<point x="394" y="644" type="line" smooth="yes"/>
			<point x="411" y="632"/>
			<point x="428" y="624"/>
			<point x="442" y="624" type="curve" smooth="yes"/>
			<point x="461" y="624"/>
			<point x="469" y="631"/>
			<point x="470" y="644" type="curve"/>
			<point x="463" y="661"/>
			<point x="437" y="668"/>
			<point x="410" y="668" type="curve" smooth="yes"/>
			<point x="369" y="668"/>
			<point x="336" y="655"/>
			<point x="310" y="632" type="curve" smooth="yes"/>
			<point x="257" y="585"/>
			<point x="232" y="518"/>
			<point x="222" y="350" type="curve" smooth="yes"/>
			<point x="214" y="218" type="line" smooth="yes"/>
			<point x="204" y="46"/>
			<point x="183" y="-18"/>
			<point x="139" y="-58" type="curve" smooth="yes"/>
			<point x="118" y="-77"/>
			<point x="90" y="-92"/>
			<point x="50" y="-92" type="curve"/>
			<point x="81" y="-92" type="line"/>
			<point x="85" y="-92" type="line"/>
			<point x="62" y="-76" type="line" smooth="yes"/>
			<point x="45" y="-64"/>
			<point x="28" y="-56"/>
			<point x="14" y="-56" type="curve" smooth="yes"/>
			<point x="-5" y="-56"/>
			<point x="-13" y="-63"/>
			<point x="-14" y="-76" type="curve"/>
			<point x="-7" y="-93"/>
			<point x="23" y="-100"/>
		</contour>
		<contour>
			<point x="106" y="359" type="line"/>
			<point x="380" y="359" type="line"/>
			<point x="380" y="371" type="line"/>
			<point x="106" y="371" type="line"/>
		</contour>
	</outline>
</glyph>
<glyph name="Uhorn" format="2">
	<unicode hex="01AF"/>
	<advance width="692"/>
	<outline>
		<contour>
			<point x="344" y="-12" type="curve" smooth="yes"/>
			<point x="489" y="-12"/>
			<point x="556" y="75"/>
			<point x="556" y="244" type="curve" smooth="yes"/>
			<point x="556" y="676" type="line"/>
			<point x="540" y="676" type="line"/>
			<point x="540" y="260" type="line" smooth="yes"/>
			<point x="540" y="82"/>
			<point x="482" y="8"/>
			<point x="346" y="8" type="curve" smooth="yes"/>
			<point x="237" y="8"/>
			<point x="164" y="71"/>
			<point x="164" y="240" type="curve" smooth="yes"/>
			<point x="164" y="318" type="line" smooth="yes"/>
			<point x="164" y="493"/>
			<point x="164" y="574"/>
			<point x="166" y="676" type="curve"/>
			<point x="136" y="676" type="line"/>
			<point x="138" y="574"/>
			<point x="138" y="493"/>
			<point x="138" y="318" type="curve" smooth="yes"/>
			<point x="138" y="236" type="line" smooth="yes"/>
			<point x="138" y="60"/>
			<point x="219" y="-12"/>
		</contour>
		<contour>
			<point x="553" y="660" type="line"/>
			<point x="607" y="662"/>
			<point x="645" y="677"/>
			<point x="645" y="729" type="curve" smooth="yes"/>
			<point x="645" y="753"/>
			<point x="637" y="774"/>
			<point x="630" y="785" type="curve"/>
			<point x="627" y="787"/>
			<point x="623" y="788"/>
			<point x="620" y="788" type="curve" smooth="yes"/>
			<point x="612" y="788"/>
			<point x="607" y="783"/>
			<point x="607" y="773" type="curve" smooth="yes"/>
			<point x="607" y="759"/>
			<point x="626" y="738"/>
			<point x="626" y="713" type="curve" smooth="yes"/>
			<point x="626" y="694"/>
			<point x="611" y="676"/>
			<point x="553" y="676" type="curve"/>
		</contour>
		<contour>
			<point x="52" y="666" type="line"/>
			<point x="144" y="660" type="line"/>
			<point x="158" y="660" type="line"/>
			<point x="258" y="666" type="line"/>
			<point x="258" y="676" type="line"/>
			<point x="52" y="676" type="line"/>
		</contour>
		<contour>
			<point x="446" y="666" type="line"/>
			<point x="546" y="660" type="line"/>
			<point x="553" y="660" type="line"/>
			<point x="553" y="676" type="line"/>
			<point x="446" y="676" type="line"/>
		</contour>
	</outline>
	<anchor name="aboveUC" x="356" y="696"/>
	<anchor name="belowLC" x="352" y="-20"/>
</glyph>
<glyph name="dotlessj" format="2">
	<unicode hex="0237"/>
	<advance width="248"/>
	<outline>
		<contour>
			<point x="10" y="-264" type="curve" smooth="yes"/>
			<point x="43" y="-264"/>
			<point x="68" y="-254"/>
			<point x="92" y="-230" type="curve" smooth="yes"/>
			<point x="143" y="-179"/>
			<point x="146" y="-113"/>
			<point x="146" y="55" type="curve" smooth="yes"/>
			<point x="146" y="280" type="line"/>
			<point x="146" y="330"/>
			<point x="147" y="411"/>
			<point x="148" y="447" type="curve"/>
			<point x="142" y="452" type="line"/>
			<point x="36" y="444" type="line"/>
			<point x="36" y="434" type="line"/>
			<point x="119" y="434" type="line"/>
			<point x="121" y="372"/>
			<point x="122" y="314"/>
			<point x="122" y="252" type="curve" smooth="yes"/>
			<point x="122" y="20" type="line" smooth="yes"/>
			<point x="122" y="-83"/>
			<point x="117" y="-174"/>
			<point x="88" y="-214" type="curve" smooth="yes"/>
			<point x="70" y="-238"/>
			<point x="48" y="-254"/>
			<point x="10" y="-261" type="curve"/>
			<point x="31" y="-261" type="line"/>
			<point x="47" y="-252" type="line"/>
			<point x="30" y="-240" type="line" smooth="yes"/>
			<point x="12" y="-228"/>
			<point x="-4" y="-220"/>
			<point x="-18" y="-220" type="curve" smooth="yes"/>
			<point x="-37" y="-220"/>
			<point x="-45" y="-227"/>
			<point x="-46" y="-240" type="curve"/>
			<point x="-39" y="-257"/>
			<point x="-13" y="-264"/>
		</contour>
	</outline>
	<anchor name="aboveLC" x="134" y="476"/>
</glyph>
<glyph name="alphalatin" format="2">
	<unicode hex="0251"/>
	<advance width="518"/>
	<outline>
		<contour>
			<point x="224" y="-12" type="curve" smooth="yes"/>
			<point x="280" y="-12"/>
			<point x="334" y="13"/>
			<point x="380" y="78" type="curve"/>
			<point x="388" y="78" type="line"/>
			<point x="380" y="92" type="line"/>
			<point x="332" y="28"/>
			<point x="284" y="2"/>
			<point x="228" y="2" type="curve" smooth="yes"/>
			<point x="140" y="2"/>
			<point x="74" y="76"/>
			<point x="74" y="216" type="curve" smooth="yes"/>
			<point x="74" y="378"/>
			<point x="159" y="446"/>
			<point x="242" y="446" type="curve" smooth="yes"/>
			<point x="298" y="446"/>
			<point x="336" y="422"/>
			<point x="380" y="362" type="curve"/>
			<point x="388" y="376" type="line"/>
			<point x="380" y="376" type="line"/>
			<point x="342" y="438"/>
			<point x="289" y="460"/>
			<point x="240" y="460" type="curve" smooth="yes"/>
			<point x="144" y="460"/>
			<point x="48" y="382"/>
			<point x="48" y="214" type="curve" smooth="yes"/>
			<point x="48" y="66"/>
			<point x="128" y="-12"/>
		</contour>
		<contour>
			<point x="378" y="83" type="line"/>
			<point x="378" y="54" type="line" smooth="yes"/>
			<point x="378" y="10"/>
			<point x="400" y="-12"/>
			<point x="438" y="-12" type="curve" smooth="yes"/>
			<point x="459" y="-12"/>
			<point x="483" y="-1"/>
			<point x="494" y="16" type="curve"/>
			<point x="488" y="22" type="line"/>
			<point x="473" y="7"/>
			<point x="457" y="1"/>
			<point x="443" y="1" type="curve" smooth="yes"/>
			<point x="416" y="1"/>
			<point x="402" y="16"/>
			<point x="402" y="54" type="curve"/>
			<point x="402" y="256" type="line"/>
			<point x="405" y="447" type="line"/>
			<point x="396" y="448" type="line"/>
			<point x="378" y="372" type="line"/>
			<point x="378" y="368" type="line"/>
		</contour>
	</outline>
	<anchor name="aboveLC" x="247" y="468"/>
	<anchor name="belowLC" x="248" y="-20"/>
</glyph>
<glyph name="schwa" format="2">
	<unicode hex="0259"/>
	<advance width="440"/>
	<outline>
		<contour>
			<point x="392" y="224" type="curve" smooth="yes"/>
			<point x="392" y="381"/>
			<point x="310" y="460"/>
			<point x="192" y="460" type="curve" smooth="yes"/>
			<point x="144" y="460"/>
			<point x="84" y="435"/>
			<point x="48" y="384" type="curve"/>
			<point x="55" y="377" type="line"/>
			<point x="92" y="418"/>
			<point x="140" y="440"/>
			<point x="192" y="440" type="curve" smooth="yes"/>
			<point x="303" y="440"/>
			<point x="366" y="355"/>
			<point x="366" y="212" type="curve" smooth="yes"/>
			<point x="366" y="101"/>
			<point x="303" y="1"/>
			<point x="206" y="1" type="curve" smooth="yes"/>
			<point x="113" y="1"/>
			<point x="68" y="83"/>
			<point x="68" y="164" type="curve" smooth="yes"/>
			<point x="68" y="196"/>
			<point x="74" y="198"/>
			<point x="91" y="198" type="curve" smooth="yes"/>
			<point x="376" y="198" type="line"/>
			<point x="376" y="212" type="line"/>
			<point x="49" y="212" type="line"/>
			<point x="45" y="196"/>
			<point x="44" y="180"/>
			<point x="44" y="164" type="curve" smooth="yes"/>
			<point x="44" y="70"/>
			<point x="100" y="-12"/>
			<point x="206" y="-12" type="curve" smooth="yes"/>
			<point x="307" y="-12"/>
			<point x="392" y="84"/>
		</contour>
	</outline>
	<anchor name="aboveLC" x="212" y="476"/>
	<anchor name="belowLC" x="212" y="-24"/>
</glyph>
<glyph name="gscript" format="2">
	<unicode hex="0261"/>
	<advance width="493"/>
	<outline>
		<contour>
			<point x="212" y="-264" type="curve" smooth="yes"/>
			<point x="269" y="-264"/>
			<point x="316" y="-247"/>
			<point x="354" y="-207" type="curve" smooth="yes"/>
			<point x="383" y="-176"/>
			<point x="402" y="-132"/>
			<point x="402" y="-68" type="curve" smooth="yes"/>
			<point x="402" y="256" type="line"/>
			<point x="405" y="447" type="line"/>
			<point x="396" y="448" type="line"/>
			<point x="378" y="372" type="line"/>
			<point x="378" y="368" type="line"/>
			<point x="378" y="87" type="line"/>
			<point x="378" y="83" type="line"/>
			<point x="378" y="33"/>
			<point x="378" y="-18"/>
			<point x="378" y="-68" type="curve" smooth="yes"/>
			<point x="378" y="-126"/>
			<point x="365" y="-166"/>
			<point x="340" y="-196" type="curve" smooth="yes"/>
			<point x="307" y="-236"/>
			<point x="265" y="-251"/>
			<point x="212" y="-251" type="curve" smooth="yes"/>
			<point x="166" y="-251"/>
			<point x="121" y="-238"/>
			<point x="89" y="-206" type="curve"/>
			<point x="107" y="-228" type="line"/>
			<point x="92" y="-153" type="line"/>
			<point x="87" y="-141"/>
			<point x="82" y="-136"/>
			<point x="70" y="-136" type="curve" smooth="yes"/>
			<point x="60" y="-136"/>
			<point x="53" y="-142"/>
			<point x="52" y="-154" type="curve"/>
			<point x="67" y="-226"/>
			<point x="140" y="-264"/>
		</contour>
		<contour>
			<point x="224" y="-12" type="curve" smooth="yes"/>
			<point x="280" y="-12"/>
			<point x="334" y="13"/>
			<point x="380" y="78" type="curve"/>
			<point x="388" y="78" type="line"/>
			<point x="380" y="92" type="line"/>
			<point x="332" y="28"/>
			<point x="284" y="2"/>
			<point x="228" y="2" type="curve" smooth="yes"/>
			<point x="140" y="2"/>
			<point x="74" y="76"/>
			<point x="74" y="216" type="curve" smooth="yes"/>
			<point x="74" y="378"/>
			<point x="159" y="446"/>
			<point x="242" y="446" type="curve" smooth="yes"/>
			<point x="298" y="446"/>
			<point x="336" y="422"/>
			<point x="380" y="362" type="curve"/>
			<point x="388" y="376" type="line"/>
			<point x="380" y="376" type="line"/>
			<point x="342" y="438"/>
			<point x="289" y="460"/>
			<point x="240" y="460" type="curve" smooth="yes"/>
			<point x="144" y="460"/>
			<point x="48" y="382"/>
			<point x="48" y="214" type="curve" smooth="yes"/>
			<point x="48" y="66"/>
			<point x="128" y="-12"/>
		</contour>
	</outline>
	<anchor name="aboveLC" x="246" y="468"/>
	<anchor name="belowLC" x="226" y="-284"/>
</glyph>
<glyph name="j.sups" format="2">
	<unicode hex="02B2"/>
	<advance width="168"/>
	<outline>
		<contour>
			<point x="9" y="272" type="curve" smooth="yes"/>
			<point x="32" y="272"/>
			<point x="50" y="279"/>
			<point x="66" y="295" type="curve" smooth="yes"/>
			<point x="99" y="326"/>
			<point x="102" y="367"/>
			<point x="102" y="468" type="curve" smooth="yes"/>
			<point x="102" y="715" type="line"/>
			<point x="98" y="719" type="line"/>
			<point x="24" y="709" type="line"/>
			<point x="24" y="702" type="line"/>
			<point x="80" y="699" type="line"/>
			<point x="80" y="451" type="line" smooth="yes"/>
			<point x="80" y="383"/>
			<point x="78" y="329"/>
			<point x="59" y="303" type="curve" smooth="yes"/>
			<point x="51" y="292"/>
			<point x="42" y="284"/>
			<point x="28" y="280" type="curve"/>
			<point x="32" y="278" type="line"/>
			<point x="37" y="282" type="line"/>
			<point x="24" y="291" type="line" smooth="yes"/>
			<point x="12" y="300"/>
			<point x="1" y="304"/>
			<point x="-10" y="304" type="curve" smooth="yes"/>
			<point x="-24" y="304"/>
			<point x="-31" y="299"/>
			<point x="-32" y="290" type="curve"/>
			<point x="-27" y="278"/>
			<point x="-9" y="272"/>
		</contour>
		<contour>
			<point x="89" y="833" type="curve" smooth="yes"/>
			<point x="101" y="833"/>
			<point x="112" y="841"/>
			<point x="112" y="855" type="curve" smooth="yes"/>
			<point x="112" y="869"/>
			<point x="101" y="877"/>
			<point x="89" y="877" type="curve" smooth="yes"/>
			<point x="76" y="877"/>
			<point x="65" y="869"/>
			<point x="65" y="855" type="curve" smooth="yes"/>
			<point x="65" y="841"/>
			<point x="76" y="833"/>
		</contour>
	</outline>
</glyph>
<glyph name="r.sups" format="2">
	<unicode hex="02B3"/>
	<advance width="252"/>
	<outline>
		<contour>
			<point x="80" y="436" type="line"/>
			<point x="102" y="436" type="line"/>
			<point x="102" y="626" type="line"/>
			<point x="102" y="627" type="line"/>
			<point x="102" y="715" type="line"/>
			<point x="98" y="719" type="line"/>
			<point x="24" y="709" type="line"/>
			<point x="24" y="702" type="line"/>
			<point x="80" y="699" type="line"/>
		</contour>
		<contour>
			<point x="100" y="614" type="line"/>
			<point x="120" y="671"/>
			<point x="154" y="704"/>
			<point x="190" y="712" type="curve"/>
			<point x="174" y="711" type="line"/>
			<point x="187" y="701" type="line" smooth="yes"/>
			<point x="197" y="694"/>
			<point x="209" y="688"/>
			<point x="220" y="688" type="curve" smooth="yes"/>
			<point x="232" y="688"/>
			<point x="241" y="692"/>
			<point x="243" y="704" type="curve"/>
			<point x="239" y="716"/>
			<point x="223" y="723"/>
			<point x="203" y="723" type="curve" smooth="yes"/>
			<point x="159" y="723"/>
			<point x="119" y="686"/>
			<point x="101" y="633" type="curve"/>
			<point x="94" y="633" type="line"/>
		</contour>
		<contour>
			<point x="26" y="436" type="line"/>
			<point x="166" y="436" type="line"/>
			<point x="166" y="443" type="line"/>
			<point x="93" y="448" type="line"/>
			<point x="89" y="448" type="line"/>
			<point x="26" y="443" type="line"/>
		</contour>
	</outline>
</glyph>
<glyph name="w.sups" format="2">
	<unicode hex="02B7"/>
	<advance width="480"/>
	<outline>
		<contour>
			<point x="144" y="428" type="line"/>
			<point x="154" y="428" type="line"/>
			<point x="244" y="688" type="line"/>
			<point x="246" y="693" type="line"/>
			<point x="239" y="693" type="line"/>
			<point x="331" y="428" type="line"/>
			<point x="340" y="428" type="line"/>
			<point x="436" y="709" type="line"/>
			<point x="423" y="709" type="line"/>
			<point x="338" y="453" type="line"/>
			<point x="337" y="449" type="line"/>
			<point x="343" y="449" type="line"/>
			<point x="256" y="709" type="line"/>
			<point x="239" y="709" type="line"/>
			<point x="152" y="456" type="line"/>
			<point x="150" y="449" type="line"/>
			<point x="159" y="449" type="line"/>
			<point x="70" y="709" type="line"/>
			<point x="44" y="709" type="line"/>
		</contour>
		<contour>
			<point x="7" y="702" type="line"/>
			<point x="60" y="697" type="line"/>
			<point x="64" y="697" type="line"/>
			<point x="128" y="702" type="line"/>
			<point x="128" y="709" type="line"/>
			<point x="7" y="709" type="line"/>
		</contour>
		<contour>
			<point x="192" y="702" type="line"/>
			<point x="243" y="698" type="line"/>
			<point x="259" y="698" type="line"/>
			<point x="305" y="702" type="line"/>
			<point x="305" y="709" type="line"/>
			<point x="192" y="709" type="line"/>
		</contour>
		<contour>
			<point x="366" y="702" type="line"/>
			<point x="425" y="698" type="line"/>
			<point x="429" y="698" type="line"/>
			<point x="473" y="702" type="line"/>
			<point x="473" y="709" type="line"/>
			<point x="366" y="709" type="line"/>
		</contour>
	</outline>
</glyph>
<glyph name="y.sups" format="2">
	<unicode hex="02B8"/>
	<advance width="320"/>
	<outline>
		<contour>
			<point x="46" y="266" type="curve" smooth="yes"/>
			<point x="91" y="266"/>
			<point x="125" y="314"/>
			<point x="154" y="390" type="curve" smooth="yes"/>
			<point x="278" y="709" type="line"/>
			<point x="265" y="709" type="line"/>
			<point x="164" y="445" type="line"/>
			<point x="142" y="392" type="line" smooth="yes"/>
			<point x="115" y="322"/>
			<point x="87" y="281"/>
			<point x="50" y="277" type="curve"/>
			<point x="62" y="275" type="line"/>
			<point x="72" y="277" type="line"/>
			<point x="59" y="286" type="line" smooth="yes"/>
			<point x="48" y="293"/>
			<point x="36" y="298"/>
			<point x="26" y="298" type="curve" smooth="yes"/>
			<point x="12" y="298"/>
			<point x="5" y="293"/>
			<point x="4" y="284" type="curve"/>
			<point x="9" y="272"/>
			<point x="27" y="266"/>
		</contour>
		<contour>
			<point x="7" y="702" type="line"/>
			<point x="60" y="697" type="line"/>
			<point x="64" y="697" type="line"/>
			<point x="129" y="702" type="line"/>
			<point x="129" y="709" type="line"/>
			<point x="7" y="709" type="line"/>
		</contour>
		<contour>
			<point x="207" y="702" type="line"/>
			<point x="266" y="698" type="line"/>
			<point x="270" y="698" type="line"/>
			<point x="315" y="702" type="line"/>
			<point x="315" y="709" type="line"/>
			<point x="207" y="709" type="line"/>
		</contour>
		<contour>
			<point x="159" y="428" type="line"/>
			<point x="165" y="437" type="line"/>
			<point x="173" y="449" type="line"/>
			<point x="70" y="709" type="line"/>
			<point x="43" y="709" type="line"/>
		</contour>
	</outline>
</glyph>
<glyph name="ringhalfrightmod" format="2">
	<unicode hex="02BE"/>
	<advance width="136"/>
	<outline>
		<contour>
			<point x="24" y="572" type="line"/>
			<point x="75" y="573"/>
			<point x="112" y="609"/>
			<point x="112" y="660" type="curve"/>
			<point x="112" y="711"/>
			<point x="75" y="747"/>
			<point x="24" y="748" type="curve"/>
			<point x="24" y="732" type="line"/>
			<point x="65" y="731"/>
			<point x="92" y="697"/>
			<point x="92" y="660" type="curve"/>
			<point x="92" y="623"/>
			<point x="65" y="589"/>
			<point x="24" y="588" type="curve"/>
		</contour>
	</outline>
</glyph>
<glyph name="ringhalfleftmod" format="2">
	<unicode hex="02BF"/>
	<advance width="172"/>
	<outline>
		<contour>
			<point x="47" y="655" type="curve" smooth="yes"/>
			<point x="47" y="604"/>
			<point x="84" y="568"/>
			<point x="135" y="567" type="curve"/>
			<point x="135" y="583" type="line"/>
			<point x="94" y="584"/>
			<point x="67" y="618"/>
			<point x="67" y="655" type="curve" smooth="yes"/>
			<point x="67" y="692"/>
			<point x="94" y="726"/>
			<point x="135" y="727" type="curve"/>
			<point x="135" y="743" type="line"/>
			<point x="84" y="742"/>
			<point x="47" y="706"/>
		</contour>
	</outline>
</glyph>
<glyph name="colontriangularmod" format="2">
	<unicode hex="02D0"/>
	<advance width="296"/>
	<outline>
		<contour>
			<point x="116" y="467" type="line"/>
			<point x="146" y="414" type="line"/>
			<point x="150" y="414" type="line"/>
			<point x="180" y="467" type="line"/>
			<point x="178" y="470" type="line"/>
			<point x="118" y="470" type="line"/>
		</contour>
		<contour>
			<point x="116" y="3" type="line"/>
			<point x="118" y="0" type="line"/>
			<point x="178" y="0" type="line"/>
			<point x="180" y="3" type="line"/>
			<point x="150" y="56" type="line"/>
			<point x="146" y="56" type="line"/>
		</contour>
	</outline>
</glyph>
<glyph name="l.sups" format="2">
	<unicode hex="02E1"/>
	<advance width="179"/>
	<outline>
		<contour>
			<point x="26" y="436" type="line"/>
			<point x="154" y="436" type="line"/>
			<point x="154" y="443" type="line"/>
			<point x="93" y="448" type="line"/>
			<point x="89" y="448" type="line"/>
			<point x="26" y="443" type="line"/>
		</contour>
		<contour>
			<point x="80" y="436" type="line"/>
			<point x="102" y="436" type="line"/>
			<point x="102" y="896" type="line"/>
			<point x="98" y="900" type="line"/>
			<point x="26" y="891" type="line"/>
			<point x="26" y="884" type="line"/>
			<point x="80" y="882" type="line"/>
		</contour>
	</outline>
</glyph>
<glyph name="gravecmb" format="2">
	<unicode hex="0300"/>
	<outline>
		<contour>
			<point x="44" y="542" type="line"/>
			<point x="9" y="590"/>
			<point x="-30" y="640"/>
			<point x="-57" y="675" type="curve" smooth="yes"/>
			<point x="-73" y="696"/>
			<point x="-79" y="705"/>
			<point x="-88" y="705" type="curve" smooth="yes"/>
			<point x="-96" y="705"/>
			<point x="-102" y="700"/>
			<point x="-102" y="691" type="curve" smooth="yes"/>
			<point x="-102" y="682"/>
			<point x="-93" y="675"/>
			<point x="-74" y="655" type="curve" smooth="yes"/>
			<point x="-58" y="638"/>
			<point x="-39" y="615"/>
			<point x="36" y="536" type="curve"/>
		</contour>
	</outline>
	<anchor name="_aboveLC" x="0" y="476"/>
	<anchor name="aboveLC" x="0" y="716"/>
</glyph>
<glyph name="acutecmb" format="2">
	<unicode hex="0301"/>
	<outline>
		<contour>
			<point x="-36" y="536" type="line"/>
			<point x="39" y="615"/>
			<point x="59" y="636"/>
			<point x="75" y="652" type="curve" smooth="yes"/>
			<point x="94" y="672"/>
			<point x="103" y="681"/>
			<point x="103" y="691" type="curve" smooth="yes"/>
			<point x="103" y="701"/>
			<point x="96" y="706"/>
			<point x="88" y="706" type="curve" smooth="yes"/>
			<point x="79" y="706"/>
			<point x="72" y="697"/>
			<point x="56" y="676" type="curve" smooth="yes"/>
			<point x="29" y="641"/>
			<point x="-9" y="590"/>
			<point x="-44" y="542" type="curve"/>
		</contour>
	</outline>
	<anchor name="_aboveLC" x="0" y="476"/>
	<anchor name="aboveLC" x="0" y="712"/>
</glyph>
<glyph name="circumflexcmb" format="2">
	<unicode hex="0302"/>
	<outline>
		<contour>
			<point x="110" y="532" type="line"/>
			<point x="118" y="538" type="line"/>
			<point x="6" y="693" type="line"/>
			<point x="-6" y="693" type="line"/>
			<point x="-118" y="538" type="line"/>
			<point x="-110" y="532" type="line"/>
			<point x="2" y="665" type="line"/>
			<point x="-2" y="665" type="line"/>
		</contour>
	</outline>
	<anchor name="_aboveLC" x="0" y="468"/>
	<anchor name="aboveLC" x="0" y="693"/>
</glyph>
<glyph name="tildecmb" format="2">
	<unicode hex="0303"/>
	<outline>
		<contour>
			<point x="135" y="657" type="line"/>
			<point x="127" y="611"/>
			<point x="104" y="572"/>
			<point x="64" y="572" type="curve" smooth="yes"/>
			<point x="36" y="572"/>
			<point x="17" y="587"/>
			<point x="0" y="604" type="curve" smooth="yes"/>
			<point x="-20" y="624"/>
			<point x="-37" y="647"/>
			<point x="-64" y="647" type="curve" smooth="yes"/>
			<point x="-95" y="647"/>
			<point x="-114" y="621"/>
			<point x="-125" y="577" type="curve"/>
			<point x="-135" y="579" type="line"/>
			<point x="-127" y="625"/>
			<point x="-104" y="664"/>
			<point x="-64" y="664" type="curve" smooth="yes"/>
			<point x="-36" y="664"/>
			<point x="-17" y="649"/>
			<point x="0" y="632" type="curve" smooth="yes"/>
			<point x="20" y="612"/>
			<point x="37" y="589"/>
			<point x="64" y="589" type="curve" smooth="yes"/>
			<point x="95" y="589"/>
			<point x="114" y="615"/>
			<point x="125" y="659" type="curve"/>
		</contour>
	</outline>
	<anchor name="_aboveLC" x="0" y="500"/>
	<anchor name="aboveLC" x="0" y="702"/>
	<anchor name="_aboveLC" x="0" y="500"/>
	<anchor name="aboveLC" x="0" y="702"/>
</glyph>
<glyph name="macroncmb" format="2">
	<unicode hex="0304"/>
	<outline>
		<contour>
			<point x="-113" y="609" type="line"/>
			<point x="113" y="609" type="line"/>
			<point x="113" y="631" type="line"/>
			<point x="-113" y="631" type="line"/>
		</contour>
	</outline>
	<anchor name="_aboveLC" x="0" y="500"/>
	<anchor name="aboveLC" x="0" y="667"/>
	<anchor name="_aboveLC" x="0" y="500"/>
	<anchor name="aboveLC" x="0" y="667"/>
</glyph>
<glyph name="brevecmb" format="2">
	<unicode hex="0306"/>
	<outline>
		<contour>
			<point x="0" y="557" type="curve"/>
			<point x="68" y="557"/>
			<point x="108" y="602"/>
			<point x="128" y="669" type="curve"/>
			<point x="139" y="667" type="line"/>
			<point x="125" y="590"/>
			<point x="71" y="536"/>
			<point x="0" y="536" type="curve"/>
			<point x="-71" y="536"/>
			<point x="-125" y="590"/>
			<point x="-139" y="667" type="curve"/>
			<point x="-128" y="669" type="line"/>
			<point x="-108" y="602"/>
			<point x="-68" y="557"/>
		</contour>
	</outline>
	<anchor name="_aboveLC" x="0" y="500"/>
	<anchor name="aboveLC" x="0" y="730"/>
	<anchor name="_aboveLC" x="0" y="500"/>
	<anchor name="aboveLC" x="0" y="730"/>
</glyph>
<glyph name="dotaccentcmb" format="2">
	<unicode hex="0307"/>
	<outline>
		<contour>
			<point x="0" y="605" type="curve" smooth="yes"/>
			<point x="15" y="605"/>
			<point x="28" y="616"/>
			<point x="28" y="633" type="curve" smooth="yes"/>
			<point x="28" y="650"/>
			<point x="15" y="661"/>
			<point x="0" y="661" type="curve" smooth="yes"/>
			<point x="-15" y="661"/>
			<point x="-28" y="650"/>
			<point x="-28" y="633" type="curve" smooth="yes"/>
			<point x="-28" y="616"/>
			<point x="-15" y="605"/>
		</contour>
	</outline>
	<anchor name="_aboveLC" x="0" y="476"/>
	<anchor name="aboveLC" x="0" y="664"/>
</glyph>
<glyph name="dieresiscmb" format="2">
	<unicode hex="0308"/>
	<outline>
		<contour>
			<point x="-80" y="605" type="curve" smooth="yes"/>
			<point x="-66" y="605"/>
			<point x="-54" y="614"/>
			<point x="-54" y="631" type="curve" smooth="yes"/>
			<point x="-54" y="648"/>
			<point x="-66" y="657"/>
			<point x="-80" y="657" type="curve" smooth="yes"/>
			<point x="-94" y="657"/>
			<point x="-106" y="648"/>
			<point x="-106" y="631" type="curve" smooth="yes"/>
			<point x="-106" y="614"/>
			<point x="-94" y="605"/>
		</contour>
		<contour>
			<point x="80" y="605" type="curve" smooth="yes"/>
			<point x="94" y="605"/>
			<point x="106" y="614"/>
			<point x="106" y="631" type="curve"/>
			<point x="106" y="648"/>
			<point x="94" y="657"/>
			<point x="80" y="657" type="curve" smooth="yes"/>
			<point x="66" y="657"/>
			<point x="54" y="648"/>
			<point x="54" y="631" type="curve" smooth="yes"/>
			<point x="54" y="614"/>
			<point x="66" y="605"/>
		</contour>
	</outline>
	<anchor name="_aboveLC" x="0" y="476"/>
	<anchor name="aboveLC" x="0" y="664"/>
</glyph>
<glyph name="hoicmb" format="2">
	<unicode hex="0309"/>
	<outline>
		<contour>
			<point x="-19" y="548" type="line"/>
			<point x="20" y="558"/>
			<point x="52" y="575"/>
			<point x="52" y="614" type="curve" smooth="yes"/>
			<point x="52" y="665"/>
			<point x="9" y="678"/>
			<point x="-36" y="686" type="curve"/>
			<point x="-32" y="703" type="line"/>
			<point x="25" y="694"/>
			<point x="71" y="669"/>
			<point x="71" y="617" type="curve" smooth="yes"/>
			<point x="71" y="569"/>
			<point x="25" y="545"/>
			<point x="-16" y="539" type="curve"/>
		</contour>
	</outline>
	<anchor name="_aboveLC" x="0" y="500"/>
	<anchor name="aboveLC" x="0" y="729"/>
	<anchor name="_aboveLC" x="0" y="500"/>
	<anchor name="aboveLC" x="0" y="729"/>
</glyph>
<glyph name="ringcmb" format="2">
	<unicode hex="030A"/>
	<outline>
		<contour>
			<point x="0" y="548" type="curve" smooth="yes"/>
			<point x="-38" y="548"/>
			<point x="-65" y="579"/>
			<point x="-65" y="615" type="curve" smooth="yes"/>
			<point x="-65" y="651"/>
			<point x="-38" y="682"/>
			<point x="0" y="682" type="curve" smooth="yes"/>
			<point x="38" y="682"/>
			<point x="65" y="651"/>
			<point x="65" y="615" type="curve" smooth="yes"/>
			<point x="65" y="579"/>
			<point x="38" y="548"/>
		</contour>
		<contour>
			<point x="0" y="536" type="curve"/>
			<point x="46" y="536"/>
			<point x="78" y="574"/>
			<point x="78" y="615" type="curve" smooth="yes"/>
			<point x="78" y="656"/>
			<point x="46" y="694"/>
			<point x="0" y="694" type="curve" smooth="yes"/>
			<point x="-46" y="694"/>
			<point x="-78" y="656"/>
			<point x="-78" y="615" type="curve" smooth="yes"/>
			<point x="-78" y="574"/>
			<point x="-46" y="536"/>
		</contour>
	</outline>
	<anchor name="_aboveLC" x="0" y="468"/>
	<anchor name="aboveLC" x="0" y="694"/>
</glyph>
<glyph name="hungarumlautcmb" format="2">
	<unicode hex="030B"/>
	<outline>
		<contour>
			<point x="-27" y="674" type="line" smooth="yes"/>
			<point x="-18" y="700"/>
			<point x="-14" y="713"/>
			<point x="-1" y="713" type="curve" smooth="yes"/>
			<point x="6" y="713"/>
			<point x="13" y="709"/>
			<point x="13" y="699" type="curve" smooth="yes"/>
			<point x="13" y="692"/>
			<point x="10" y="686"/>
			<point x="2" y="668" type="curve" smooth="yes"/>
			<point x="-25" y="610"/>
			<point x="-38" y="584"/>
			<point x="-60" y="536" type="curve"/>
			<point x="-70" y="540" type="line"/>
		</contour>
		<contour>
			<point x="93" y="674" type="line" smooth="yes"/>
			<point x="102" y="700"/>
			<point x="106" y="713"/>
			<point x="119" y="713" type="curve" smooth="yes"/>
			<point x="126" y="713"/>
			<point x="133" y="709"/>
			<point x="133" y="699" type="curve" smooth="yes"/>
			<point x="133" y="692"/>
			<point x="130" y="686"/>
			<point x="122" y="668" type="curve" smooth="yes"/>
			<point x="95" y="610"/>
			<point x="82" y="584"/>
			<point x="60" y="536" type="curve"/>
			<point x="50" y="540" type="line"/>
		</contour>
	</outline>
	<anchor name="_aboveLC" x="0" y="500"/>
	<anchor name="aboveLC" x="0" y="741"/>
	<anchor name="_aboveLC" x="0" y="500"/>
	<anchor name="aboveLC" x="0" y="741"/>
</glyph>
<glyph name="caroncmb" format="2">
	<unicode hex="030C"/>
	<outline>
		<contour>
			<point x="-110" y="697" type="line"/>
			<point x="-118" y="691" type="line"/>
			<point x="-6" y="536" type="line"/>
			<point x="6" y="536" type="line"/>
			<point x="118" y="691" type="line"/>
			<point x="110" y="697" type="line"/>
			<point x="-2" y="564" type="line"/>
			<point x="2" y="564" type="line"/>
		</contour>
	</outline>
	<anchor name="_aboveLC" x="0" y="468"/>
	<anchor name="aboveLC" x="0" y="697"/>
</glyph>
<glyph name="horncmb" format="2">
	<unicode hex="031B"/>
	<outline>
		<contour>
			<point x="0" y="381" type="line"/>
			<point x="76" y="395"/>
			<point x="99" y="452"/>
			<point x="99" y="501" type="curve" smooth="yes"/>
			<point x="99" y="530"/>
			<point x="91" y="551"/>
			<point x="84" y="562" type="curve"/>
			<point x="81" y="564"/>
			<point x="79" y="565"/>
			<point x="74" y="565" type="curve" smooth="yes"/>
			<point x="67" y="565"/>
			<point x="60" y="559"/>
			<point x="60" y="549" type="curve" smooth="yes"/>
			<point x="60" y="535"/>
			<point x="77" y="515"/>
			<point x="77" y="481" type="curve" smooth="yes"/>
			<point x="77" y="444"/>
			<point x="58" y="406"/>
			<point x="0" y="394" type="curve"/>
		</contour>
	</outline>
	<anchor name="_hornLC" x="0" y="476"/>
</glyph>
<glyph name="commabelowcmb" format="2">
	<unicode hex="0326"/>
	<outline>
		<contour>
			<point x="29" y="-108" type="curve"/>
			<point x="29" y="-100"/>
			<point x="27" y="-89"/>
			<point x="24" y="-83" type="curve"/>
			<point x="18" y="-76"/>
			<point x="10" y="-73"/>
			<point x="0" y="-73" type="curve" smooth="yes"/>
			<point x="-16" y="-73"/>
			<point x="-29" y="-81"/>
			<point x="-29" y="-100" type="curve" smooth="yes"/>
			<point x="-29" y="-115"/>
			<point x="-18" y="-131"/>
			<point x="6" y="-138" type="curve"/>
			<point x="5" y="-137" type="line"/>
			<point x="-6" y="-171"/>
			<point x="-30" y="-202"/>
			<point x="-75" y="-220" type="curve"/>
			<point x="-71" y="-232" type="line"/>
			<point x="-20" y="-215"/>
			<point x="29" y="-167"/>
		</contour>
	</outline>
	<anchor name="_belowLC" x="0" y="-24"/>
	<anchor name="belowLC" x="0" y="-244"/>
</glyph>
<glyph name="ogonekcmb" format="2">
	<unicode hex="0328"/>
	<outline>
		<contour>
			<point x="-78" y="-136" type="curve" smooth="yes"/>
			<point x="-78" y="-191"/>
			<point x="-41" y="-223"/>
			<point x="8" y="-223" type="curve" smooth="yes"/>
			<point x="42" y="-223"/>
			<point x="71" y="-206"/>
			<point x="88" y="-183" type="curve"/>
			<point x="82" y="-177" type="line"/>
			<point x="60" y="-198"/>
			<point x="39" y="-207"/>
			<point x="10" y="-207" type="curve" smooth="yes"/>
			<point x="-32" y="-207"/>
			<point x="-58" y="-178"/>
			<point x="-58" y="-132" type="curve" smooth="yes"/>
			<point x="-58" y="-74"/>
			<point x="-25" y="-30"/>
			<point x="7" y="0" type="curve"/>
			<point x="-5" y="0" type="line"/>
			<point x="-43" y="-35"/>
			<point x="-78" y="-79"/>
		</contour>
	</outline>
	<anchor name="_ogonek" x="0" y="0"/>
</glyph>
